<mxfile host="app.diagrams.net" modified="2022-02-09T02:45:41.732Z" agent="5.0 (Macintosh; Intel Mac OS X 11_6_1) AppleWebKit/537.36 (KHTML, like Gecko) Chrome/89.0.4389.114 Safari/537.36" etag="h4iAmC__3k7uPp3DhC40" version="16.5.4" type="github">
  <diagram id="AouPGFJOOKbVTpHLAXiD" name="Page-1">
    <mxGraphModel dx="1426" dy="794" grid="1" gridSize="10" guides="1" tooltips="1" connect="1" arrows="1" fold="1" page="1" pageScale="1" pageWidth="827" pageHeight="1169" math="0" shadow="0">
      <root>
        <mxCell id="0" />
        <mxCell id="1" parent="0" />
        <mxCell id="SKYqRsKC4ZwLW245TKKd-1" value="服务商&lt;br style=&quot;font-size: 18px&quot;&gt;服务提供者" style="text;html=1;strokeColor=none;fillColor=none;align=left;verticalAlign=middle;whiteSpace=wrap;rounded=0;fontSize=18;fontStyle=1" vertex="1" parent="1">
          <mxGeometry x="267.09" y="110" width="110" height="20" as="geometry" />
        </mxCell>
        <mxCell id="SKYqRsKC4ZwLW245TKKd-15" value="" style="edgeStyle=orthogonalEdgeStyle;rounded=0;orthogonalLoop=1;jettySize=auto;html=1;fontSize=15;" edge="1" parent="1" source="SKYqRsKC4ZwLW245TKKd-2" target="SKYqRsKC4ZwLW245TKKd-13">
          <mxGeometry relative="1" as="geometry" />
        </mxCell>
        <mxCell id="SKYqRsKC4ZwLW245TKKd-2" value="众合云科（51社保）" style="rounded=0;whiteSpace=wrap;html=1;" vertex="1" parent="1">
          <mxGeometry x="377.09" y="95" width="120" height="60" as="geometry" />
        </mxCell>
        <mxCell id="SKYqRsKC4ZwLW245TKKd-3" value="北京海之大" style="rounded=0;whiteSpace=wrap;html=1;" vertex="1" parent="1">
          <mxGeometry x="1040" y="95" width="120" height="60" as="geometry" />
        </mxCell>
        <mxCell id="SKYqRsKC4ZwLW245TKKd-5" value="客户&lt;br style=&quot;font-size: 18px&quot;&gt;服务使用者" style="text;html=1;strokeColor=none;fillColor=none;align=left;verticalAlign=middle;whiteSpace=wrap;rounded=0;fontSize=18;fontStyle=1" vertex="1" parent="1">
          <mxGeometry x="80" y="360" width="130" height="30" as="geometry" />
        </mxCell>
        <mxCell id="SKYqRsKC4ZwLW245TKKd-16" value="" style="edgeStyle=orthogonalEdgeStyle;rounded=0;orthogonalLoop=1;jettySize=auto;html=1;fontSize=15;" edge="1" parent="1" source="SKYqRsKC4ZwLW245TKKd-10" target="SKYqRsKC4ZwLW245TKKd-13">
          <mxGeometry relative="1" as="geometry" />
        </mxCell>
        <mxCell id="SKYqRsKC4ZwLW245TKKd-10" value="" style="shape=image;verticalLabelPosition=bottom;labelBackgroundColor=default;verticalAlign=top;aspect=fixed;imageAspect=0;image=data:image/png,iVBORw0KGgoAAAANSUhEUgAABEMAAALOCAYAAABCot3eAAAgAElEQVR4AeydB3Bd1bm2c1tyk0zIJJNMypAM5HITfgJcSv40flIICSVwIYSWAAmYjimmGDC2sY17xb333i3buNu4y7bcq1wlF0mWbLnL3fL3z7vM2uxzdCTrSDKc8qyZxe57r/2s10Lr1be+/YWiffuNCgM0gAbQABpAA2gADaABNIAG0AAaQANoIF008IV0eVHek3/UaAANoAE0gAbQABpAA2gADaABNIAG0IA0gBlCZAyRQWgADaABNIAG0AAaQANoAA2gATSABtJKA5ghCD6tBI8LjAuMBtAAGkADaAANoAE0gAbQABpAA5ghmCGYIWgADaABNIAG0AAaQANoAA2gATSABtJKA5ghCD6tBI8DjAOMBtAAGkADaAANoAE0gAbQABpAA5ghmCGYIWgADaABNIAG0AAaQANoAA2gATSABtJKA5ghCD6tBI8DjAOMBtAAGkADaAANoAE0gAbQABpAA5ghmCGYIWgADaABNIAG0AAaQANoAA2gATSABtJKA5ghCD6tBI8DjAOMBtAAGkADaAANoAE0gAbQABpAA5ghmCGYIWgADaABNIAG0AAaQANoAA2gATSABtJKA5ghCD6tBI8DjAOMBtAAGkADaAANoAE0gAbQABpAA5ghmCGYIWgADaABNIAG0AAaQANoAA2gATSABtJKA5ghCD6tBI8DjAOMBtAAGkADaAANoAE0gAbQABpAA5ghmCGYIWgADaABNIAG0AAaQANoAA2gATSABtJKA9U3Q4r2WZHqvv22t7CICgM0gAbQABpAA2gADaABNIAG0AAaQANoIKE1UC0zpLCwyA4cPGTHj5+wEydO2PHjx6kwQANoAA2gATSABtAAGkADaAANoAE0gAYSWgNVNkMUBXLgwAE7efJkQr8gBg0GFRpAA2gADaABNIAG0AAaQANoAA2gATQQ1kDVzJCifZZfsBcTBKcPDaABNIAG0AAaQANoAA2gATSABtAAGkg6DVTZDMnLL2BqDIJPOsGHnUDWcYbRABpAA2gADaABNIAG0AAaQAPpqYEqmSGaIrNr124GwpghaAANoAE0gAbQABpAA2gADaABNIAG0EDSaaDKZsjOnbuS7mVx/NLT8aPf6Xc0gAbQABpAA2gADaABNIAG0AAaCGugymZIbm4uZgjuHxpAA2gADaABNIAG0AAaQANoAA2gATSQdBrADEG0SSfasJvHOu4uGkADaAANoAE0gAbQABpAA2gADcSrAcwQzBDMEDSABtAAGkADaAANoAE0gAbQABpAA2mlAcwQBJ9Wgo/XLeR8HGY0gAbQABpAA2gADaABNIAG0EDqaQAzBDMEMwQNoAE0gAbQABpAA2gADaABNIAG0EBaaQAzBMGnleBxdFPP0aVP6VM0gAbQABpAA2gADaABNIAG4tVAQpghW7ZssYyMDBs9enRSVrVd7xAvfM7nHywaQANoAA2gATSABtAAGkADaAANoIHPXgMJYYbITDhw4IAla1Hb9Q4I+LMXMMxhjgbQABpAA2gADaABNIAG0AAaQAPxaiAhzBBFhKicP38+aZd6h3jhcz7/YNEAGkADaAANoAE0gAbQABpAA2gADXz2GkgYM0RGSDJXzJDPXrz8wIA5GkADaAANoAE0gAbQABpAA2gADVRFAwlthpSWllZokCTSccwQ/gFW5R8g16AbNIAG0AAaQANoAA2gATSABtDAZ6+BhDNDog2OZNnGDPnsxcsPDJijATSABj5fDezZs8fatGljRUVFcU0V1fk9evSwo0ePRlw3ffp0U43Vr0eOHIm5P9a52pednW0ff/xxxDW7d++O2I6+ds2aNTZo0CDbsGGDrV69usJzo69l+/PVIvzhjwbQABpAA/FqIKHMEG98JOMSM4R/fPH+4+N8NIMG0EAyaWDfvn2Wn58fUWUuXHXVVdawYcOI/f48XePfsW3bttalSxdngMhs+MIXvuCSp/vjWj733HOuhvf59VtvvdVatGjh7jdp0iT7/e9/H1Fvv/12d0yGhjdb7rzzzuD5xcXF9sMf/tCaNGkS7PP39sshQ4bYz372M5s1a5ZdccUVzlDxx1jy7xUNoAE0gAbQQGppIGHMEBkgNVXffvtt2759u7vf6dOnbdiwYdarVy9r37691atXz1577TXr3r178LwJE8Zbv379Kqw6p6L2YYak1j8MftDRn2gADaCBSA089NBDzsCQiVHZ+uijjwbGQ1ZWlv385z+36667zkVseDPk2muvtZ/+9KeufuMb3zBVv63zfT9s3LjRGS/PP/+8+3/6n//8Z9u0aZOrq1atsn//939358o0mTZtmos8CZshus/atWudIfLUU09ZrEiT4cOH24033uju079/f3cP/3yWkXqABzzQABpAA2gg2TWQUGbIuXPnIgyHqm7v2LHD7rvvPluxYoX7Zefuu+82/RKWl5dnZ8+eDZ7h769fqBYsWGCLFy+2zMzMoPptHdM5/nxvioS3MUP4YZDsPwxoPxpGA2igIg3IDHn11Vdt//79Qd21a5cpOiS8z6+//PLLFjZDdO9jx47Z0KFDbf369UFkyNy5c505oikt9913v6taV9X/f8Nt0vPGjx/vzJCHH37YGSEyNvTMypghute2bdvs9ddft4kTJ9ott9wSUa+++mr76le/EuyTsRJ+Puv8G0EDaAANoAE0kDoaSCgzRCaDNxiilwdO7LMOHToEx4uPF0VsRxsUCpE9fPiwq7fddpsNHDgwok6ePNmZInqOjI6TJ0+aokgOHDhgBw8eDJbar6pzKmofZkjq/KPgBxx9iQbQABooqwGZIW+++WaEOVCnTh0X7RGLl6Iwo80Qnbd06VJ78MEHAzMkfG1F02RycnKCZyvaU2aI/uhx8803x2WG+OetW7fOTdvR1B1fZeB897vfDba135/PsqwmYAITNIAG0AAaSGYNJJQZEm2A+G1vfGgpQyJ625+npf7qpLnICqdVYraCggL7y1/+YvPmzTP99UnLnj172ltvvRUYK94MmTlzpv32t7+1xx9/3FWtT5061U6cOBERGRJ+njdIMEP4QZDMPwhoO/pFA2jgYhpQRIZyafjzFKWhKApNLfH7wkslQh03blxwLCMjw+X40DWPPPJIYIYox8fYsWNdveOOO0zVb+uY7qmpr5dddpnp/9PajtcM0f/7ZcD4qj+WhNvq12fPnu2m0fhtlvy7QANoAA2gATSQuhpIGDNEBkOseuzkSRcBIgPEmR1R29HXyAh59tlnnamhaS76Reqdd96x2rVru78g6fxXXnnFGSb+WpkhMjz0S9aHH34YtKNz5842ZcqUCDPEXxO9xAxJ3X8k/ACkb9EAGkh3DSi/RrNmzSKq/t/5la98xZo2bRqxP/o8RVzqjxM/+clP7I033jCZKOEEqoq+uP7662PWcGSGDJCvf/3rtnz58rjNEEWQ1K1b1xT54XOVxOrTJUuWuJwlsY6xj58DaAANoAE0gAZSSwMJZYYon4dMhvBSU2PWbt4Z7I/ejj7fb+uXM5khM2bMsHbt2rm/KumvTb1797YnnngiuJ/O92aIzpUZ4p/fqVMnZ4ZI9DrH74+1xAxJrX8Y/KCjP9EAGkADn2pA00fDX2+54YYbnKmgnBvh/fqyzJe//OWIff6zu+HP6G7dutWUOPXQoUNWq1Yt9//qyvBu3ry56f+38UaG+Hvv3Lkzwgz51re+5QwWmSyqSpb+xS9+MWbUiL8Hy091AQtYoAE0gAbQQDJrIGHMEBkMvnpDQ9syP9Zt2RUci94OGxPh670Z0q1bNxfCq2P6Jeiaa65xc4H9uVrK6FAnygzR5wH1S9qWLVuscePG9tFHHwWRIf6acPu0T9uYIfwgSOYfBLQd/aIBNBCPBjSd9He/+10Z0+CXv/xlzE/jalqKT4oavXz66add3o/o/X471pQWb4YoSkRfnKlsAtVoM0QJWhVNqtxiWs/NzXVmie4XDw/O5d8PGkADaAANoIHk00BCmiHedNDyzJnTzhBRdEis7fC54XVvhsjoUKb7wsJClztEkR+KEFECN3++N0M0pUYhtOGq0FoJ20eG+Guil5ghySd+fmDRZ2gADaCB+DWwaNEi9+WWZcuWRRgGQ4YMsX/5l39x01Ojuer/w0pMGl31GV1NW9F1itKIPq5tXevvp/93K2rTmyHKS6L/p1fVDNF99YcPJYf1z/jSl74U8x38cZbxawZmMEMDaAANoIFE1EDCmyEyHY6eOBFhiBw/dSZiO9qY0Hb9+vVtxIgRLpO9PrV7++23m5K36djmzZtdTpG9e/e6bW+GxLqP9qnjMEP4B5yI/4BpE7pEA2jgs9aA8nDJMJCBMGnSJJe4XNNdrrzySpcYtbLtmTNnjpsqM2DAAJfP48UXXwwMCUVq1qtXL9j293zhhRdcDjBvhuhaTX2tSTNEuU2UPN0/kyX/xtAAGkADaAANpKYGEsoMOXPmzCfRH2WXMkTat28fHI/elmnhrx82bJjdd999Lmu8oj30RRklRfPHtVy/fr37lK6uk9GhDPn62kysqsSqOid8ffh52k9kSGr+A+EHH/2KBtAAGiirgezsbJec/Hvf+55dfvnlLjpDkR3hKI7yuOmTtjI+dK2+8qLzlE9E+UeGDh1qMji+9rWvueiP8D1kuHzzm99001mysrLc/3eff/55l7xV1/ft29fd69Zbb7Vp06ZZjx497M4774wwNfw0mfz8fJdDTPePjgyRyaPfN3SsTZs2Lvl6uB2sl9UDTGCCBtAAGkADyaiBhDFDZCjURFWiNhkX+sVIv+zoKzL6xUaf8fOf1HvggQecWaIvxeiZOl+/+HTs2DFm1TFvhpTXRswQfgAk4w8A2oxu0QAaqI4GcnJy7MYbb7R//dd/tf/8z/90X2uT4RB9TxkZyuH1q1/9yhkdMkJatWoVcd62bducsaJEpooMib6Hoj2VoNXv37dvnztfn+997733gv3K/ZGXl1ehGaJoUUWU6F4yQ5QzpHv37qYErTJA7r33XndMxkr488D+2Sz5d4MG0AAaQANoIPk1kJBmyOnTpys0Ri52XMnWyjMttD/6+ottR18Tfb6OY4Yk/z8GfqDRh2gADaCBymlAxsXbb7/tjA1FX6xdu9ZNmbnpppvc53Zff/31iCiRkpISU9JV5fvQHy1kRLRu3dr0/2tFX2pqqz7fKxPkiiuusLvvvtvmz58fGBzql3vuuScwPXSd/tAhU0PRn0qO3qBBg4jzu3btWiYyZOHChS5Hif5AIoNGSWAVhfL973/f5RVTVIqm1l522WU2e/Zsl8dEpgu6qJwu4AQnNIAG0AAaSCYNJIwZ4g2G6KU3NaL3++1EOY4Zwj/8ZPqHT1vRKxpAA/Fq4NVXX3U5Pr761a84w+MXv/iFjR8/voxRoAgOmRMyGQYOHFjmuPJ7fPvb33amh865+uqr3bQZ/wlefcZXSdB1TBEb2q/pN//xH//hTBdFfVx33XWuLXv27HH3Vy4wRZsoukOfx1VbZapoGk34PTUVVlN0ZM5ov3KD6NrwOVrXF2YU7fLKK6+UORZ9Ltv8W0IDaAANoAE0kJwaSBgzJBx94Y2OZFpihiTnPwB+cNFvaAANoIHKaWDx4sU2cuRIU86PY8eOVWgS6Hj//v3dJ+1j8W3SpIkzUirKMbJr1y7r0qWLe47MCxkZ/l5KoKrIDr+tpb40ozxhyifywQcfmL4eV9H9w9dGrytKRXlHop8RfR7bldMOnOCEBtAAGkADiaiBhDFDZHwkc8UM4R94Iv4Dp03oEg2gATSABtAAGkADaAANoAE0UFYDCWWGnDp1yhkiybjEDCkrLv7BwQQNoAE0gAbQABpAA2gADaABNIAGElEDCWOGJKMBokgW327MEP6BJ+I/cNqELtEAGkADaAANoAE0gAbQABpAA2U1kBBmSEZGhkuQJmPBV280JMN2YWGh6R0QWFmBwQQmaAANoAE0gAbQABpAA2gADaABNJBoGkgIM2TLli3OTFB0RTJWGSF6h0TrXNrDDxw0gAbQABpAA2gADaABNIAG0AAaQANlNZAQZggdU7ZjYAITNIAG0AAaQANoAA2gATSABtAAGkADl0YDmCHHLw1YBAtXNIAG0AAaQANoAA2gATSABtAAGkADiakBzBDMEKb3oAE0gAbQABpAA2gADaABNIAG0AAaSCsNYIYg+LQSPK5sYrqy9Av9ggbQABpAA2gADaABNIAG0MBnqQHMEMwQzBA0gAbQABpAA2gADaABNIAG0AAaQANppQHMEASfVoL/LJ1GnoWzjQbQABpAA2gADaABNIAG0AAaSEwNYIZghmCGoAE0gAbQABpAA2gADaABNIAG0AAaSCsNYIYg+LQSPK5sYrqy9Av9ggbQABpAA2gADaABNIAG0MBnqQHMEMwQzBA0gAbQABpAA2gADaABNIAG0AAaQANppQHMEASfVoL/LJ1GnoWzjQbQABpAA2gADaABNIAG0AAaSEwNYIZghmCGoAE0gAbQABpAA2gADaABNIAG0AAaSCsNYIYg+LQSPK5sYrqy9Av9ggbQABpAA2gADaABNIAG0MBnqYFqmSE7dhUYFQZoAA2gATSABtAAGkADaAANoAE0gAbQQDJpoFpmiFEgAAEIQAACEIAABCAAAQhAAAIQgECSEcAMSbIOo7kQgAAEIAABCEAAAhCAAAQgAAEIVI8AZkj1+HE1BCAAAQhAAAIQgAAEIAABCEAAAklGADMkyTqM5kIAAhCAAAQgAAEIQAACEIAABCBQPQKYIdXjx9UQgAAEIAABCEAAAhCAAAQgAAEIJBkBzJAk6zCaCwEIQAACEIAABCAAAQhAAAIQgED1CGCGVI8fV0MAAhCAAAQgAAEIQAACEIAABCCQZAQwQ5Ksw2guBCAAAQhAAAIQgAAEIAABCEAAAtUjgBlSPX5cDQEIQAACEIAABCAAAQhAAAIQgECSEcAMSbIOo7kQgAAEIAABCEAAAhCAAAQgAAEIVI8AZkj1+HE1BCAAAQhAAAIQgAAEIAABCEAAAklGADMkyTqM5kIAAhCAAAQgAAEIQAACEIAABCBQPQKYIdXjx9UQgAAEIAABCEAAAhCAAAQgAAEIJBkBzJAk6zCaCwEIQAACEIAABCAAAQhAAAIQgED1CGCGVI8fV0MAAhCAAAQgAAEIQAACEIAABCCQZAQwQ5Ksw2guBCAAAQhAAAIQgAAEIAABCEAAAtUjgBlSPX5cDQEIQAACEIAABCAAAQhAAAIQgECSEcAMSbIOo7kQgAAEIAABCEAAAhCAAAQgAAEIVI8AZkj1+HE1BCAAAQhAAAIQgAAEIAABCEAAAklGADMkyTqM5kIAAhCAAAQgAAEIQAACEIAABCBQPQKYIdXjx9UQgAAEIAABCEAAAhCAAAQgAAEIJBkBzJAk6zCaCwEIQAACEIAABCAAAQhAAAIQgED1CGCGVI8fV0MAAhCAAAQgAAEIQAACEIAABCCQZAQwQ5Ksw2guBCAAAQhAAAIQgAAEIAABCEAAAtUjgBlSPX5pc/X8+fPt1KlTcb/vuXPn7OOPP7bz589XeO2RI0ds3759EecsWrTI9u/fH7HvUmwcOnTIxo8fb1rWZCkpKbHDhw9ftOq88oq4fPTRR6ZlZUpBQYFt3brVnbp582bbu3dvZS6z7du3m3hXVHwfnj171qZMmRJx6po1a2zbtm0R+7Rx8ODBMvti7ZBGfDl+/LgVFhb6zYjlrl27bMWKFa6tagcFAhCAAAQgAAEIQAACEIBAVQhghlSFWppdU1RUZG3btrU9e/ZY586dY9bly5fHpCITZfLkycGxM2fOBOvhlZycHGvTpo3t3r3b7dZ5H3zwgZ08eTJ8Wsz1AwcOxDxPRkBubm6FRoyMiA8//NCmTp1qHTt2tBMnTpR5hgwdtSVWbdy4cZn9Ol9lwIAB1r59e+vatWu5Vcd1Xqwic6hDhw42Z84ct4w2i2Jdo37wvCdMGG+rV6+OdZpt3LjRZGD4KiOkUaNGwbbfr/N86dOnj2VlZTlTrHnz5qY+Ki4udlVm0uzZs4NtMZB5Jrbr1693/dCsWbNAO+Imo0j3U2nZsqV/jNNZ69atAy0EB8zcvSZOnOgMkbFjx4YPsQ4BCEAAAhCAAAQgAAEIQKDSBDBDKo0qfU/U4HPhwoWmAe7MmTNt7ty5dvTo0aCOGjXKDaKjCWnwrsHw6dOng0Ma+G/ZsiXYDq/IvND5MkBWrVpl9evXt1atWlmLFi3cYFnrqv5+WmpA/O6779rSpUuDW6mdPXr0cAZOly5d3DVqb3TR9d26dbOVK1e6QzISevbs6Qb50efG2tZ7z5o1K9Yht0/vqkiGioqOxzJDZOLIHNq5c6e7XMvwdvie4YidiswQz03XypjIyMhwxonMk1hVZorY+yLjaPTo0aaIE5khMq4GDRrkqswymUl+2/M+duyYe7/s7Gz3PEWK6Fj//v2dGaJrVMJmiLYV4dKpUycXLaTn+Tpjxgx3P23LJAq/u28nSwhAAAIQgAAEIAABCEAAAhcjgBlyMUJpflx/+W/YsKEbwAqFIjg0IA4XDYSjp3pokCqjwUd6+PM17UUD4PIiREpLS90gWffUs1X0vA0bNvhbuKWe165dO5NR07179wgzRANmRTH4aR2aZjJw4MCI62UuKOpiwYIFEfs1XUP33bFjR8T+6A2ZNfXq1QuMmejj2vZmiNrfq1evMlVmSrQZovcaN26cM3Ly8/PdbcVB+7WtiAmZGJpK4osiT7z5UJ4ZoigMcfJFZkjYSJDxIQMmXBQlEzZDdEz9tmTJEmeGhM9VZI32Rxf/DOlG7ZappkiRi5khuo+0oH4KGzWDBw92/eb3VXb6UHS72IYABCAAAQhAAAIQgAAE0psAZkh693+Fb6/BqAbQGvT76SMaDMtE8EUDdUVfhIsG3hqgK2pD0zQWL17sIko0GB4+fLiLSpBh4YuiBmReqGpArus0TcOXWGaI8nsoOkBF14UjQ2SkKAeGLzISvHGh6IhJkya5Qf6mTZv8KRHvpJwbMh3UDv/ewYlmzqTRNA9FrqioHWIVXbwZIkNA0S7RVfvDZoieK5NC+TjCZpHMEc9D7ZcRoPNkMKiIpc/3UZ4ZoukoiurxRdNffJtlWOl9/fQef462vQklDjKVxFbGhyJDVGSAaCpU7969bciQIW7dT81RdIemVcm4qawZsm7dukALmpYVXXSfESNGRO9mGwIQgAAEIAABCEAAAhCAQFwEMEPiwpVeJ2sALUNAU1PCpkC/fv2C6RvTp0930xXCZJT8UgaGTAcNwBV9oUG6TA8NvGWgaFCtXCQqPmHmyJEjXdRAeDqHjscyQ8LPC5shGsC/9957LrokfI7yfSiyQiaJIjLC76PzFP0SLjIqZN5ER0uo7Yps0dQaf43MChkB0WZC2AzRdJroGm2GyOBRGxXREs7VETZDfBtlFGgKioqiJ3zUR3lmyNChQ4M+03QkTUHxVcZK06ZNg22/3y/z8vKcOZOZmekiYdQ/MkOUwFTGyLJlyyJquO2KoBGHypohMq6kH023kTmkZ4XvLwNL96NAAAIQgAAEIAABCEAAAhCoDgHMkOrQS/FrlfNDA95oM0SGhqZ9aOCqXA8VJTnVX/G9uSFzwU8/Ud6Q6C+dyDzRFApNpdAA3dcGDRqYIjH8tnJFhEvYDNG0CeUQCUdW6FxNfZEZU17xxkZ5x7VfbVM7fNLP8DU+l0X4CyfeDNEUFjH0SUm1VCSGImjCkSH+2TJVfOSF9skMkekkZqo+IsSfrwgPsVE/xDJDZLrIfPKRILq/nq2qqB0ZKX5bS5lSMjn8Pr2TrlF/q8qEURtkDOk9tPTH/DJsDKld3gyRMVaZaTIyrGSGqO2auqTkrjKTpB/lg6FAAAIQgAAEIAABCEAAAhCoDgHMkOrQS5Nro80QvbYiDTQoDX8SNRqHBt+KOPBFg+zykqfqHG+G+PP9Mp7IEEVVyDzRAD1c3n///SASJbzfr4eNDb/PLzWwV9v0LuGpNdHXKApGxow3f8JmiKIswkVTi2Q2VNYMUWJXcVDVNJnoIraa0hLLDNEUIpkb0UWGkcwMRX74oqgMsZKpES6KRIn+Ko546FzlFYk+Fp7iMm/ePGdsyAxTVXTOxXKGeDPEt0Gmm0wZ32a/nyUEIAABCEAAAhCAAAQgAIGqEMAMqQq1NLsmlhmiKROKwAgPeqOxaMqHn76hY9FmiCIMfJJTHfdmiDcT/P3iMUN0jf+cq79exoimzoSjFfwxv4w2Nvx+LXW9Enf6JKX+WKxrFL3gzwubIWqT9vuqqTbxmCE+Z4h/dvRSeTqUaySWGaK2x/osrz5JPGzYMMdLn8XVtnJ/VGRw6bkyJPQsJV1VH+oaLfVuMoP0xRhftK68IT4yRAaapkfpuYriKe9rMt4M8RE+3gzRffVVHRltihqpqE99G1hCAAIQgAAEIAABCEAAAhCIJoAZEk2E7TIEos0Q/aVfg1NNsdCx6Lwa/gYyMcJfGIk2Q3RcUyF8kRmie2uA7Kd06Fi8ZohyTOgemp6haAJFsSgioaISy9io6Hwdu9g13gxRThQZBtFV0ReVjQy5mBkiXjKWYpkhF3sPtU9JUJUQVjWcfDZ8raZHqY80hUfJVH1RolS9mxLrhvOF6LjMIU17UpFxoek6ikTxJphP6io9hYvMEEWz+H7TcZktulbmjrjJAPKJY8PXsg4BCEAAAhCAAAQgAAEIQOBiBDBDLkaI40HOEBkLMiY0JcJ/0lSRIRqorl27NiClgbkGuZra4f+yr4Ma4CrxqIrOUbREOIpAX5rRlAsNdMMlXjNE1yrxq5KmKpeGEr5GR5uE76/1ixkb0edX5hpvhsS61u9TxITO80U89PlhtVvrqsq7IuPJb2vp+Yuvoj58VVSHeGlb18nk8Me0DPeHnqnoCt1b02WUl0Rmhqb0yNxQ23zR89RO9bPuqShcqwMAACAASURBVMggXatpQ7qv9qs/lU/FR2vI8FAUh0wMrcvYkC6U80V5UMIl2gzRs9QOsZAulDNEUSV6rpKy6pPK0pNPwhu+F+sQgAAEIAABCEAAAhCAAAQuRgAz5GKEOB6YIRp8KsoiekCtAasGvUpuqS+iKEJAA3INlsNF0Q3KM6GoDUWUjBkzJnzYDco1cI4uFzNDos/323q+pm9UpnzWZoiiLDRVRIldw1EWGvBratHFqqJsVDQVSclsK1t1vswKGUQyIGQ4yDgK51iRcSFzQ22LNi30TOX7UP/J7NJ0GZkhKop0kUnhk6rKKPNGj3Qjc8ZH/OiZihhR5NDAgQNdO9xNPvnP3LlzA/3IHJMR54vWlXNFX/ChQAACEIAABCAAAQhAAAIQqAoBzJCqUEuzazZv3uwG0NE5PsIYNBD2Ux8q+mu9BsMyU/ygOHyP8tY1gI9lkpR3flX2h6frVPb66Ckh0dfJDCjvSzuKVFHkhUwRzy36+ku5rb68WB/oeCzuMr+iDbFwWxW54os3MXwki9+ve+vzxtqv/q3ofv6a8FLMPg9u4TawDgEIQAACEIAABCAAAQgkLwHMkOTtO1oOAQhAAAIQgAAEIAABCEAAAhCAQBUIYIZUARqXQAACEIAABCAAAQhAAAIQgAAEIJC8BDBDkrfvaDkEIAABCEAAAhCAAAQgAAEIQAACVSCAGVIFaFwCAQhAAAIQgAAEIAABCEAAAhCAQPISwAxJ3r6j5RCAAAQgAAEIQAACEIAABCAAAQhUgQBmSBWgcQkEIAABCEAAAhCAAAQgAAEIQAACyUsAMyR5+46WQwACEIAABCAAAQhAAAIQgAAEIFAFApghVYDGJRCAAAQgAAEIQAACEIAABCAAAQgkLwHMkOTtO1oOAQhAAAIQgAAEIAABCEAAAhCAQBUIYIZUARqXQAACEIAABCAAAQhAAAIQgAAEIJC8BDBDkrfvaDkEIAABCEAAAhCAAAQgAAEIQAACVSCAGVIFaFwCAQhAAAIQgAAEIAABCEAAAhCAQPISwAxJ3r6j5RCAAAQgAAEIQAACEIAABCAAAQhUgQBmSBWgpcsleQWFRoUBGkADaAANoAE0gAbQABpAA2igMF2GgWnznpghadPVvCgEIAABCEAAAhCAAAQgAAEIQAACIoAZgg4gAAEIQAACEIAABCAAAQhAAAIQSCsCmCFp1d28LAQgAAEIQAACEIAABCAAAQhAAAKYIWgAAhCAAAQgAAEIQAACEIAABCAAgbQigBmSVt3Ny0IAAhCAAAQgAAEIQAACEIAABCCAGYIGIAABCEAAAhCAAAQgAAEIQAACEEgrApghadXdvCwEIAABCEAAAhCAAAQgAAEIQAACmCFoAAIQgAAEIAABCEAAAhCAAAQgAIG0IoAZklbdzctCAAIQgAAEIAABCEAAAhCAAAQggBmCBiAAAQhAAAIQgAAEIAABCEAAAhBIKwKYIWnV3bwsBCAAAQhAAAIQgAAEIAABCEAAApghaAACEIAABCAAAQhAAAIQgAAEIACBtCKAGZJW3c3LQgACEIAABCAAAQhAAAIQgAAEIIAZggYgAAEIQAACEIAABCAAAQhAAAIQSCsCmCFp1d28LAQgAAEIQAACEIAABCAAAQhAAAKYIWigXAJ5BYVGTX4G5XYwByAAAQhAAAIQgAAEIAABCKQpAcyQNO34yry2jBBKchOgD5O7/2g9BCAAAQhAAAIQgAAEIHBpCGCGXBquKXFXBtLJ3430YfL3IW8AAQhAAAIQgAAEIAABCNQ8AcyQmmeaMndkIJ38XUkfJn8f8gYQgAAEIAABCEAAAhCAQM0TwAypeaYpc0cG0snflfRh8vchbwABCEAAAhCAAAQgAAEI1DwBzJCaZ5oyd2QgnfxdSR8mfx/yBhCAAAQgAAEIQAACEIBAzRPADKl5pilzRwbSyd+V9GHy9yFvAAEIQAACEIAABCAAAQjUPAHMkJpnmjJ3ZCCd/F1JHyZ/H/IGEIAABCAAAQhAAAIQgEDNE8AMqXmmKXNHBtLJ35X0YfL3IW8AAQhAAAIQgAAEIAABCNQ8AcyQmmeaMndkIJ38XVmdPuzdu7dt2rTJQZg4caLNmzevUkCmTJli48ePr/DcNWvWRBzv0qWLZWZmRuyraOPcuXP26quv2r59+yo6Leaxl156KeZ+v/Pw4cNWVFR00arzwmXLli02cuTI8C5r1KiRRZ8XPuHDDz+0PXv2hHe59SZNmtiJEyfK7I+145lnnnG7FyxYYCtWrIh1SsS+evXq2e7duyP2RW8UFhZaQUFBUNWWWExOnjwZfWnE9uuvvx6xXd6G9KLnxSp6xoEDB2IdsoyMDDt79qw7duTIEZNOY5Xjx49bcXHxRau/V6x7sA8CEIAABCCQSgROnTlrefsPlakFxUcqfM3s3EI7ffacO0f3KDlxyq3vyC+2gVOWBtfu2hv7/906YcHqbdY7Y3FwbqyV8+fPu916RuN+0yJOGT9/jc1fvS1inzZ2Fx0ssy/Wjk6jPv2d9uDREtM7xSrLs3fZyFkrXVvVDkrqEcAMSb0+rbE3qs5AusYawY2qRaA6fXj//ffb9OnT3fM1gJZhEV00AF26dGlEHThwoF133XUR+/w5Ov/06dP229/+1p599lm3rkHwl7/8ZXvooYfs+eefL1OPHj0a/Vi3/dZbb5lqvOVrX/tahZfova+66iq74YYbyq06rvPC5emnn7bOnTsHu2RO6L3atWsXVG8u+ZP+9Kc/WbQxpGM//vGPKzRR/PVafv3rX3ebGzZscNeFjQ4N7tetWxdUGVo6f/Xq1cG+8PGSkhJ3r+9+97v2s5/9zNUvfvGLNmjQIPvWt74V7NMxnTNkyJCgKa+88or96le/iqj/9m//FrGt4++8805wjVaOHTvm7qW2iZUMJJkojz/+uF177bV2xRVXWOPGjSOu0YbeQTrzvyzpPpdffrkzPKJP7tChg11zzTUVVuli/vz50ZeyDQEIQAACEEhJAmu25dkfane26/7W3P73rZ6uXnX/+/bge/2cqSFjw9eh07MCBi0GzbC/vNPbDh09bjIlarcd5Y4tXpdjjzca5NZXZu+2++r2Cv4fPS1zo02YvzaoMkKuebipuz68f/qSjcFzHnqvn+m5Mltu/kdrO37qjOUWFLtat+sEaz9iTrB95uw5d95ttTvZ5EXrbemGXLvhsZb2p1e7uvrTR5pZ/v7DNnTGcnf///tkm+A5q7busV893c5WbSn7xyndq16PSTZi5gp7vdO44BpWUocAZkjq9GWNv8nFBtIybEtLz1tpaamdPVdqpZ84uL4h+sGkqnN80SnnzpUG+z89cuEM3cPdq7TUXxIstf/U6cq7shfuc961S8/0Res6pracPhPZPp2jwdWF94psXdDuqPf09y1vKT7h5/vz4ryNvyyu5cX6sKKbVcYM2bhxo/3973+vdNX5KmfOnLE6derY8uXL7b777jOZLTNmzIhZZZ6o5Obm2rBhw4LavXt30wBWA/Xw/kOHDrnzY/1HURrf//73Yx0K9um9Fy5cGGxHR6ysXLnSHQ+bIYqkkDmgAbmKDJybb77ZvWP//v2tV69e9r3vfc9kWKgo0kED75///OfWr18/2759u9111132hz/8wdWvfOUrzjDy29u2lf3rh7tRyAzR9uTJk+3NN9/0h5wxcMcdd5iv3/jGN5zB47ejl96Y0buoqF2///3vXcRFrVq1gvtqRc8JmyGK1lm/fn1EVf9E7/Pmhb+ZomMUraMImdatWzvTTUaZdFFetIiuffTRR23o0KH+Nm753nvvOTMlYmclN+67737MkEqy4jQIQAACEEgNAlmbdlqt5sOCl5GBcOL0GXvg3T72dPPh1m74bGszdJZd//cWwTlaGTBliT3acIDb90TjwTZnxVbzZoh+97+rTjfbursouObGx1vZu90n2vt9ppRb3+6W4UwPf9GBIyX2WoexNmv5FrdfZsU/mgxx9ZZn2zsjx28XHrjwh7P9h0vssUaDbFbWZnun+0RTdErRwWP2t/cHOjPk9toX/mgVNkP0vPU7CuyPL3exbXv2uefpmaotB810Bo/WPxw5N4iC8W1kmfwEMEOSvw8v2RtcbCB98tQZ90OmYP8hW7FxpxUWHzWFkB05dtwK9h2y7Jy99vGyzZazZ5/lFx6yg0dKbE/hQcvZs98+XpZtm3P3Wm5+se0/eMyOHT9lR46dtMLiI7Z0XY7lFR20khOnnSnhLYndew9Y5pptgelytOSkO29nfrG7j+6lmld0yI6fPGPrtuxxx7fuLLRNOwps++59pms2bM+3nLxi156Vm3a5a/R8b96onWq77rV3/2FnnKiNau/MzI2fPOOgFR+68D7ZOQW2dWeRbdqe787RvfX+eh+9x9ote2zByq2mdmpb3OSmq1154pFX7KqeIZNGBk3RgaOOmZYygDSAFJvtu4ts284LVW0UT7W9vHKxPgxfJ9NGg3Rf77777jKRIRrwynz4xS9+ERG5kJeX5wb6GuzHqtFTQXz0woABA9y9ZAT8+c9/LlPHjBkTNHHt2rVuoKvIgVhVA2pFL2g6hIqiUBTZEq5q+w9/+MOIff64zleRyTFt2jRTlMSpU6dclIiWKjIlbr311jJmSP369a1ly5YmU0QGgwyEv/3tb+5cTTF56qmnrEePHu4e+o+iMZ577jkXyfDXv/7VRo0aZbt27bKdO3e6euWVV7pz/LYMIWkgVuSMIjdi7VdfhcuSJUvcu3vDJnwset2bIYrikOGg6Sfa95vf/CaoisIImyGaziKDJFy/9KUvRWzrWLhde/fute985zuWnZ0d0QRNN3rhhRci9oU31A+Kzome1iL+MrvC02rUd4paKa/WrVvX3RozJEyYdQhAAAIQSAcCMkMUFeIH///zWEv32qNmr7KOo+a69dXb8uyv9fq6df0uom0VTZXR9trt+W6aScaCtS6qRNEbigQ5XPLpVFqZIX46ja6t2zXDRW+4G33yn0PHjkeYIdqtaBAZL4oMCZcP+k+PmJLjj/lnZK7PdWZIj/GLXKTIxcwQXa/fwcUjbNg81XSo/e7FjsG+vZ+YLv55LJOfAGZI8vfhJXuDigbSp05fMEJGTsuyhau22nudxtv8FVvdQH3Nlj02asZy6zd+oXUaNtsGTcq0UdOzTMaDzJHxs1dZ6/7Trd/4RdZ/wiKbm7XZ8vcdsrlZW2zawnXWZsB0031nLcm2oyWnnKMrU2L64g3WbuAMZyjIiMjeUWDdR81z9x6QsdiGfrTUuo2ca8OnLnPmzLApS21W5kZrN2iG9Rw93zoMmunMg4EZi905Otay71QbMGGRLVy1zZkNMhj0Hto/bMoyGzltmTMmpi1abx8OmWVNekyyYVOXuetnL8m2qQvXWY9R86zX6Pn2bsdx1nvsAus7boF7Jxkwo2cst5Z9p9nLLYY7DhPmrHLPWbV5t2v7pHlrXJvVpiVrtjtjQ20Y+lGmrd+WZ6NnLjeZLcdPnnYG0pCPMm3w5Au195j51nfcQmfYlCeCivow+hoZGj/96U+Dqr/qh6fJaLD4P9df7/6Kr4F7uDzxxBMu4kDTPqLrjTfe6CJH/PmK8JAhMXbsWDdNRhES99xzj2lgrOkRMgD2799vH3zwgSlqoDJFg+Lf/e53ETkj9ByZEOF6yy232Be+8AXTu4T3a13nq8gM0fSbv/zlLyYDQaaG2qUB+uDBg03RB4oc8ZEhMnY0oH/33XfdlBBFqWhakEqnTp3coP3hhx9229H/iXeazOzZs81XPUdTP9RPWmrbH9NSv6D4ImNH5oEiQ2JNF2nYsKE/1S1lfMiAufrqq00mh8wQTVtRxIuvMhe8GaKIG0VzRFcZNdH7tK3zZYrINFJ/qL/DpSIzROaSom70vip6t/z8/OBy6ebXv/51kHNFz1F/lVd95A9mSICQFQhAAAIQSBMCGvwryqJR36mu+giQDTkF9kLrC3nQZIr4nB36Y56mosigUNEf7DS15p43e0RUTTtRVIUvmv4is0FFER467vOO+HO0PWXxhQhaGSPv95nq2ibjw5shem63cQucOfNUs2FufezcC3noFN2haTFqY2XNkEkL19nD9fu76k0e3x4tM9fnBBzC+1lPHQKYIanTlzX+JhUNpBWl0WfsAmeCzFmSbS80HWKNuk80GRAyKmSC9Boz35kdMkX6jFtguwqKnSEiM+HZJoOtTuuR9lqrETZ1wTo3oJcxILNApoYMBN1P9+o4dJY17z3FXm053B6t29Oa9ZpsXUfMsY/mr3X7x89eae91GmdjZq6wt9uPsVb9pln3UXOt5+h51qDLBPug5yT7cMhM1wZFpchAkGGyaNU2t19tllGzePU2d63a9GjdXvb8B0OsRZ8pzqRR5EvTXpPd83R95+Gzbc3m3S7iY+LcNTZ4Uqa90mKYNew6wZ0zed6aT+433V5sOtQee6ePNe4+0XqPWeCiSNTWoVOWmjiOm73SvYsia/L3HXTvpvbomJ7RadgsF0Ui40hGkYwkvWPbgTOcoaTzyisV9WF51/j9GuyHzRCZAzIsYhWZIZMmTYp1yJRQVVNpwmXHjh0mY0JRHHqGTwKq6STKJ6KBfLNmzaxnz57hy8pd18BcCVUvVvROyncRnbcifJ3O0cBZ9/vJT37i8oAcPHjQmQi33367a2/YDFEUQqtWraxjx45ukO5NCE1ZUd4RRb3IgNBxJfIMF5khSnqqaJqXX37ZXa+BviIqdK3WFU0RqygaZPTo0S4HiCJoPMPoc2UeKFpF+TVi3Uv9o3uFi8wQRV+o3TITZIZoSk/btm2Dqn7yZoimPfm8MDKQyqv+HJ2vvlWemP/6r/9yuvJRMFoqP81jjz0WRMponyJaxFbGkvrblzZt2jiDzm9rKXNLBpuPHFHUk6b8RFdFkviCGeJJsIQABCAAgXQhEGuajN5dxsT/e66Di8a+/53eNnHhugCJEo5qGoymxcgM8UZFcIKZDZ62LDBDNuXutT++0iWomooj0yW8L7yuXCaaqtNvcqb7Y2DJydPuGXqWjJEh07IiajjPyJiPV7tpMpU1QzQVR8lTNd1m7qpt7nnh+89clh3kQQm/H+upQwAzJHX6ssbfpKKBtMLWtuwsdFEVmvLyUvOhNmXBWjcNRdM2ZCgo2mHC7FUuuqJ+5/EuImLd1jxnosgIkXEg80KRFQcPl7jpI/mFB11UiKJJdhYUu2kycng1nWTY1KX2XJPBbvqI9q3K3u0iOGR0KJKiVb+pzixQ9IiiSjoOm2Wdhs5yZogMlWa9p7gpMjIT6nUa70yWUdOXu8gMGSr6Ibvv0DFr0WeqPVGvrzMdFLGiqAxFhMgcadg1wxk1ej9Fk6iGzZC32o2x97tluAgXTfdRpIrup9p52GwXOSLTRaaGTBVFoLzcfJi91W6UdR85190va0OuTVu43hSNoilIYibWYimTSPeq12mcLVuX41h9VmZIrASqXnQyQ2rXrm36Ak101cA12gzx1+mv+L/85S9d1IKmi6hq4K6lBuIyAxRBUlHp06ePKfrET2Up71xFfmiQL2NDEQ/6Okqs4s0QDaR/8IMfBF+IUYJPRTHI/AibIf4eynGxePFiF+WgRKEyTpTkU0WRD4o2UTLQmTMv/KVEX8LR+2mfks7qvorMUV4V/yUXTf2RKRRddI5MHZkDSoiqpcwKn/PDn6+oCUVfqG80FUcGi+4ZrpqeFMsM0T2U10W5WWSG6J26detmP/rRj5whonV9QSdcFB2j3Cixok/EXv3ti65V1IkiVjQFSix81TQhTXny21qOGzfOsdH0LW9yKHpF50ZPw9Lxe++911atWuUeJ9Ptq1/9SpA7RRoTr0ceecQ3x0ULkUA1wMEKBCAAAQikAQGZIcqj0WvCYld9ZIheXfk6lED02kebmwyJcNHvzCpa/vcDjUx5Q8JViVl9ZIiMFSUvVe07KdNFkOgrNn7fS21GWZN+04NtTbnX1HUZFar63VzmhqbfKKJES3/ML3W+L5qe482QbuMWVmqazMvtRjszRNNsFAmj5K5th812ho8SwVJSlwBmSOr2bbXfrCIzRPk8lHujy/DZbvrG621G2vTF6235hlwX5dFp6GzrO3aBG/T3GDXX+oxb6MyQKfPXuukimrqiyAZVTftQXhEN/hVNoqknyoWhH0hKPKo8Hxr4dxk+x3qMnudMFyVDUtSEIka0X9EfMhi01L1lUGiqjowSGQ4XjIdp7jl6nqa4zFu+xRkLivhQJIbycyhaQ1NRZGj0m7DQxs5a4doiI0LGjYyIDkNm2httRrmoEE3xkXHTd/xCa9Q9w0WzaOqODA8ZGGqfTBCZKTMyN7j2+HcdMXWZy2uiqJLhU5a6aT9KACWG3UZcMEbGzlzhzhHvIZMz3fWaQvR2h7G2fH1uwpghMiwaNGgQVCUA1XQSv08RDNFFiUg//vhjNxBXAtW5c+e6PBFZWVmmqoGq/upfXhJNRVkor4Smx4SnSUQ/x2/LjPDGggyU8j776s0QtU9RC/qiiaaGaOqGvg6j6IhoM0QGkNqrZKmKdli2bJmL1IieiqMBvXKT6DyZIDIIZKD4oq+eNG/e3G0qWkRGh8+B4s9RVMVtt93mIm60z39NZtasWc5YCkefyIyRGSWzRH2gqAqZOuGqqJbyzJCcnBxnusgM8QlU1SeaoiIzQ+0Im1AyQzSVSEURJcoJ44siQcJmiN8vMySeaTL+Oi1l0MnYUZEBInZ6VxW/1LoYyqAJF33tBzMkTIR1CEAAAhBINwIyQ5Q4tP9Hma76nCHisGzjTvvZP9vYW10mlMGyeWehNeg12ZkhivSI/kRv59HzAjPEX6w/pP6yVjtT5Icvisq4+qEmVnz4wtfs/H5NWbm7TveIKqPmJw81cW2KPhae4tJlzHybt2qbyxmipK36jO/FcoZ4M8Q/XwlWZfQoQkVtpqQuAcyQ1O3bar9ZRWaIjANNfdF0jfkrtrgoDxkH2qeIDeXNkDmiqA8lD9W2cnzIpJARoWkuuvbdDmOdUaEoCuX1UNSGpt1oWsr6bfkuKauOySTRPiUgVcSJ8odov/KAaL+MFN23/aCZLvpCxoOiPhQR0qTHRMv4eI2LBlGiU01hWbpuu81YvN5NfZGJkrU+15as3W6zlmx0Jo8iOrSthK0rN+10xovap0iQRau3OVNm2focN9VGeUV8nhFNZVGEh9qmBKx6lvKIyBRRGzI+XuVMF91b02NkwgyfciEHiXKMKHmrnq2pO8o3IqOk34RFLiGs3nHsrJWWuWa74ygjRs/W9JrySkV9WN41fr9MgfA0mXBkiAbwMgjCRYk2fRLSb3/72+6LMTon+osf/hr9tV8RDooqmTNnjhvMal3TRVRkJCj3Rawio0ImhQbXmgJxsaJ2KU+J/9KMBs7XX399mcSduo83Qx544AFngHTt2tVNL9FgWuaNokpkBug8Fd1LxobOFyP/xRxFNsjg8VVfP/HTSjTlQ+2OzhmiKS2KWBBfRcxoak24yHhQxMPbb78d7PZmiHbIqJA5FDZE/IkyQxRVMXz48Iiqe5VnhihyQ30ZNkMU0aKoFPHT14DCJWyGyHDRFCFfatoMUd4RRako140v0ow3Y/w+LTFDwjRYhwAEIAABCFwgEGuazM69B9wHEWReyKhQMtTooqgR5eqQYaDP1o6ctTKivtJ+TBkzRPd9tuUIl3NEn8XVtj7j6xO1Rj/Db6sdylmipKuKElEyV301Rn8Y1ed3dxcd9Ke69Tte6xpEhig5rL5qo+cq+Wl5X5PxZojMDxVvhmj918+0d7+z+Y8tBA9jJSUIYIakRDdempeoaCCtHwga7MsY0FdWFAlxwWTI+eRLKAdd8tKla3Pc12KUL0RGhs7V4F0JUf1gft3WPe6aXQUHnDkgw0EGytK1213eDBkLiqZQiJ7C4PRlGn2hRYlFda6SuWoqiyJFNFVHZoyMF5kpMkVkGOhZiqzQF2VkfCg5qfbpvrqXzj12/KS7j77qouervfqyi6IyNE1HkTAygTbsyDflN1E7NJVHESA6Z+7yze4rNHpXtU119rJsZ4xszi100S1qj6YEbd+zz5kaMjb0hRpNNdJ0GJkhSjIro0VGyZK1Oc7oEW8lk9VSHHLzim3qgrWfRI3UzNdkpCJFHSjXhaa1KLqjPDNEA3/luvClSZMm7isj/ksl3gzRoFxfX9EnU8NFBoGmkajIFNHXWJQsVZERyn2hdU3peO2119xXVvy1uo+SuGoQvGjRIr+7wqWiG2ScyCgIF7VBBokiBMJFJocG7nqOogtUda0SqaooP4eiTLwZEr5W64pSkekS/Qlf5SnxZoi/JtoM0f5Nmza5pKgyLsJFRonO17PDJWyGaL/MDUVs6PxwkRmiPC2KjglXGVCxzBCZQDJ0dL+wGaJ76hoZH9HFmyEybWTqaGpORkaGM4z0CeFoHej6qkaGPPnkk2VyysioUV9Hm0GagiRNKgeMr9LQ008/HbwCOUMCFKxAAAIQgEAaEFBCUyUQVf6PDiPmmBKSXnlvA5OZoEgNbStfiL6m4r/SIiya3qLpKvqdXGbI/3moqfWcsCiiynzw02SiUSrnSNexC1ziVSVfVeRGrLIye7fV7zXZbnqilUum6s9RclcZImpXOF+Ijmtqi74go6LpOUoOq0iU0k+iRlsNuTBVOfrTujJDlI9EkSQqOq5obV2rL8qsyN5t4/QHzoxPo3ndifwn6QlghiR9F166F6jIDNFTNUgsLVUttU+/W1G59uhn0tmz51xmaf8DqnJXfnqWf7bfc/ZsqfvBrP2+6Ae1qtqqH9jhY6GPbfjT3VLnaHpO+NyIEyqx4d7v3Dl3j/BzdE9t+2dU4lau7ZU5L9Y5F+vD8DXK26B8D0qUOn78eBdF4M0QmRV++oau0UDX/0Veg3xFIyg/hYr0oK+WyFhRUXSIPsUbvl552IuBgAAAIABJREFUKnzCVU0/0XSK6Kq2KDLCT4HRX/xlBmhgrigNRTgocqGiokgOmRLKyRGrKMJEUR1qgy8yOXTvcFSKolX812Z0nowUb4bIdND0F+XlULtk7mgKib4wo/v7+s9//rOMGaIkpD7PhyJMNN1G95CpIBNJ13jOMn9iJUCNNkPUPplIW7du9a/kljJDYl1fXgJVsfV9KObK46I8Iep75Vu58847XU4R/dvyRSzUr8rhomlIMic0FUWM9elhmRLRxZshMlBkIqnKOFGUh9/2Jpu/Vlq66aab3HQqmS0ybsRMX7xRf7///vv+1EovxTvaGKv0xZwIAQhAAAIQSDICi9Zut3vf6ml1u05wyUr15RRNeVHR52UfaTDA/Q4tg+Hp5sODt9OXZ/RFFxX9bh0rgarMkVhmiP6op7whMlOaD5zhok40TUfmhp7vi6I4Hm80yCVulXGiaTy6VglNt+ftc/t//2InGzo9K/gqjcYTiuJQxIh+N5Gx0XroLGf0vNl5vL+1W0abIXqWkrjuyC+251qOcAaPokqUxFVJWev1mGQvtxtlW3bHzjcXcXM2kooAZkhSdddn29h4BtJVaZnGUKFxVFVuEWHCXLjfpwMz3VA/DP1gzS8r86DqtuvCsyt+Uk08o+InmMXThxr8KrmoLxrsezNE+Si++c1vuoGw/rKuBJQq+qysvtrh/xKvAe9vfvMb99d3fx8tNahVJIgG0coBogF/rOktGrArEkFmif5S74sSZf74xz8OjBF91UZ/1degW3/hVxJNDbgvv/xyFwEg40KfTNW2/3Sqv1f0UpEjmvqiL6Co6L2VE6S8IoNCuUSU50RF1ytKQQaKBv++6JO3ytHhq57hI0OU8FNmwmWXXea+kqKv6+i4DBWf2FV6lYmjd5NhUV6JZYbEOjfaDFGfKN+GGEbn8lAuk3BRJIlMEEXIeFNIfSLjzBtJ6jddJ8NK057CRZ9ifuONN9zxpk2bhg8FkSE9evRw6zJHomt0Al6ZSDLglJ9F76B7ajqWphfpyzPShDfRIh4WtSGz58EHH3R6Vn/5aV5Rp7EJAQhAAAIQSAsCMkOUfFTRIT4aRCbDY40G2cyszc54kJGhfH4q0WbIwrXb7ZkWw52ZoOSrKorQeLThABdtIcPh9U7jXRJUd/CT39UzFqy1W5//0KJNC52jfB+/eKqt3V+3lzXpN82ZIdqv5KkyKZTTQ0lVlTdE7VRRG/RpYP+75uudxrnIlYFTlrpEr2pHuCjHicwWFUWBKImrL1q/s043q9V8mN/FMoUIYIakUGfW9KvEM5Cu6Wdzv5ohUJ0+1KdVw4NDGR76FGmsv+771soc0Rc8wkk1/bHwUgPpWEWmgL62ok+g+v+B+fPCRo3fV9FSCTzLS74afV34PZV0VEZBeUURNIrmuJi5poiQcJEh4BOF6t2ys7MjomlkqsQqyo0RnZ8lfJ6iXypT1HfRX3/R11OUrFaswmXatGnhzTJ94Q8qmkVVRe330UH+ePRSnKPbIMOtPD1EX1/ZbbGubFF/i8HF2l7Z+3EeBCAAAQhAIFkJKPGoijc7/HvIGPGR3DJAfNG+VVv2+E1nKMhMUD6QcFGuD03LqajodyNFdUSX7Xn7XSLT6P1+O5wzxJsYiiwJFz370LHjLm/Iuh35Fd4vfJ1f13v69/f7WKYGAcyQ1OjHS/IW1RlIX5IGcdO4CdCHcSPjAghAAAIQgAAEIAABCEAgDQhghqRBJ1f1FRlIV5Vc4lxHHyZOX9ASCEAAAhCAAAQgAAEIQCBxCGCGJE5fJFxLGEgnXJfE3SD6MG5kXAABCEAAAhCAAAQgAAEIpAEBzJA06OSqviID6aqSS5zr6MPE6QtaAgEIQAACEIAABCAAAQgkDgHMkMTpi4RrCQPphOuSuBtEH8aNjAsgAAEIQAACEIAABCAAgTQggBmSBp1c1VdkIF1VcolzHX2YOH1BSyAAAQhAAAIQgAAEIACBxCGAGZI4fZFwLWEgnXBdEneD6MO4kXEBBCAAAQhAAAIQgAAEIJAGBDBD0qCTq/qKGkhTk59BVfuf6yAAAQhAAAIQgAAEIAABCKQqAcyQVO1Z3gsCEIAABCAAAQhAAAIQgAAEIACBmAQwQ2JiYScEIAABCEAAAhCAAAQgAAEIQAACqUoAMyRVe5b3ggAEIAABCEAAAhCAAAQgAAEIQCAmAcyQmFjYCQEIQAACEIAABCAAAQhAAAIQgECqEsAMSdWe5b0gAAEIQAACEIAABCAAAQhAAAIQiEkAMyQmFnZCAAIQgAAEIAABCEAAAhCAAAQgkKoEMENStWd5LwhAAAIQgAAEIAABCEAAAhCAAARiEsAMiYmFnRCAAAQgAAEIQAACEIAABCAAAQikKgHMkFTtWd4LAhCAAAQgAAEIQAACEIAABCAAgZgEMENiYmEnBCAAAQhAAAIQgAAEIAABCEAAAqlKADMkVXuW94IABCAAAQhAAAIQgAAEIAABCEAgJgHMkJhY2AkBCEAAAhCAAAQgAAEIQAACEIBAqhLADEnVnuW9IAABCEAAAhCAAAQgAAEIQAACEIhJADMkJhZ2QgACEIAABCAAAQhAAAIQgAAEIJCqBDBDUrVneS8IQAACEIAABCAAAQhAAAIQgAAEYhLADImJhZ0ikFdQSIUBGkADaAANoAE0gAbQABpAA2igoJBBYooRwAxJsQ7ldSAAAQhAAAIQgAAEIAABCEAAAhComABmSMV8OAoBCEAAAhCAAAQgAAEIQAACEIBAihHADEmxDuV1IAABCEAAAhCAAAQgAAEIQAACEKiYAGZIxXw4CgEIQAACEIAABCAAAQhAAAIQgECKEcAMSbEO5XUgAAEIQAACEIAABCAAAQhAAAIQqJgAZkjFfDgKAQhAAAIQgAAEIAABCEAAAhCAQIoRwAxJsQ7ldSAAAQhAAAIQgAAEIAABCEAAAhComABmSMV8OAoBCEAAAhCAAAQgAAEIQAACEIBAihHADEmxDuV1IAABCEAAAhCAAAQgAAEIQAACEKiYAGZIxXw4CgEIQAACEIAABCAAAQhAAAIQgECKEcAMSbEO5XUgAAEIQAACEIAABCAAAQhAAAIQqJgAZkjFfDgKAQhAAAIQgAAEIAABCEAAAhCAQIoRwAxJsQ7ldSAAAQhAAAIQgAAEIAABCEAAAhComABmSMV8OAoBCEAAAhCAAAQgAAEIQAACEIBAihHADEmxDuV1IAABCEAAAhCAAAQgAAEIQAACEKiYAGZIxXzS+mheQaFRk59BWouYl4cABCAAAQhAAAIQgAAEIBCDAGZIDCjsukBARggluQnQh8ndf7QeAhCAAAQgAAEIQAACELg0BDBDLg3XlLgrA+nk70b6MPn7kDeAAAQgAAEIQAACEIAABGqeAGZIzTNNmTsykE7+rqQPk78PeQMIQAACEIAABCAAAQhAoOYJYIbUPNOUuSMD6eTvSvow+fuQN4AABCAAAQhAAAIQgAAEap4AZkjNM02ZOybDQPp8FG1tR9eoU6z0/HlXw/uj7xM+5tfPf3Kdlucrc4G/8HNcJkMffo54eDQEIAABCEAAAhCAAAQgkKYEMEPStOMr89qJPpA+fvKMHTl20k6fPWdnz5VayYnTdrTkZJl68tSZ4HVLTp629dvybO2WPZ/uO3Hajh0/aafPnA32Ra+UlpZabn6xrdm82/buP+yee/bsuejTEm470fsw4YDRIAhAAAIQgAAEIAABCEAgLQhghqRFN1ftJRN5IC1zYum6HGvdf7pb7t57wEZNz7KuI+aUqTMyN9ip02et+FCJFew/ZG0GTLemPSc7KOfOldrMzI3WftAMW7c1r0zEiCd35uw5GzBhkb3QdIiNnbXSeo2Zbys37bJDR0v8KQm5TOQ+TEhgNAoCEIAABCAAAQhAAAIQSAsCmCFp0c1Ve8lEHkjLDMn4eJU9/f5Ae7PtKJubtdlqvT/Q/vp6N3uyQX9X/1m/v93/Wldr0mOSbdqebz1Gz7MN2/PtnQ7jrE7rEQ6KTI6OQ2fZP+r1swZdJrioj1NnzppMknBVdEm7QTPs3pc7W7uBM9xzm/aabOu27jFNm0nUksh9mKjMaBcEIAABCEAAAhCAAAQgkPoEMENSv4+r/IaJPpDOLzxorfpNswde7+4iRB55q6fVaT3SRk7LsoEZi23UjOX2dKOBVrfdGJs4d4397qm2tnj1tggzRHC2795nb7UbZY+908emLlhnuwqKbU/hQVO0ia+aItOs1xT735c7W59xC6z32AXWuMdEy1qf66JOqgz5El8Ybx/m5uZWqkXNmzcPzisuLrb169cH2+GVzMxMGzBggHXs2NFOnToVPsQ6BCAAAQhAAAIQgMDnREB//Mvbf6hMLSg+UmGLsnML3RR1naR7lJy48PvdjvxiGzhlaXDtrr0HgvXolQWrt1nvjMXRuyO2/R8b9YzG/aZFHBs/f43NX70tYp82dhcdLLMv1o5Oo+YFuw8eLTG9U6yyPHuXjZy10rVV7aCkHgHMkNTr0xp7o3gH0jX24EreqLT0vBUWH3HTXGRyKBJE0120riiO/QeP2fvdMi5qhigCJGtDrjNQZH407j7Rnmsy2EV/KPJEVVEnMkJuq9XORZ888V4/97zmfaZYRT/sK/kql+y0ePrw6NGjdu2119rYsWNtwYIF9p3vfMduvPFGV7/+9a/bnj17rE+fPq6tP/jBD4I2Z2Vl2ZVXXmnLli0L9vmVMWPGWO3ata1///5Wq1Ytv5slBCAAAQhAAAIQgMDnSGDNtjz7Q+3Odt3fmtv/vtXT1avuf98efK+fMzVkbPg6dHpW0NIWg2bYX97pbYeOHjeZErXbjnLHFq/LsccbDXLrK7N32311ewXR09MyN9qE+WuDKiPkmoebuuvD+6cv2Rg856H3+pmeK7Pl5n+0tuOnzlhuQbGrdbtOsPYj5gTbivTWebfV7mSTF623pRty7YbHWtqfXu3q6k8faWb5+w/b0BnL3f3/75Ntgues2rrHfvV0O1sVyifoD+pe9XpMshEzV9jrncb53SxTiABmSAp1Zk2/SjwD6Zp+9sXuJ3dWER0rNu50uUCU7+OphgNchIgiQ+57tYsV7DtkjbpPLNcMkeN87PgpKzpw1HLyii03r9hFefQcPc8+6DnZmSIyRnx9/N0+9qfnOzhjRFNqtF9RIro+UUu8fVhUVGR33XWXffTRR/biiy9aTk6O7d271+644w5nhlx//fXuVcNmiHasXr3a/uf66y07O9umTJkS1Pr169vdd9/ttps2bWoyXCgQgAAEIAABCEAAAp8/gaxNO61W82FBQ2QgnDh9xh54t4893Xy4tRs+29oMnWXX/71FcI5WBkxZYo82HOD2PdF4sM1ZsdW8GSJj4q463Wzr7qLgmhsfb2Xvdp9o7/eZUm59u1uGMz38RQeOlNhrHcbarOVb3H6ZFf9oMsTVW55t74wcv134ye/i+w+X2GONBtmsrM32TveJ7g+WRQeP2d/eH+jMkNtrd3a3D5sh2rF+R4H98eUutm3PPvc8PVO15aCZzuDR+ocj5wZRML6NLJOfAGZI8vfhJXuDeAfSl6whMW6sr8a0HzTT3mo3xiVQXbN5j9VqOMBNmxk8OdP++Gx7yys8WKEZoh/W81dstXc7jrOXmw9zuUUUbaKvxeyU85wfWVv2neaiQ/pPWGRbdxa644XFRy38tZoYTf1cd8Xbh96smD9/vjND2rdvb4ruuJgZopc8e/asLVq0yOrUqRPU+++/36655ppgOz8//3PlwcMhAAEIQAACEIAABC4QkBmiqBA/+P+fx1q6A6Nmr7KOo+a69dXb8uyv9fq6df0hUdsq+pqjttduz3fTTDIWrHVRJYreUCTI4ZKT7jz9R2aIn06j7bpdM1z0RnCCmR06djzCDNExRYPIeFFkSLh80H96xJQcf8w/I3N9rjNDeoxf5CJFLmaG6Hp9mVI8wobNU02H2u9e7Bjs25vAfwD1DFjGRwAzJD5eaXV2vAPpzxKOPqMr00PTVep3nmBL1mx3kSHKIVJZM+T0mXNuis2TDQbYH5/rYE/U62vnzp13P4zzig5GmCGacvPhkJluisz42SsTOk9IuB/i6UNFd2hazIEDB6yyZsjo0aPtD3/4g6vLl18IPQw/f968efboo4+Gd7EOAQhAAAIQgAAEIJAABDT4V5RFo75TXfURIBtyCuyF1iNdC2WK+JwdmhqjqSgyKFT0tUZNrbnnzR4RVdNOFFXhi6a/yGxQUYSHjstMCRdtT1m8we2SMfJ+n6mubTI+vBmi53Ybt8CZM081G+bWx85d465RdIemxaiNlTVDJi1cZw/X7++qN3nCbcpcnxNwCO9nPXUIYIakTl/W+JvEM5Cu8YdX4obK7yGDol6ncTY3a4v9s0H/uCJDSs+ftyPHjtvCVdvs72/3cmbImbOlLlrktVYj3LaSqupLMx/0nOSmxehrNWNmrkhJM0TIhwwZ4qbJVNYM2b9/v0ueeu+999qMGTOspKTEevXqFdRJkya5aTKV6E5OgQAEIAABCEAAAhD4DAnEmiajx8uY+H/PdTD9rnz/O71t4sJ1QauUcFTTYDQtRmaINyqCE8xs8LRlgRmyKXev/fGVLkHVVByZLuF94XXlMtFUnX6TM+34ydNWcvK0e4aeJWNkyLSsiBrOMzLm49VumkxlzRBNxVHyVE23mbtqm3te+P4zl2UHeVDC78d66hDADEmdvqzxN0l0M+Ts2XN25NhJN61l/bYLOUNcZMikTBfpcbFpMgKmH/LrtuwxRYcoMuTMuVJbvmGnmzIjg0Q5QpRMteuIOaZkqX99vbuNmp5lp06fqXHel+KGVenDQ4cOBZEhbdu2rdQ0mSeeeMKZIZpm06xZM7vsssusUaNGNnfuXLvlllsuxatxTwhAAAIQgAAEIACBahCQGaI8Gr0mLHbVR4bolsrXoQSi1z7a3BkS4cfImFDR8r8faGTKGxKuSszqI0NkrCh5qWrfSZkugkRfsfH7Xmozypr0mx5sKy+gprLLqFDdd+iYi/TQ9BtFlGjpj/mlzvdF03O8GdJt3MJKTZN5ud1oZ4Zomo0iYZTcte2w2c7wUSJYSuoSwAxJ3b6t9ptVZSBd7YfGcYPTZ85adk6BmxYze0m2/eO9fta012RnXGjaS2XMED3OGykyQxTCd7TklG3dWWQt+061u1/qaBkfr7KC/Yetz9gF9vCbPazvuAUJnSckjLAqfdiqVSubOXOmyxny0ksv2ezZsy+aM8SbIf7Zl19+uZ08edJOnDhhV1xxhd/NEgIQgAAEIAABCEAgQQjIDFHi0P4fZbrqc4aoecs27rSf/bONvdVlQpnWbt5ZaA16TXZmiCI9oj/R23n0vMAM8Rcr/8cva7UzRX74oqiMqx9qYsWHS/wut9SUlbvrdI+oMmp+8lAT16boY+EpLl3GzLd5q7a5nCFK2qrP+F4sZ4g3Q3wjlGBVRo8iVNRmSuoSwAxJ3b6t9ptVZSBd7YfGcYPiQyXWe+x8e7RuT5uRucHe6zTeOgyZaW+0GWV3vfihyyDdbcRcazdwhk2et9YlVc1cs93e6TDO6rQeETzJmyEPvdHDtuwsMuUj0b0VDaLP6S5YudWOnzxj0xaus8ff7eum5egcfYlGiVyVeyRRS7x9mJubazfddFMQGfLrX//aNm3aZA899JAp+Wl5X5PxZojMDxVvhmj9Rz/6kZ07d86OHDliZ84kR0RNovYn7YIABCAAAQhAAAI1RSDWNJmdew+YojNkXsioUDLU6KKoEeXqkGGgz9aOnLUyor7SfkwZM0T3fbblCJdzRJ/F1bY+4+sTtUY/w2+rHcpZoqSrihJRMld9NUZfidHnd3cXHfSnuvU7XusaRIYoOay+aqPnKvlpeV+T8WaIzA8Vb4Zo/dfPtLfS0lL3e384AiV4KCtJTQAzJKm779I2Pt6B9KVtTdm7K3rj1ZbD7YE63WzP3gO2YXu+TZ6/1p5s0N/ueamjzVi8wdZu2eP2y9B4qdlQW7lpV7lmiAwU5R9RtIm+KNN5+Gy7t3Zn+3hZtjNH9BnfZxoPsofe7GEHj5TYsnU5NnbmipT6tK6mtugLMiqnT5+2q666ylasWOH+J6B9DRo0cMeiP60rM+Ttt982RZKoyAwpKChw1+qLMkuWLLFhw4ZZx44d3XH+AwEIQAACEIAABCDw+RFQNLQSiCr/R4cRc0wJSa+8t4HJTFCkhraVL0RfU/FfaVFrNb1F01VkDMgM+T8PNbWeExZFVJkPfppM9Bsq50jXsQtc4lUlX1XkRqyyMnu31e812W56opVLpurPUXJXGSJqVzhfiI5raou+IKOi6TlKDqtIFE2LV2k15EJS1+hP68oMUT4SRZKo6Lg+16tr9UWZFdm7bdy8NdY7Y7E7zn9ShwBmSOr0ZY2/SaKbIUvX5dizjQfZ621GOrdWmae7j5rn8nz8+aWO9vd3+tjkeWuccaFIDk110edy3+kwNiIyZN3WC/lGfvPPNnbnCx/a9MXrbXPuXms7cIbd9VJHGzwp02Yt2WQfZ20Ook627S6yjkNm2SsthjvDpcbh19AN4+lDud6K4ti7d6/7VJqMjYYNG9oHH3xgzzzzTESLZHaEy91332033HCDbd261R5++GH72te+Zooq6dKli0vKWrt2bXv88cdt48ayf10I34d1CEAAAhCAAAQgAIFLT2DR2u1271s9rW7XCS5Zqb6coikvKvq87CMNBjjDQwbD082HBw3Sl2f0RRcVmSGxEqjKHIllhiiqWnlDZKY0HzjDRZ1omo7MDT3fF0VxPN5okEvcKuNE03h0rRKabs/b5/b//sVONnR6VvBVGhkeiuJQxIg++Stjo/XQWc7oebPzeH9rt4w2Q/QsJXHdkV9sz7Uc4QweRZUoiauSstbrMclebjfKtuwuirgPG8lPADMk+fvwkr1BPAPpS9aIcm6sH3L9Jyyyv73dy4Z+tNSZHO0GzbC/1e1ltRoOsEWrt9kzjQa5aS2a7lJYfNR2FRRb1vpce7bx4AgzRIbJI2/1tPte6WIDMhZbgy4TrHbzoS7i5LdPtrV7Xupkf3mtqw3MWOzqH59tb20GTLen3x/oIkn0VZtELfH0oT6Ne9ddd7lXefDBB90ncTW9RaVWrVrWoUMH6969u/35z392xkf4nVu0aOGmwWifokBOnToVHNb6zTffbA888ECwjxUIQAACEIAABCAAgcQiIDNEyUcVHeKjQWQyPNZokM3M2uyMBxkZmiauEm2GLFy73Z5pMdyZCUq+qqIIjUcbDnDRFjIcXu803iVBdQfNnHGRsWCt3fr8hxZtWugc5fv4xVNt7f66vaxJv2nODNF+JU+VSaGcHkqqqrwhaqeK2qBPA+sPfSqvdxrnIlcGTlnqEr2qHeGiHCcyW1QUBaJpQr5o/c463axW82F+F8sUIoAZkkKdWdOvEs9AuqaffbH76Ydvp2Gz7Z/1+7t8Id1HznXrdduNMU1n0Q80LRt2zXCJULfsLHRTap5sOMB9EaZh10+TQSnfyLsdxzqjQ9Njeo2Zb3VajXBRII26T3QRIDJC1m3dY2s277bH6vV1RomSq+rTvv6H58Xa/Hkcj7cPvYmh/CDhcvbsWTt48KDLG7Jq1SqXGDV8/GLr+p+R/x/Sxc7lOAQgAAEIQAACEIDAZ09AiUdVvNnhWyBjxE810e/gvmjfqi17/OaF37+zd7t8IMFOM5frQ9NyKir6PVFRHdFle95+l8g0er/fDucM8SaGIkvCRc9WBLn2r9uRX+H9wtf5db2nf3+/j2VqEMAMSY1+vCRvEe9A+pI0opyb6ofdvOVbXALV7bv32dSF61y0xqrNu4PPf+mHtaa7bNiRb4XFR6x+5/Guth80w1Zl7w7uXLDvkDtPS0Wc5OzZ54wP5SDJySt2USXKEaL7HThcYuNmrbQXmw6x11qNcHlDSksvzEMMbphAK4nchwmEiaZAAAIQgAAEIAABCEAAAmlGADMkzTo8ntdN5IG0TIuTp864ED65vYrOUPWOsH9P5UtS1TlFB466euRY5BdgdC/VyhQZH8dPnnaGicwTrSdySeQ+TGRutA0CEIAABCAAAQhAAAIQSG0CmCGp3b/VertkGEh7C0NLv17eS3vTo5K+R3m3cfv9vSo8KQEOJkMfJgAmmgABCEAAAhCAAAQgAAEIpBkBzJA06/B4XpeBdDy0EvNc+jAx+4VWQQACEIAABCAAAQhAAAKfLwHMkM+Xf0I/nYF0QndPpRpHH1YKEydBAAIQgAAEIAABCEAAAmlGADMkzTo8ntdlIB0PrcQ8lz5MzH6hVRCAAAQgAAEIQAACEIDA50sAM+Tz5Z/QT2cgndDdU6nG0YeVwsRJEIAABCAAAQhAAAIQgECaEcAMSbMOj+d1NZCmJj+DePqccyEAAQhAAAIQgAAEIAABCKQDAcyQdOhl3hECEIAABCAAAQhAAAIQgAAEIACBgABmSICCFQhAAAIQgAAEIAABCEAAAhCAAATSgQBmSDr0Mu8IAQhAAAIQgAAEIAABCEAAAhCAQEAAMyRAwQoEIAABCEAAAhCAAAQgAAEIQAAC6UAAMyQdepl3hAAEIAABCEAAAhCAAAQgAAEIQCAggBkSoGAFAhCAAAQgAAEIQAACEIAABCAAgXQggBmSDr3MO0IAAhCAAAQgAAEIQAACEIAABCAQEMAMCVCwAgEIQAACEIAABCAAAQhAAAIQgEA6EMAMSYde5h0hAAEIQAACEIAABCAAAQhAAAIQCAhghgQoWIEABCAAAQhAAAIQgAAEIAABCEAgHQhghqRDL/OOEIAABCAAAQhAAAIQgAAEIAABCAQEMEMCFKxAAAIQgAAEIAABCEAAAhCAAAQgkA4EMEPSoZd5RwhAAAIQgAAEIAABCEAAAhCAAAQCApghAQpWIAABCEAAAhCAAAQgAAGiCAkpAAAgAElEQVQIQAACEEgHApgh6dDLvCMEIAABCEAAAhCAAAQgAAEIQAACAQHMkAAFK9EE8goKjQoDNIAG0AAaQANoAA2gATSABtBAYfRwie0kJ4AZkuQdSPMhAAEIQAACEIAABCAAAQhAAAIQiI8AZkh8vDgbAhCAAAQgAAEIQAACEIAABCAAgSQngBmS5B1I8yEAAQhAAAIQgAAEIAABCEAAAhCIjwBmSHy8OBsCEIAABCAAAQhAAAIQgAAEIACBJCeAGZLkHUjzIQABCEAAAhCAAAQgAAEIQAACEIiPAGZIfLw4GwIQgAAEIAABCEAAAhCAAAQgAIEkJ4AZkuQdSPMhAAEIQAACEIAABCAAAQhAAAIQiI8AZkh8vDgbAhCAAAQgAAEIQAACEIAABCAAgSQngBmS5B1I8yEAAQhAAAIQgAAEIAABCEAAAhCIjwBmSHy8OBsCEIAABCAAAQhAAAIQgAAEIACBJCeAGZLkHUjzIQABCEAAAhCAAAQgAAEIQAACEIiPAGZIfLw4GwIQgAAEIAABCEAAAhCAAAQgAIEkJ4AZkuQdSPMhAAEIQAACEIAABCAAAQhAAAIQiI8AZkh8vDgbAhCAAAQgAAEIQAACEIAABCAAgSQngBmS5B1I8yEAAQhAAAIQgAAEIAABCEAAAhCIjwBmSHy80ursvIJCoyY/g7QSLS8LAQhAAAIQgAAEIAABCECgEgQwQyoBKV1PkRFSE6X0/Hk7e67UztfEzVLoHufPX3oiNdWHKYSdV4EABCAAAQhAAAIQgAAEIGCYIYigXAI1MZA+feac5e87ZAtXbbNtu4ssr/CgHTl2PHhm0YGjtqfooB08UuL2yTTRemHxUVd1/MzZc3bs+Ckr2HfIcvbsK7eWnDht8hdKS0tNz1Xds/eAbdieb7n5xXbq9Nlgv+6p86JLael5W7oux/ILD0YfCrbPnSu1PYUHrWD/YdfWooPHbM3m3Xb85OngHN1/7/7DtrOg2LbsLLRdew84Q+jM2VKTCaL2LN+QG5x/5NhJ19bdew+44zpwtOTCvpy8YndtcHIcKzXRh3E8jlMhAAEIQAACEIAABCAAAQgkBQHMkKTops+nkfEOpDXIP3nqjBUWHwmqzIAp89faW+1GWcbHa6zriDm2bH2OHS05ZXuLj9j8lVutWe8ptnj1NtOgf+2WPTYwY7H1HrvALbsMn2OHjh53xsiE2aus7/iF1rz3FOs5er47PmhSpvWfsMia9pxsW3cWuufLqFi6Nsfdc/DkTKvdfJgNm7LMlqzd7vbr2KrsXc7QkGFy6sxZZ5TILCk5ccpqvT/QZmVuDPZpv0wSFZk1Bw6XmJ47ctoyk1mje9XvPM6ZHt4Q0XLktCxrM2C6tRs0w0ZNz3LXLd+w010zavpye6nZUHdPGSfb9+yzLsNn28S5a9x5eUUHbVX2bms7cIZ7v207i5wZJFMonhJvH8Zzb86FAAQgAAEIQAACEIAABCCQrAQwQ5K15z6Ddsc7kJZRIENj+NRlNmneGvto/lobP3ultR80wx6t29P6jltojbtPdMaAIiPGzV7pDIHH3u1jz38wxDoMmmkf9JxkD7/Vw55rMtia9Zpid7/U0XYVFNvWnUU2bdF6Gzwp0/731S7OOBgzY4WNm7XSGR23P9vepi5cZzIRdF79zuPt+Q8G24NvdLdH3+5lL7cYbm+2HRVUtWPe8i2mqI7tu/fZph0FrsqM+d+XO9uACYts0/YL+3RMJoSMk/0Hj9ncrM32ZIP+Nn3xBis+dMxFebzScrhrv6JAZIQo+qXHqHn2QJ1u9m7HcbZw5VbL3lFgDbtOcM/VsSfe6+emDikqRG2p03qkfThklosYGfrRUne/55oMsldaDLfeY+bbqBnLLSdvX1w9H28fxnVzToYABCAAAQhAAAIQgAAEIJCkBDBDkrTjPotmxzuQVoTFzMyNdk/tTm5Q333UXFNkhwyAe2t3dqaIIkOGTM50URwrN+1yxokiJBRB8be3e9nHyzbbs40HWaehF0yBF5sNtfXb8qzzsNn2RttR9nLzYXbb0+2cefJGm1Fu36utRthttdrZs40HOxNG00v+P3vvAZzleab775yzuzmb/2R3zs7ubDaTsxMnOUlOijdOcjbtJLZjxyW244p7BTeKDdhU00zvRfQOAtGb6CBhOqJjugCBEAIJAaKD6b7/87vh+fzqQwIJS5hPXM/Mw/f293l/zzdC76X7vm7STYgueaPZMI8gIU0n9MVrd3haC+k4RIs0Tpps1VuPdAHm1cZD/FrPfNDPx1G9dYrRiTpBOJmxeIM9V7+/tR4w3YjyQEjJzM63WYs3WpUP+/l2xotIwn1ebDjIWvabamu25HjaCxEwRJUQ8eFiyOefewpN+8Gz7IX6A+zNj5Nt+sL1HiFCxAtCSP0uE2xC2hpni9hTllbWOSzLtXWsCIiACIiACIiACIiACIiACCQqAYkhiTpzN2HcZX2RDmII0RDzV2Z6msr67bm+/Fy9/p5GQqoLKSgIC017TbF3W4/0SBCiQep2GmvDUpdZtebD7eN+U10AIWWGVJQFq7a7iNBjZLrdV62LdR+Z5ukjCAakzNxXratHiJAiQ6oLqTiIFq81HerRII17TLLQieponDTJ8P4g5YVoEPw75izb5IIIwgrnEYmB4EEnMgQho0G3iVa7wxh7tEYPF2Z4BqJQiP5o3ifVl4n62Jl7wNoPnu1RJm+2SPb0oLkZmz16BaGG50QMoZEmQ9RIiz6pLuAgpkxMW2N9xi7wCBQiRnjOJWuz7Mixy94qpZ3+ss5haa+r40RABERABERABERABERABEQgkQlIDEnk2avgsZf1RfqyGLLVHqnRw1r2m2b1ukxwoQIR4fH3e7k/CBEgpM4QvYFgkjQq3SMiEBLw1di4Y59HfbQbNNPTRIgsQQAg4qRpr8kulDxdt6816DrR78F9OJc0m01ZeX5dUlXqdRlvD7zTzToMme33456hI2bU6TjG6eEFcu7CRfc4WfpplkeSkHLzZO3eLkDgfxI8Q4j2wFwVUQPBZ/zc1R5ZsnxDtnuR4PGBWSvRIkSd4P9Byg1jmbc80xat2e5pQkSJ4GXySuPB7kFSePSULVy9zSNQEFvGp612kYjUmyCwvNZkqIsjiDdlaWWdw7JcW8eKgAiIgAiIgAiIgAiIgAiIQKISkBiSqDN3E8Zd1hdpRAOiPogCwQODVBDMQzEYRVxACGEbZqAIAKS+vN5smEeEYLBKqgppK6SlIIIQIfFuq5GeRoJvB1EiVT7oZw26TjA8NUgdCR1DUsxaEQvYR6QGYgjRJkSRRDsGqTEx5PPPXbjAyJVoEe7xcI0eRgoOUR/4kOATcu78ZRNV/D0QVRBfSAPCJHXMrJV+T9Jytufs9yo1R0+c8miQx2r1tNeaDPFnXbct1wUfxKGkUfMMUYeoFKJCmvdOtVcaD/FnQyxpNWC6pxXBg8798GGRgepN+OLrFiIgAiIgAiIgAiIgAiIgApWegMSQSj/FN/6AZRVDKG1LqgkCBuV0B05c5JEfiBoIEC82HOjeGqSJIFwQ1YGnB2klpLrgFYLPBufjLUIp3rqdxtmiNTtcGEFIQVx4v/1oT0HBcJXeZfhcT08hYoP0G8xW8fF4onZvF1U4P9ob9ZjoYsilzz+3Y6dOu3BD9AbeJkR/PFmnj4sco2eu9DERsbL/0FG7cPGi8YwIPYwZwYbeIyXdq9kQLbJwzQ4XQyjpyzWf/qCvdRw620bNXGEDJiyynqPneTUcUnUert7DU3gQhxA8mvVO9fuSNkOEDGJMrzGfWOdhc1yowZyWij1laWWdw5Ku3bx5c9uzZ48NHjzYCgsLiz2sT58+tnv3F+WCGetnn31WpEdPzM3N9eM5p7h+9OjR6OFXLTdu3Ni4RlkaY6pZs2apT9myZYudO3e5ZHJmZqZNmzatxHMvXrxo27ZtswkTJtinn3561XHdu3e3vLy8ItvZtnfv3iLbWGnZsqVzu2pH3IbSMCgoKLD8/PxYZ04OHDhwVT9z5kzc1S+vpqam2oULF3zl+PHjNnXq1GKPO336tH83+H5cq4drFXsRbRQBERABERABEbgpBIjo3nfo6FU9v/D4Ne+fubvAo6o5iGuQnk7blVdow2euiJ27Z//h2HL8wuJPs2xg6rL4zUXWw++83OPjIbOL7Ju8aL0t+jSryDZWckvprZc0bmHs3CMnThnPVFxbnbnHxqav9bEyDrXKR0BiSOWb03J7orK+SBNBQfoH6TEYjL7aZKh1TU4z0kiI6CBKY+6yzdZ37AJbsWGnV1ghZQWRYOCExfZ2qxExMaRWu1HWbtAsT0chnaZl/2lG1RlEhB4j0wzzVdJh6ERX1O4w1s1YSU/hhyclfqkkQ1ldrhPteHUQGUJ1GCrCIL4wTlJiECI4j4o0RK9MTF/jniY8FxViaIgoly5d8hQXfEf4T2DVpmyvXrNq024vw8s4iJJhvESbIP6MnJFheKZQjYb0HSJoEG6IqMnee9BFk/Fpa/zaRLj0H7/QHq7e3R5/r5dzISqljFqIlXUOS/ry/OEPf7A1a9bY5MmT7T/vvNOOHPnCyJUXZF6277//fps5c6YdO3bM3nvvPT/261//uv34xz/2/t//+3+3s2e/KA38wgsv2EMPPeSd4+69997YOuc0adIkNhxeoDdu3BjrCxcutH/6p39y0SG6PSyfOlV8OhHfjf/v//t67LrXWkC4uOOOO2zXrl1+GM/4ne98x/bt21fkNFj84he/sH/4h3+wv/u7v7NnnnnGZs2a5QLPyy+/bCdPnvTjf//739uGDRuKnPvAAw/Y+vXri2xj5Qc/+IFzjO64UQbf/OY37Ve/+pX3v//7v7fk5GT7l3/5l9g29nHMyJEjo7fzZUSdn/3sZzERjmf59re/Xawg1q1bt9hchzmP//zGN75hixYtuuo+2iACIiACIiACInBzCazP2mf31expP3uhrf21Xn/v33+iuT3z0RAXNRA2Qk+Zsyo2uHbJc+3JhgPt6InThihRs/M437dsY7a93CLZl9dm5trj9QfEfn+YnbHFpizaEOsIIT9+trWfH90+Z/mW2H2qfDTEuC+/Z//y1Y52+ux5251f6L1+7ynWdcwnsXV+f+e4P9VMsulLN9mKzbvt5y+1twfe7+39J8+1sbxDxyxl7mq//v99vVPsPut27LXfVuti67Zf/ccprtW43zQbk7bG6iZNip2jhcpDQGJI5ZnLcn+Ssr5IE41BtAfGo6SvICD0n7DQRRCiOl5tcjkNBO8PvDVIF0GIoIRu24EzDV8M0lXYhikp4gFiBKIEfhsIFKE8LmV6uT4dc1GqwLDsYghK9bkLXt1l8idr/XyqsFDql7QWDEmJwkDQwN+DSI8ghAQxBJGEUsH8oMdLBKHnwoVLMca8VBOJQgneQRMXexTHR0mT/XrEbnDtU2fOufcH1WOIKEFMwSuFZba93GiwK+oIH6nz13tqDlEo3JuIF1J1KAHMWHluqvAgmpSllXUODx8+bK+88spVnZflv/zlL77917/+tX9u3brVh9K3b1978MEH7V//9V/tN7/5jT3++BP+ok1UxT333OPHrFu3zv70pz+VOPR/+7d/s6iA0bt37yJiCJEG3CP0//k//6f9/Oc/j62H7eETgYE5io9MIXoBMSR+O+scHxrzx3hHjx4dNvnn8OHD7ZFHHilyLDt27tzpAgFCQbR17NjRx5mTk2NRMQTOiAL/9V//ZUOGDPHzH374Ybvvvvu8Iw7dfffdsfWsrCy/fng+PkvDgLEwdzTGiOBEZEfVqlWjw7QPP/ywWDHk+eeft5SUlCLHfvTRR9aiRYsi20q7wndDYkhpaek4ERABERABEahYAqu25ljVtqNiN0FA+OzceXuq0SCr1na0dRk9zzqlpNudL7aLHcPCsJnL7flmw3zbKx+PsE/W7LAghvC79MN1+tiO3AOxc+56uYM16jvVmg+aWWJv0CfVRY9w0uHjp6x2t4mWvnq7b0eseLXlSO+/f6urCzlhveDwCT/t0LFT9lKLZEtftc0a9p3qqfZEjb/QfLiLIffX7OnHRcUQNmzalW9/rtXLsvYe9PtxT3r75DQXeFjuPnZBLAomjFGfiU9AYkjiz2GFPUFZX6R37j3oURBEayBKIGLguUE0BGIEL/ofJU2ylBkZhqfG1l15nuKCOSodf5GNO/Z6hASCCtc4duqMixKIG6TXkD6D/wdiCwICfWL6WmvRd6rfK4TqYYpKOgxVYmhEipCq0nHoHGs7aKYRwcHLL9elE+FB4xO/EfbTLh9z3qM9fMOVf3htRlghwoOyuIgXKzftdrEjehwiECIOwkq0ETXCmLkOBrGkFPH867fl+jj7jP3EU2d25xUanXK7VJeBQVlaWeeQtBOiIZYvX16kIwx07dq1yDYiQqLtscces6VLl3p0AJEbiCVBDKlTp44NHTrUDyd6g0iK0BE1iBoJ63z+r//1v/wlnmWiTaKNsf3Hf/xHLOIiui+6fPDgQbvrrruKdESG//bf/pvxGb8vpNwgVCB41KpVK3q52HK1atUM4YLr0xBSEHuWLFniY2Y5RJOwn/GzLyqGwODtt9/2KIunn37axo0b52lIiCZ05oBjwnpI1QmDKC0Djg9iSMOGDV3YQAxh2x//+MdYR8SJjwxBgPn+978fS5EJ9ybt5lvf+pbBKTQifogGKqnXr1/fD5UYEojpUwREQAREQAS+egKIIUSFhJf//3ypvQ9q3Lx11mPcAl/+NGufPd14sC/zezHrNH7XZn3DzjxPM0ldvMGjSojeIBKE3+FDQwwJv6OzrX7vVI/eCPv5PHrydBExhG1EgyC8EBkSba2GzimSkhP2hXtkbNrtYki/yUs9UuR6Ygjn87s6PKKCzRutU+ye6j1i2/ZfEV3C/fSZ+AQkhiT+HFbYE5T1RfrsufMuBvgPxyvpJKfPnHPTT176iYrYV3DkcvTGlVQWUj845syZ8x6FgWhBjiEqbnzj+vkHj9r+Q8euRFic9R+sXDcn77J5ahAdqBKzI6fARReuw3Z8PziOUr3cp7jGD3WiRYgIuV7jhzzjJGoE4Ya0G86PNrxTPFolbjvb9uRf9t7AnLWg8IRfi2gSxsd/CGyncU3+MyCyBOGmLK2sc4ggQGpDfMNng/QK2qBBg2zTpk2+jI8IIgidF2zOJV2EdVJqEENI7yC9JF48CfeYMWOGPfnkk2HVP+MjQ8JOokd4QScqIj4Fg/VmzZqFQ6/6JCLh/fff98gQIiNI+4lva9eu9bEieBC1UVJv166dH4cogd/Jo48+6mLH//gf/8OX27Zta23atDEiQ0KLiiFhW1nSZMI5ZWXAvCCm/OhHPzJ8QRBDSN85ceJErCNiRMUQBJ5f/vKXNmrU5b8Wcc+o30mrVq3sd7/7XczXBL8UBJ+SekZGhg9fYkiYRX2KgAiIgAiIwFdPgJd/oixaDJ7lPUSAbM7Ot3c7jvUBIooEzw5+PyYVBYGCxu+lpNY8+mG/Ip20E6IqQiP9JfyOToQH+3lfiDbWZy7b7Jv4Pbj5oFk+NoSPIIZw3z6TFrs480abUb48ccHldGOiO0iLYYylFUOmLdlozzYZ6j2IPNExZWzKjnGIbtdy5SEgMaTyzGW5P0lZX6TLfQC64JcmUNY5RAz5x3/8RyM9InTEmPbt2xsv+EQA8HIdTD9ZRxjhJZiXY0QBIhrYhtiAGIJgglARFYo4n9QMOmk3eJKEdT5JF4l6hgCCF3TSQ/Cw4Jj4RgTGO++8E785tk7aCX4fpMmQMoLHSXwjmiUtLc3Onz/v0R1PPfWU9e/f35eJ9gidNBqEkKh/SKNGjfzamzdf+Y/86FGPvCDChONLEkPgxDkchwBB/9rXvubpNSxHn/VGGDBfRHkwB4gWiCGIPJ07d4512AQxhHl69tlnPcoj8OnUqZPVqFEjrPrnG2+84fMdDFF5RrjGdyJJQpMYEkjoUwREQAREQAS+egLFpckwKoSJ//d2N/fJe6LhQJu6ZGNssBiOkgZDWgxiSBAqYgeY2YjZK2NiyNbd++3P7/WKdVJxEF2i26LLeJmQqjNkeob/wZQ/FHIP7oUwMnL2qiI96jMyYf6nniZTWjGEVBzMU0m3WbAuy+8XvX7aysyYD0r0+bRceQhIDKk8c1nuT1LWF+lyH4Au+KUJlHUOScv47ne/674ORFJgtEnDEBRxBM+MeBGBl2vSJogIqV27ttWrV8/Gjx9fJE2GF3oiSkLDdHTixIlGlRrOZTm+4zkSGpEJ+F0QoUJKCak1vJxHO6ktJYkhVHhBbOBFPxiovvbaa9esDoPwQERL1PQ1jCf+k8o3pM7AC2EHcYjGuR988IGnlMSLIaTZIHZwD7iSdvKTn/zEeO5Q/YXnI8KEdqMMEENopCrh78J8/fa3vzWq/zDXiCIsb9++3Y/j/vjDBJGDqBLSdoIA5gcRbXXhgkcAkRZEw9cFtlFfE0SX5557LpzifjLyDInh0IIIiIAIiIAIfKUEEEPw0RgwZZn3EBnCoPDrwED0p8+3dR+86EBDpDKf//upFoZvSLRjzBoiQxBWMC+lD56W4REkVLEJ22p0Gmcth8yJrVO1Bd8RhAr6waMnPdKD9BsiSvgM+8Inx4dG5HYQQ/pMWlKqNJlaXca7GEKaDZEwmLt2HjXPBR+MYNUqLwGJIZV3br/0k5X1RfpL37AUF8DTg7QUKsiQThLfSI8hnYY0FDo/1OhhPXyGnMJwPn/V5gf6ydNn3R+EEDvuE016uXDFqTpco7hPwvpKSsEJ97qZn2WdQ6IdeJkNDaGCdujQIX8hpvJIenp62G2kuBBxQDTJ3LlzvRNBQtRA1DOECjOkt0Qb2773ve+5yEI6RnxHwAiNqiakciBmILQQuYAvSbR36NChWDGEl3tSRHiZj4ohpLf88Ic/9KiMcJ/oJ8ahVKxB3Ijv8AiNa1apUsVWr17tHiDcBxEgiAl8t4jM+OlPf+riDUIJ/imIIAgVy5Z9UVqOiizwoxEtwv0RGWg3yiCIIdnZ2W5sixgSDFSJ+IA7Qgi+MMUJP7169YpFhfBMjI9npoVPlhkn34VoW7x4scSQKBAti4AIiIAIiMAtRAAxBOPQoTMyvAfPEIa4ckuO/eq1Tlav15SrRrwtp8CaDpjuvzsT6RFforfn+IUxMSScTMr3b6p2MSI/QiMq40dVWlrhsaJVAElZ+UudvkU6Qs0Pq7T0McXvi6a49JqwyBauy3LPEExbKeN7Pc+QIIaEcWGwynsBESqMWa3yEpAYUnnn9ks/WVlfpL/0DUu4AKVs8QrJzN5vG3fscwNWKq3MXrLRt7Gdvm33fvcbWbFxp/VISfeOaeqSdVlucNp//CKj9xw1z8bNuVxaK9wSYWPOsk02Y+F6FzMmzVvrlWIweg12H3h2TJ631q8RrhX9pGQwffmGneGyX/lnWedw7NixVr16dR83L75EDoQW0mDCOp+86NOpBpOamuqdaA9etqNiCMcSzbF//34/nXQcBAaiJSjVS0pMfP/nf/7n6K1iy4ghRC5Q6SXaGzRocJUYghDCMyDy0KJiCOsYviJKhKiI2E3wuDlxwsfLmKOd46OGpsOGDTMMQkPZWa5Bmg0GqTwb0SJEgOBzQoQMXDgWbvGeIUSjIKQgkFCZp0ePHtEhxZbLwiCIIfiFUPEnKoYQnYLAdeedd7qYE7vBlQUEK/hF04EQukaMGBF/qMSQq4hogwiIgAiIgAjc2gSKS5PJ2X/Yqx0iXiBUYIYa34gawasDwYCytWPT1xbp73WdcJUYwnXfaj/GPUcoi8s6ZXyDUWv8PcI648CzBNNVokQwc6VqDL59lN/NPXAkHOrLD9buHYsMwRyWqjbcF/PTkqrJBDEE8YMWxBCWf/dmV/+djT+YRiNQYjfVQkITkBiS0NNXsYMv64t0RY0GwyUq0VBiFhGkygd97aWGg7xEbtNeU7ysLZ+UoaUUL71+lwm+vfWA6V5yt2rz4ZaUku5CSIOuE710bxgvxqcIGJzDuZS+pQJMg64TbNGaHf4fAi/RmKGyHzGlpF699UhLmbEiXPor/yzrHCJkUDWGtBhKqJL6QZs9e7Z94xvfsBdeeMHXBw8eXCTFhBd+zqW/+OKLRcQQogMwRMXrg/bJJ594BMWYMWOKvJj7zsg/IUUnsskXEQIQUUgfiXZKAkfTZA4cOOBVafAACS1eDGE7aTelqU4TrhFfPjczM9PFjagYwrE8N9EYIXoiPk2GY+LFELYhlsAawaekVloGnI8YAn94IhhFxRD2ww2/k+La66+/7p4p0X0IKES5UKY42kjzQWwh2iZ0hBTMaEOTZ0ggoU8REAEREAER+GoJ8Ps1BqL4f3Qb84lhSHrHY00NMYFIDdbxC6GaSjSimvQW0lUQBhBD/k+V1tZ/ytIiHfEhpMnEPyWeI70nLnbjVcxXidworq3NzLUmA6bbL17p4Gaq4RjMXRFEGFfUL4T9pLZQQYZGeg7msESi8IdVWoeRl38njC+tixiCHwmRJDT2U66Xc6kosyYz1yYtXG8DU7+I5vUD9U/CE5AYkvBTWHEPUNYX6YoaCT/ASFkhKoQStA9X725TF6y3pZ9mxTrRH0SGZO87ZNMXbrDkaRk2YOIim710o5elfa3pUC9N22/8Qhc9mvSc7MPlRZVytR2HznZxhQgR/nOgukufMQusWotko2QwlV0otztgwiLrN27hVZ0IEcr4Ispw71ullWUOiQTBGwLfECIuWrRo4WaYeH0QDUGlFSIdqBJDOdhoese///u/e7URKo6QdhGNDJk+fbq1bt3ajVXhgkBAygeNF3MEAcSX+H6tyJCoqWhgHW+gytwS+RFtxYkh7A/VTqLHFrdM6gpmo8W1eDEk/pjixBCutX79ZRd0+A8cONBTTRAniJzB1yQalRGuiRhSGgYcjxhCVE0CxLYAACAASURBVAjRKjSYM3/4hBCFgmj00EMPuadIEG44jnQYShuvWrXKI34QVBgXlWhIn0L4KmvjmRCJ1ERABERABERABL5aAks37LTH6vW3+r2nuFkplVNIeaFRXva5psNc8EBgqNZ2dGywVJ6hogsNMaQ4A1XEkeLEEKIr8A1BTGk7fK5HnZCmg7jB/UMjiuPlFslu3IpwQhoP52JounPfQd9+b/UkS5mzKlaVhvcFojiIGOH3GYSNjinpLvR8eOX3/nD9eDGEe2Hiuiuv0N5uP8YFHqJKMHHFlLVxv2lWq8s42557IFxCn5WEgMSQSjKRFfEYZXmRroj7R69J+d2Fa7bbK40H21N1+ljNtqM8SoRIkTodxxpiBz4ihUdPufgxLHWZvdR4sC1Ytc07xyOgTF+0wToMmW3Nek/xkDfK+LbqN91FjLVbcyyv4Kh3yvUiriCavNNqhIsua7fu8WtMTF9r0T4pfa2lzl9vG7fv9esmqhgyf/78Iv4O8MebgxdlqqjQ8NnA5JOXaCqThEYKCMaqdF6go2JIOKa4T17M8fOIGqGG5dKKIZiXcs5dd91llHy9VitJDLnWOaSzIB4QJcNzIkQU18oihuArAle8VjgPvnDAIBZxgsZYMVZFoELoibZ4MeRaDEKaTDifaBrmD78Q5pNG2g/ljUmTCg2hhmpA+KHAF0ELHxVEsGC0Gy23G86L/0SEeeaZZ9yLhoiXkkosx5+ndREQAREQAREQgZtLADEE81GiQ0I0CCLDSy2SLW3VNhceEDL4PZkWL4Ys2bDT3mw32sUEzFdpRGg832yYR1sgONRNmuwmqL7zyu87qYs32B/e6W7xogXH4Pfx6zc62xP1B1jLIbNdDGE75qmIFHh6YKqKbwjjpDEGSgPzOxytbtIkj1wZPnOFG70yjmjD4wSxhUYUCCauobH8UJ0+VrXtqLBJn5WIgMSQSjSZ5f0ot4oYgmkqURf1uoy3v9bqaZ2GzbGRM1bY2NmrvI+YluHRIogVRHZMX7jehk5ZaqTGzFueaXOWbbbXmw6z3mM+sb7jFlijHpNc/CC8b/HaHX49PhFG2M9xeJTwQzEzO9/FE9JmiCCZm7HZ2g6caZ2Hz7Uuw+dax6Fz3I8kLWOzbc8psOZ9UhM2MoTvD1Veoi1qFBrdHqIMwraoqSrnUF6X6icrVlw7ZYhjSQsprpUUQUCp1niPDyqUEMEQFWiKuybbQqWXkvYXt53oDASLqFdI/HHcOz4SJXoMJXQRPmj850x6DYzCOhEzxTV8O/AvibayMCDFKdrCLwbRbSwTmUIvbaNkcmkbkUDMT3je0p6n40RABERABERABG4eAYxHaUHsCHdGGAmpJgggobFt3fa9YdV/d0ZMwA8k2vD6IPL6Wo3fT4jqiG879x1yI9P47WE96hkSRAwiS6KNe1PkgO0bd+Vd83rR88IyzxmeP2zTZ+UgIDGkcsxjhTzFrSKGEBXSa/Q8e6PZMHu6bh9r2G2itR04y4UIxIiW/abZn9/qaqs358TEkOGpy1wQIaVlYtoae6HBAKvbaZy9336M1esywc1V+aGIwLEnv9CjQdZl7rE3mg/zSBJEkKzcA/6fQfbeg3b42OXSXhPS1thbHycbkScjZ2R4ukztDmNsfNpq25FzwFr0nZrQYkiFfJF0UREQAREQAREQAREQAREQARG4xQhIDLnFJuRWGs6tIoag8pLuQrTHa02GupdHSE0hPYXKMFExhHQYjkW4wEAVYaRxj0k2cnqG1e4w1iu+dB+Z5mkwKMWUzN2Utc+jRYg6Qb3m+u0Hz3JBJPwlnXK7Y2evtPfbj75cuSa/0FZuyrZ6Xca5aSqRIRJDbqVvsMYiAiIgAiIgAiIgAiIgAiIgAsUTkBhSPBdtNbNbRQxhMhAtVmzMtlebDLFa7UZ5qgt+HnSqvvypapdYZAhCBkamRGy0GTDdRs9a6aktRIAQGfJigwEujJw8fcZD3vAJ6ZqcZh92HucVY0iPwaz1435T/dqIIJcufW58Eg3ySI0ke7d1itVqN9rebDHcI0WodrPDxZDETpPRF18EREAEREAEREAEREAEREAEbgcCEkNuh1m+wWe8lcQQCmKRBvN2yxGWlrHFduYedI+ONVty3BPkz293i4khUz751EvfDpuy1PARoRwuniEIJ7OXbHLjVcrrInggshAlQhoN5qyIKM37TLUG3SZatRbD7bl6/a3vuIV25PhpN5LCgwSvEMayfluucX+iVibNW2vj5672qBG8TG6VdivN4a3CROMQAREQAREQAREQAREQAREQAYkh+g6USOBWe5HevDPP/UH4xEekoPC4p8PgG4KPSPD4mJuxxYWJnLzCy9VlFm3w9BXSZthGiVxSZhAzEEPSl2+xgRMXu9cHogZpNrOXbLSZizYYER+kzlClBsPVoydOWU5+oXuJEEFy4tRZ9xxpN2imteo/zc1UEVlulXarzeGtwkXjEAEREAEREAEREAEREAERuL0JSAy5vef/mk9/q71IY2Kamb3fjp88Y1SYIW0F01KiM7buyncH67PnztuhIyddsDh3/qILGAWFJ7wqDOcjfpw+c97FjcKjJz39BcdsfEIQPKhGg7Eq20ijuXzPfDv12bkSWXHsmi27fRyYrcY7cJd44k3YcavN4U14ZN1CBERABERABERABERABERABK5LQGLIdRHdvgfoRTrx515zmPhzqCcQAREQAREQAREQAREQAREofwISQ8qfaaW5Ii/S6onPoNJ8IfUgIiACIiACIiACIiACIiACIlBOBCSGlBNIXUYEREAEREAEREAEREAEREAEREAERCAxCEgMSYx50ihFQAREQAREQAREQAREQAREQAREQATKiYDEkHICqcuIgAiIgAiIgAiIgAiIgAiIgAiIgAgkBgGJIYkxTxqlCIiACIiACIiACIiACIiACIiACIhAORGQGFJOIHUZERABERABERABERABERABERABERCBxCAgMSQx5kmjFAEREAEREAEREAEREAEREAEREAERKCcCEkPKCaQuIwIiIAIiIAIiIAIiIAIiIAIiIAIikBgEJIYkxjxplCIgAiIgAiIgAiIgAiIgAiIgAiIgAuVEQGJIOYHUZURABERABERABERABERABERABERABBKDgMSQxJgnjVIEREAEREAEREAEREAEREAEREAERKCcCEgMKSeQuowIiIAIiIAIiIAIiIAIiIAIiIAIiEBiEJAYkhjzpFGKgAiIgAiIgAiIgAiIgAiIgAiIgAiUEwGJIeUEUpcRAREQAREQAREQAREQAREQAREQARFIDAISQxJjnjRKERABERABERABERABERABERABERCBciIgMaScQOoyIiACIiACIiACIiACIiACIiACIiACiUFAYkhizNNXMsp9+QWmLgb6Dug7oO+AvgP6Dug7oO+AvgP6Dug7oO9AwVfyTqabVhwBiSEVx1ZXFgEREAEREAEREAEREAEREAEREAERuAUJSAy5BSdFQxIBERABERABERABERABERABERABEag4AhJDKo6triwCIiACIiACIiACIiACIiACIiACInALEpAYcgtOioYkAiIgAiIgAiIgAiIgAiIgAiIgAiJQcQQkhlQcW11ZBERABERABERABERABERABERABETgFiQgMeQWnBQNSQREQAREQAREQAREQAREQAREQAREoOIISAypOLa6sgiIgAiIgAiIgAiIgAiIgAiIgAiIwC1IQGLILTgpGpIIiIAIiIAIiIAIiIAIiIAIiIAIiEDFEZAYUnFsdWUREAEREAEREAEREAEREAEREAEREIFbkIDEkFtwUjQkERABERABERABERABERABERABERCBiiMgMaTi2OrKIiACIiACIiACIiACIiACIiACIiACtyABiSG34KRoSCIgAiIgAiIgAiIgAiIgAiIgAiIgAhVHQGJIxbHVlUVABERABERABERABERABERABERABG5BAhJDbsFJ0ZBEQAREQAREQAREQAREQAREQAREQAQqjoDEkIpjqyuLgAiIgAiIgAiIgAiIgAiIgAiIgAjcggQkhtyCk3KrDGlffoGpJz6DW+X7pHGIgAiIgAiIgAiIgAiIgAiIwK1CQGLIrTITt+A4EELUEpuA5jCx50+jFwEREAEREAEREAEREAERqBgCEkMqhmuluKpepBN/GjWHiT+HegIREAEREAEREAEREAEREIHyJyAxpPyZVpor6kU68adSc5j4c6gnEAEREAEREAEREAEREAERKH8CEkPKn2mluaJepBN/KjWHiT+HegIREAEREAEREAEREAEREIHyJyAxpPyZVpor6kU68adSc5j4c6gnEAEREAEREAEREAEREAERKH8CEkPKn2mluaJepBN/KjWHiT+HegIREAEREAEREAEREAEREIHyJyAxpPyZVpor3siL9KVLl+z0mXN28vQZu3Dx4nVZnDt/0S5cvGSff37dQ8v1gPMXLtqJU2fszNnzdunStW/OM509f8HHWZpB8Cw808nTZ68659Lnn9upz875fUvzzGGcfHJuWduNzGFZ76HjRUAEREAEREAEREAEREAERCDRCEgMSbQZu4njvd6LdHhRR1QIff+hY7Zw9TabPG+t5eQXxraH/YgPnHfuwkUXBNZsybHNO/Ps+Mkzdu78Bbt48bKYcvTEaSs8esoKCo9b3sGjLiBwHttZzyu4Tj941I9FxKCH+4fP3XmFNjF9rS1cs90OHD5x1X4XHy59bmfOnDeeadmnWbZz70E7e+7y9RBxTn121o6eOGWHjpy0/INHfbzsv3DhouUVHLHU+et8XxAxPnch5KylZWyx1ZtzrhJKipta7j0+bY3tO3DEDnCfQzzXKeNapWnXm8PSXEPHiIAIiIAIiIAIiIAIiIAIiEBlIyAxpLLNaDk+z/VepA8ePWkrN2Xbio1f9DnLNlndTmOtygf9bGLamiL7OG5HzgHjvNz9h23rrnx76+Nka9Z7iq3atNt25h50AWP9tlybvzLTxYThqcus79gFlpVzwPdNW7jeuiWnWdKoedZr9DzrOfryJ8u+Pmqe9Rw1z3qP+cRmLdnoAsXegiNXjWP83NX2VJ0+Vq/LeJubsfmq/QcOn3SBhjFOXbDeXvloiA2YsMi25xRYVu4BFz8QchA2JqavsUETF9uoWStc/CAiZMGqbfZIjR62LnOPCzmnzpyzI8dP+fnvtBppHYfOcRHm+MnTLqoQSVJcW7t1j/31vV6WsX6nCzLdR6bZ4rU77Oy586USRK43h8XdM7pt586d1rRp0+imYpf37dtn77zzTrH72Mh1pkyZHNt/+vRpO3DgwHV7YWFh7Jz4hYoaG/fp3r277d27N/6W1rJlS/vss8+u2l7chjfffNM3L1682NasWVPcIdomAiIgAiIgAiIgAl8JAf5YuO/Q0at6fuHxa44nc3eB/1GTg7gGfxyk7cortOEzV8TO3bP/cGw5fmHxp1k2MHVZ/OYi6+EPf9zj4yGzi+ybvGi9Lfo0q8g2VnIPHLlqW3EbksYtjG0+cuKU8UzFtdWZe2xs+lofK+NQq3wEJIZUvjkttye63os0Aka1FsPttSZDi3SEg1caD7FX47ZzXNfkNFu+Yae16j/dqjYf7oLEU3X7+rG12o32F/53W4+0x9/vbdVaJFuDbhOta/JcFxGICGnWO9Xuq9bFnqvX3179aMiVPtRe/ehyf7nRIHuxwQB7vekwSxqVbvwgnpS+tsj4GAfHv9J4sIsc8eNnfcm6LFu5MdvebjnCn+Xx93vZ8/X7+5hqtR3lAsnrTYf6OGq2HWXN+6Ta6Fkr/X6IL+PmrLZ73uhsc5dtdtEnZcYKF0A+7jvNHqvV0+/dYchs6zx8ro2YnuHRLsVNHBEkD73b3cezI6fAuo9Mt+ptUmzdtlwjOuV67XpzGD0/OzvbGjVqVKR/+OGH9rd/+7dWv379Its5Licnx/Ly8qxVq1be//mf/9kaNGjgy5MmTbK+ffvan/70J7v33nvtmWeesc6dOxspR7QOHTrYt7/9bfv5z39+zf7444/78TdzbNzwgQcesPXr1/u9o//84Ac/sGPHjkU3lbj8T//0T75v8+bNxnm5ubklHqsdIiACIiACIiACInAzCazP2mf31expP3uhrf21Xn/v33+iuT3z0RAXNRA2Qk+Zsyo2tHbJc+3JhgP9j5SIEjU7j/N9yzZm28stkn15bWauPV5/QOwPd7MzttiURRtiHSHkx8+2Ns6Pbp+zfEvsPlU+GmLcF7Hll692tNNnz9vu/ELv9XtPsa5jPomtE9HNcX+qmWTTl26yFZt3289fam8PvN/b+0+ea2N5h45ZytzVfv3/+3qn2H3W7dhrv63WxdZtv/qPYFyrcb9pNiZtjdVNmhQ7RwuVh4DEkMozl+X+JNd7kcYbJCev0GYv3eTRGu0Hz/YXfqIeop2XfkQQoipIcykoPGFEeCA6ED0ycsYK+6DTOBcviLpAXOD4/YeOevTE4WOnPD2F1BiiSB6q3t1FEyI2ECA4h337Co54REar/tMsLWOzp5WQtkKkxs7cAzZsylLrNGyOMZ7o+FhmGxEnMxdvsN37Co1Ijux9hS5WMDbGS8TJ++1H29jZq2z6wvU+5nnLMz2Vh1QZUnBIl+kxMt1eaDDA/vhaJ3up4SAjuoXIkbYDZ1qTnlM80uOlRoOsdf/p1n7wLBsyeYnfa82WPb7Meuic86eqXaxFn6ke+dKy3zS/JmMh+oT0omu1681h9NxDhw7ZhAkTSt2J2qD36NHDxY3k5GSj16lTx4iGeOWVVwxRpLiGGJKUlFTcLt82e/Zsv3Y44GaN7fDhw7Zo0SL7r//6LxsyZIhHtDz88MN23333ef/6179ud999d2w9K+vqv0qEMQcxhPXp06cbwpKaCIiACIiACIiACNwqBFZtzbGqbUfFhoOA8Nm58/ZUo0FWre1o6zJ6nnVKSbc7X2wXO4aFYTOX2/PNhvm2Vz4eYZ+s2WFBDEGYeLhOH9uReyB2zl0vd7BGfada80EzS+wN+qS66BFOOnz8lNXuNtHSV2/37YgVr7Yc6f33b3V1ISesFxw+4acdOnbKXmqRbOmrtlnDvlP9j5Skmb/QfLiLIffX7OnHRcUQNmzalW9/rtXLsvYe9PtxT3r75DQXeFjuPnZBLAomjFGfiU9AYkjiz2GFPUFpXqQxA52QtsYjMUg5QWyI9jYDpru4QbRI4dGTrhCTJrNw9XaPCuGlf+CERUaUxcgZGbZt934jjQQxBJ+M0Hnp35Nf6JEhf6nRwzKz863P2E+sTsexNmXeOk+9yd570NNjarRJ8bSXaOQEIkzz3qmelvNx36lFxsh42YYIM2rmCv9Bh4jC9RgbwkZ6xhZDiCCaBRECPxDuzfYwRj7xOCF1iHSWu1/vZIMmLfZUGTxKNmzf6+cSudKoxyRbuzXHNmXt85Qh/FFmLNpgdTqMifU3WyTbE7V7+3X+Wqunj50xVm+dYnU6jrHBk5e4uHStL0Bp5jD+fNJDfvrTn9qTTz55Vf/Zz37mESHRc9LT0134YNuSJUvs6aef9t2IIXPmzIkeGlsOYgipLr/97W+LXJOIk29961ueQhM74cpCRY9t48aN9vbbb3vUCs8xbtw427Nnj4+Pcd1xxx3GMSzTz507599pUoTi+9///d9ftY1jLpbCWDj+ubUuAiIgAiIgAiIgAuVNADGEqJDw8v+fL7X3W4ybt856jFvgy59m7bOnGw/2ZVJXWKfh/8f6hp15nmaSuniDR5UQvUEkyLFTX/zBDjEkpNNwbv3eqR694Re68s/Rk6eLiCFsJhoE4YXIkGhrNXROkZScsC/cI2PTbhdD+k1e6pEi1xNDOJ+UdXhEBZs3WqfYPdV7xLbtvyK6hPvpM/EJSAxJ/DmssCe43os0Fp5EXYybu9rFDKIcxsxaWaQPnbLU6neZYC83GuxRHqRJbNyx16MkEBYQFF5tMsSIlCCiY/K8dS44kJ5CSkiI2MDolAgQ0mQQQ4gywVsEsYUIk+RpGdZ52BxPa+k/fqGPK1SJwWuU6BKiMt5pOcK9P+LHiR/Ie+1G28jpGR7hgfiCyIJIglCDCEGUB2lBRJKMnb3SxYnGSZNcuGGcPVLSLXNXvgsURMuQJoOZ7N79h23Rmh2GTwlRIogrtTuM8XVMXBF24EhKD0atdHxBeA5SaogweaRGkg1LXeZiCvvxECFtBkPaa7XrzWFx5+7evdvuuusuT+sgtSPaf/WrX3m0RDhv5cqVLoT84z/+o3/eeeed9oc//ME6duzo64888oi9++67sU7EBy2IISwTjfKd73zHFiy4/J8uIkxJUSM3Y2yMqaxpMvPmzbPQR40aZT/+8Y/tG9/4hn+yHvbxGXJgHYT+EQEREAEREAEREIGviAAv/0RZtBg8y3uIANmcnW/vdhzro0IUCZ4d/HGRVBQEChp/PCS15tEP+xXppJ0QVREa6S/BH48ID/YjpkQb6zOXbfZNCCPNB83ysSF8BDGE+/aZtNjFmTfajPLliQsupzUT3UFaDGMsrRgybclGe7bJUO9B5ImOKWNTdoxDdLuWKw8BiSGVZy7L/Umu9yLNDzXSQzAqJZ2jRZ9Ua9VvWpGORwYpHm0HzfJUEF7es3IKPAoEAaNa8+Hun5GUMs9SZq7wiBFEEvw5iIBACMD/A98PokaCGEKkBfdHIEGQeKRmkt1XrauLI0RnRBsRIvh4IHgwPgSOq8c51doNmuleIAePnPAfpIgOjJH+WM2eVrfTOBcz8PgYn7baRRyEEqJeGGetdqPcD4V7kUpz9+udrUdKmqfUeHrPu92/8DlpMsTwNyHlh2MxUg0N8YaKMaTCIIJw7Yerd7c+Yxd4Gk6oThOOv9bn9eawuHNJSXn99ddL7BifhkaazLJly7wT4TFgwABf3rJli4shzZo181SZ733ve9avXz/btm2bnxoVQ9iwbt06++53v2vVqlUzok9Kip64GWNjPIghmJ7i91GrVi375S9/6f1rX/uae5ywXlLaC9Ef48ePN9JkEHqCkWpgpk8REAEREAEREAERuBUIFJcmw7gQJv7f292M3zmfaDjQpi7ZGBsuhqOkwZAWgxgShIrYAWY2YvbKmBiydfd++/N7vWKdVBxEl+i26DJeJqTqDJmeYaTkk7rOPbgXwsjI2auK9KjPyIT5n3qaTGnFEFJxME8l3WbBuiy/X/T6aSszYz4o0efTcuUhIDGk8sxluT/J9V6kSe0geoG0FiIu3m01stjOfiI9SO2gugqeHP3GLfSoD6IkqnzYz5r0nOxGqRiGvts6xfqOW+jGo0RX4OOByovIEC+GIIoQUULlFsQQhBG8PqKNCjYIIIzhnZbFjzGMHQEG0QFfE1JYiPigP1yjh5unEv3Saegcjxpp0HWCpS/f4hEe91bt4vcllYfjMYX942sd7dkP+7nwQyoRES2kwhAJQspMv/EL7YF3utnqzbv9BzxjJmqAEsPj5qxyfxKMWfEMadl/mkeoEFmCN0lp2/XmMP46Y8eOtRo1aly3cxyNyiozZ870TtRIly5dfHn79u0uhoQ0GfYR1RFavBjC9hkzZtjf/M3f2FtvvRUOK/J5s8Z28OBBFz6IVhk+fLjhI/KTn/zEEHjy8/O9w6hNmzZFxscKx/CszCNiCJ/4jxRnxnrVydogAiIgAiIgAiIgAjeRAGIIPhoDpizzHiJDGAJ+HRiI/vT5ti5IRIeFMEHj838/1cLwDYl2jFlDZAjCCual9MHTMjyChCo2YVuNTuOs5ZA5sXWqtuA7glBBJ70ecYP0GyJK+Az7wifHh0Z6ThBD+kxaUqo0mVpdxrsYQpoNkTCYu3YeNc8FH4xg1SovAYkhlXduv/STXe9FOv/QUWs9YLqnfZDCQcWUwZOWFOls5wWeFJZn6/X39A/SRkifwReEii54aDTtNcUNTCm/iyDBfjw7EEMQHPAmuWygejlNhigRhJV2g2Z5Cg4CBukrRJpwLUrihhJYCA9cE58OxkKkR/w42cY+xBSeCTNWRItQxpd0FcSULsPnuh8IKTQIOEs/zbLUBetdsNh/6JgVHjvlkR74k+AZgvEqwgrjJTWG62/csc/TXaiag9hBdA0pPaQQUX6XKBiiYygPjHiCYIJhK5VnSNeBDZV1oj/4S5rs681h/Hm85Ldu3doWLlxYYmc/x9GIDKlZs6Z3xAN8NljHMBTj0bVr1/px1xNDEEK++c1vukfHL37xC2vRokX80PyeFT22oUOHesoOYyHiJbRu3bpZ27ZtfZVoEYQOnj3azp8/79VzEIdowUAVT5Xf/OY3RjlhNREQAREQAREQARG4VQgghmAcOnRGhvfgGcL4Vm7JsV+91snq9Zpy1XC35RRY0wHTXQwh0iO+RG/P8QtjYkg4Gf+P31TtYkR+hEZUxo+qtPTfn8M2PklZ+UudvkU6Qs0Pq7T0McXvi6a49JqwyBauy3LPEExbKeN7Pc+QIIaEMWCwitBDhApjVqu8BCSGVN65/dJPdr0XacQJIi5IE1m7dY+/vPPCzzY6XiFET+CVkTp/vT3zQV9Pg0EcwGcEAeLDzuMMw9MOQ2b5yz7mpESSkDJzLTGEaAqEEI5FcKGKCxEhGLK+hWiRPNd9OICwLjPXhYwkFN5Ps1yAaNB1YmycVIhp2G2i7yM1hbK/ufsPW/a+g9Zu8Cwf89N1+3glG8QQxsbYEVcwS42KIfzgRBSh0g1CDve+cOGiV33BRwTfkbYDZ3nKDeNE0OEchBs8Q4ZMXuoeKIwHMYYyxA++291FpM0786zbyDT3LWk7aKbvRyS6VrveHMafi8gxZcpkO3XqlKetIGiETqrL8ePHfX8QQzh//vz5ngrDcRMnTrSPP/7YL/vDH/4wVoa2JDEEE9IXX3zRBQjSUmikwuC5gfARbTdjbCdPIkxdusozhAgY9RL11wAAIABJREFUIjwQSBA2qKATbWfPnrXHHnvMSwuH7UEMYb1Tp052zz33SBAJcPQpAiIgAiIgAiLwlRMoLk0mZ/9h/70U8QKhAjPU+EbUCF4d/A5L2dqx6WuL9Pe6TrhKDOG6b7Uf454jlMVlnTK+wag1/h5hnXHgWYLpKlEimLlSNYYqMZTfzT1wJBzqyw/W7h2LDMEclqo23Bfz05KqyQQxBPGDFsQQln/3Zlf/3RB/v9L8ITI2GC0kBAGJIQkxTV/NIK/3Ih3EEHwzMEVtM3Cmv8hTRpZO9RUiPwZMXGSzFm/0dJgFqy4bobboO9XL6jbqMdEFEcQFzEmp7ELKCiVrixdDLpfWZT9pJogfmKkisBw4fMLFBVJwEBVIqyHlBEGCa/Yfv8jmr9rm0RVEkYRx4k/COOdmbLa+Yxd4ZAjCypJ1WVa9TYrtzD1oz9Xr72INESUIFXU7jfWUHaI8omIIaRGksaRlbImJIfik4AlCdAjCD/4jj7/f2wUbxk0+5JHjp/1ZGAciS2b2fjdHJW0IMYSx8EM4K+eAi06kF3VNnuvVa6717bjeHMafGwQHRAF8MaLtd7/7nYsbiCVRMeT++++35cuXu2iCWICJakFBgVdkCeeXJIYgEiCexEdN5OXluddG1DvkZo2NMRdnoLp161Y3Rf3LX/4SHss/EUo4vl69ekW2R8UQdjRo0MAjRzheTQREQAREQAREQAS+SgJ472Egiv9HtzGfGIakdzzW1BATiHRmHb8QqqmEKi2Ml/QW0lUQBhBD/k+V1tZ/ytIiHfEhpMnEPyOeI70nLnbjVcxXidworq3NzLUmA6bbL17p4Gaq4RjMXRFEGFfUL4T9pLZQQYZGeg7msESiBL+9DiMvm7rGl9ZFDMGPhEgSGvsp18u5VJRZk5lrkxaut4GpX0QN+4H6J+EJSAxJ+CmsuAe43ou0iyH9LntZELVAVAVmp0SH0CkNS6UX0mGo0oI3CCV1SS2p1W60rdmS40IIaS0sIyoQpVGvyzh/6Scy496qkTSZg0ddgLj/ra72fvsxHnVSr8sETz0h/YSOkIBYQeQHYgGeIlExhHsjwLzTakRsnC82GOjRLUSwYARLZAjPg1EqHiWIGAgmRKAwJgQYPEp4JiJIiALB14OIEP5jwBOFc4kM4bmycg96ugyeKU/W7u1VaF7+aIgLLIg/CB77Dhy1mYs2WPcRaS7qBOWZfQ9dEUNOnznv6TSk0pA+M3/ltiLGq8V9E643h/HnBMGBF/YHH3zQqAYTOutEjEyaNCkmhiAQUHmGRmRIRkaG9e3b14WMqPdHcWJI06ZNLSsr67r9zJnLHik3a2w8y9133x3z+bhw4YINHDjQo1UaNWrk1XJee+0127fvcpjn0qVLizVTjRdDuG7t2rVtx44dzkv/iIAIiIAIiIAIiMBXRWDphp32WL3+Vr/3FDcrpXIKKS80yss+13SY/16LwFCt7ejYMKk8Q0UXGmJIcQaqiCPFiSH8YQ/fEMSUtsPnetQJaTqIG9w/NKI4Xm6R7MatCCek8XAuhqY79x307fdWT7KUOatiVWkQPIjiIGKEP04ibHRMSXeh58Oek8Ol/TNeDOFemLjuyiu0t9uPcYGHqBJMXDFlbdxvmtXqMs62535RRKDIBbWSsAQkhiTs1FX8wK/3Is3LP4aiRDsgCuQfOuZRGkRS0PHtwPcCsQGR5L32o92UlHJZpNVQVpeIC6q88IML4eKNZsM8rYYX/pz8Qnu0RpKXpyV6gvK4w6YsdQEF0eOjpMne8e6IdrazTkoJ1yR6g3vhtUG0CCanmKqGcSLQIK68+tEQe7HhIBd18EPBlwOhg+ej8gtpLkR4TJm/zl5tMtSjUDB2nbV4gz1WM8lFDEryjpyRYS81GuxeKlt35rsZ7GtNh7lQM2fZJhdUMGfFowRRBgNYIlH4Ic8zotRTUYYGJ/xKSO8JZXQvXrzkRlask9JxrXa9OYw/NwgO8dtZJ1qkTp06Ln4gDtCmTZvmJqPDhg1zj4ydO3f6doSRUDmGDfFiyOjRo11wQHS4Xt+0aZNf82aMbe/evfbQQw8ZpYJ53l27dtmPfvQj90EJVXT4DxZj1TvuuMPNYn1wxfxTnBhSzGHaJAIiIAIiIAIiIAK3BAHEEMxHiQ4J0SCIDC+1SLa0VdtceEDICGb+8WLIkg077c12o11MwHyVRoTG882GebQFgkPdpMlughoemN+rUhdvsD+8093iRQuOwe/j1290tifqD7CWQ2a7GMJ2zFMRKfD0wFQV3xDGSWMMlAYOvyfXTZrkkSvDZ65wo1fGEW14nPB7OI0okOA7yDrLD9XpY1XbjoqeouVKQkBiSCWZyIp4jOu9SPNDg5d1xASWeYnnB0bovKwTVTF7yUabm7HFhRB+ePKDCVGB80gnQbCg/C0/UImkCBEWHINx6L4DRy6H4p2/YFSwQTgoTSdyBREFg1LSTBBnWPewvsg42b9q024XO0i/QQRh7KTYkHozZ9lmPx/BhnMRavAK4ZNjcvIKPVID/46z5877fYjcwO+DY9Zvy/W0H8oAUzKXc7g+JYDZt2bLbv9Phf8MQhhfmE9EGSrLIOKEaJGwrzSf15vD+GsgPOzfvz9+c2x9wYIFlpmZGVsPC6THkCoTGt4i0YaJKFElX6bdjLHx3eT5wlhZz87+4i8V0fEfO3bMTpw4Ed1UZBkvFTUREAEREAEREAERSBQCGI/SgtgRxo0wEn5H5ff10Ni2bvvesOrvA4gJ+IFEG14fvCdcq/E7F79rx7ed+w65kWn89rAe9QwJIgaRJdHGvfljLNs37sq75vWi54VlnjM8f9imz8pBQGJI5ZjHCnmK671IUwGFHzqXIxSuhDLEjYQXeEQCRIhoxAM/UEj74Nzww5FoCNRjrkvjhyLnXrh40cPd4i5d6lWuH8SN4n6Q+XOcu+D3in8W9lHfHAEjjIvR8VxcCwEjPCP7WedY/tPgWVgPjEK0Rxg460R5+LWuPHPYFz7ZR4kwPrlWWdv15rCs19PxIiACIiACIiACIiACIiACIlAZCEgMqQyzWEHPoBfpCgJ7Ey+rObyJsHUrERABERABERABERABERCBhCEgMSRhpurmD1Qv0jefeXnfUXNY3kR1PREQAREQAREQAREQAREQgcpAQGJIZZjFCnoGvUhXENibeFnN4U2ErVuJgAiIgAiIgAiIgAiIgAgkDAGJIQkzVTd/oHqRvvnMy/uOmsPyJqrriYAIiIAIiIAIiIAIiIAIVAYCEkMqwyxW0DPoRbqCwN7Ey2oObyJs3UoEREAEREAEREAEREAERCBhCEgMSZipuvkD1Yv0zWde3nfUHJY3UV1PBERABERABERABERABESgMhCQGFIZZrGCnoEXafXEZ1BBXw9dVgREQAREQAREQAREQAREQAQSloDEkISdOg1cBERABERABERABERABERABERABETgRghIDLkRajpHBERABERABERABERABERABERABEQgYQlIDEnYqdPARUAEREAEREAEREAEREAEREAEREAEboSAxJAboaZzREAEREAEREAEREAEREAEREAEREAEEpaAxJCEnToNXAREQAREQAREQAREQAREQAREQARE4EYISAy5EWo6RwREQAREQAREQAREQAREQAREQAREIGEJSAxJ2KnTwEVABERABERABERABERABERABERABG6EgMSQG6Gmc0RABERABERABERABERABERABERABBKWgMSQhJ06DVwEREAEREAEREAEREAEREAEREAEROBGCEgMuRFqOkcEREAEREAEREAEREAEREAEREAERCBhCUgMSdip08BFQAREQAREQAREQAREQAREQAREQARuhIDEkBuhpnNEQAREQAREQAREQAREQAREQAREQAQSloDEkISdOg1cBERABERABERABERABERABERABETgRghIDLkRajpHBERABERABERABERABERABERABEQgYQlIDEnYqdPARUAEREAEREAEREAEREAEREAEREAEboSAxJAboXabnLMvv8DUxUDfAX0H9B3Qd0DfAX0H9B3Qd0DfAX0H9B0ouE3eAm+fx5QYcvvMtZ5UBERABERABERABERABERABERABETAzCSG6GsgAiIgAiIgAiIgAiIgAiIgAiIgAiJwWxGQGHJbTbceVgREQAREQAREQAREQAREQAREQAREQGKIvgMiIAIiIAIiIAIiIAIiIAIiIAIiIAK3FQGJIbfVdOthRUAEREAEREAEREAEREAEREAEREAEJIboOyACIiACIiACIiACIiACIiACIiACInBbEZAYcltNtx5WBERABERABERABERABERABERABERAYoi+AyIgAiIgAiIgAiIgAiIgAiIgAiIgArcVAYkht9V062FFQAREQAREQAREQAREQAREQAREQAQkhug7IAIiIAIiIAIiIAIiIAIiIAIiIAIicFsRkBhyW023HlYEREAEREAEREAEREAEREAEREAEREBiiL4DIiACIiACIiACIiACIiACIiACIiACtxUBiSG31XTrYUVABERABERABERABERABERABERABCSG6DsgAiIgAiIgAiIgAiIgAiIgAiIgAiJwWxGQGHJbTbceVgREQAREQAREQAREQAREQAREQAREQGKIvgMlEtiXX2Dqic+gxAnWDhEQAREQAREQAREQAREQARG4TQlIDLlNJ740j40QopbYBDSHiT1/Gr0IiIAIiIAIiIAIiIAIiEDFEJAYUjFcK8VV9SKd+NOoOUz8OdQTiIAIiIAIiIAIiIAIiIAIlD8BiSHlz7TSXFEv0ok/lZrDxJ9DPYEIiIAIiIAIiIAIiIAIiED5E5AYUv5MK80V9SKd+FOpOUz8OdQTiIAIiIAIiIAIiIAIiIAIlD8BiSHlz7TSXPHLvEh/XgyFzz//3C59/rnx+WUa53/Za3B/xuLjKeVgGLU/w6Wi42etLNcp6Xbh+uXxbOEeX2YOwzX0KQIiIAIiIAIiIAIiIAIiIAKVjYDEkMo2o+X4PDfyIs2L/IWLl+zEqTN2/sLF2GjYnr33oG3csdf2FhyJbS/LAmLBuQsXraDwuPfTZ86V5fQix5767Kxtz9lvmdn5dvL02SL7SlrhnB05BbZ6c45xb57p4sVLdvzkGb8W17l06VJJp/vxpz4753ziD0If4vzc/Ydtd16hnT13If6QG1q/kTm8oRvpJBEQAREQAREQAREQAREQARFIIAISQxJosm72UG/kRRrBYN22XOs+Ms02Ze1zUSQIBu0GzbQabVJs6JQltie/8KqOEFB49KSdO/+FiBJ9ZsSH/YeO2UdJk61up7G2LnNPdHeZlhE1qrdOsarNh1nmrvzrnnv85GkXczoOnWNvfTzCBR2e6+iJUzZj0QZ7u+UIW715dxEBKHrRs+fO2579h23QpCXO5eiJ0y6kIBjReeaM9TutdocxVq/LBBdFzp6/4PvYf+HixRuKhrmROYyOW8siIAIiIAIiIAIiIAIiIAIiUBkJSAypjLNaTs90Iy/SR0+etuRpGfZCgwHWpOdkW7V5t/Hin5axxZ6s3cf+Wqunfdh5nHVJnntV7zEy3VLnr/fjSTshwgRBINbPXXAR4rUmQ+zh6t1t5PQMO3Hq7Bf7r4gHl+LSWIrDsXbrHvtT1S72x9c6uohR3DFsIxoF0WPUrJWWOn+d1e8ywR6u0cOy9x7y8e3MPegCxgPvdLPlG3a64JFXcNSinYgPIkKmLlhvLzUcZA26TbR5y7fYtt37/RzOQwgZlrrM/lKjh91XrYuNnb3Kln2a5ftXbMx2AaW0ESzRZ7mROYyer2UREAEREAEREAEREAEREAERqIwEJIZUxlktp2e6kRdp0lj27j9sH/ebZq83HWaDJi22zTvzPCLkqTp97I1mw3yZCJH4TlTEwImLrfDoKTtz9rzlFRyxzGxSWb7oa7bkWMt+Uw3xoUHXCbZy0+4i+0kxIUUnNIQRUlfi+8pN2S6EIIas2rT7qv2Xj+fcz12ceanxYGszcKbV6TjWHqre3TZl5fl9Zi7eaE/U7m2Pv9/L2g6cad2S07x3jX3OdbElcGneJ9VebDDQmvaaYl2T59orjQfby40GWZUP+9qjNZPs/re62UPvdrdnPuhrLzYc6PteazLUOO9G0ovKOofr168P6PyzV69elpGRUWTbtVYuXrxo77//vh08ePBahxW7r0aNGsVuj248cuSItWnTJrZpwoQJtmXLlth6/MK6devs/Pnz8ZutRYsWxj41ERABERABERABEbgdCfDHxn2Hjl7V8wuPXxNH5u4CT1vnIK5BVDhtV16hDZ+5InYuEdEltcWfZtnA1GUl7fbtRITTuMfHQ2YXOXbyovW26NOsIttYyT1QulT8pHELY+ceOXHKeKbi2urMPTY2fa2PlXGoVT4CEkMq35yW2xOV9UU63BgB4cixU7ZkXZYt/TTLmvaabPdW7Wwt+k615RuyPSKCqIiivcB27j1oJ0+fcWEi7+BRaz1gmj1Xr3+RXuXDfvZIjR529+ud7P63uhoCS/QY0mdIz6ERXUJEBpEp8X3h6u32h1c7enTI4rU7rtrP8ZyLdwdizvMNBrh482LDQXZfta7We8wntnRdlrXoM9XurdrFBRLGg0jz4Lvd7c9vX/4MUR4+HrgcP2WpC9bZmq05lr58i/UZu8DFk1ebDPHnQVhBUEEo6Tx8rqcb9Ru30ManrbHDx04FxKX+LMscnjt3zu6++2576623jOX8/Hz7h3/4B6tSpYq98847V/UTJ04UO4569eoZvaztG9/4xjVPad26tW3cuNF+9atfxY5jmW0ltffee8/uueceO3z4sM2bN89mzJjh/d1337Wnn346ts52nllNBERABERABERABG4HAuuz9tl9NXvaz15oa3+t19/7959obs98NMRFDYSN0FPmrIohaZc8155sONB/d0aUqNl5nO9btjHbXm6R7MtrM3Pt8foDYineszO22JRFG2IdIeTHz7Y2zo9un7P8iz9wVfloiHFfxJZfvtrRTp89b7vzC73X7z3Fuo75JLZOSjnH/almkk1fuslWbN5tP3+pvT3wfm/vP3mujeUdOmYpc1f7+P7v651iz7Nux177bbUutm773ti2sMC1GvebZmPS1ljdpElhsz4rEQGJIZVoMsv7UcryIh3ujYCAKSnCBi/+s5ds9OgHhAJEizc/To5FhNRsO8roeHcQJfJxv6kuQHAtXvwHT17iERFERYTerHeqR1WQghN6vS7jPf0G4aFqs2ExMYSxkLLTqMekq3r11iNdDLn79c5+7+KOGTkjw59hbsZme75+f4/cII2Fc6p80NfTfV5uNNje7zDGhYtqLZJdyCB6hLG1GzTLHn+vl01MX+uqdv7Bo7Ztd4EdPHrKTp05589KOg33eanRIHun1UibtzLTn50UoMZJk2zKvHV24PAJj0IhbaisraxzSBRFnTp1bPXq1fb4449b48aNbe7cucX2IB7s3r3bRo0aFet9+/Y1hI3k5OTYNvYfPXq0xOEfO3bMvvWtb5W4nx3/9m//ZllZWTEx5MCBA/a3f/u31rBhQ2vUqFGsN23atMh1kpKSbPjw4daqVSv78MMP7d///d/tlVde8eUPPvjA6tat68snT54scp5WREAEREAEREAERKAyE1i1Nceqth0Ve0QEhM/OnbenGg2yam1HW5fR86xTSrrd+WK72DEsDJu53J5vNsy3vfLxCPtkzQ4LYgjCxMN1+tiO3AOxc+56uYM16jvVmg+aWWJv0CfVRY9w0uHjp6x2t4mWvnq7b0eseLXlSO+/f6urCzlhveDw5T/QHTp2yl5qkWzpq7ZZw75TPX39wJGT9kLz4S6G3F+zp18+KoawYdOufPtzrV6Wtfeg34970tsnp7nAw3L3sQtiUTBhjPpMfAISQxJ/DivsCcr6Ik00GyaoH/ed6i/ypLRs3ZVvSSnpblRK1AN+GQgFpIfgv9F+8CwXKp79sJ8hJgRfDCIyDh496ZVVSH0prmflHjDSXZJGpXskBtcnmgLxgMa1SFd59aMhV/Wn6/Z1MYQ0mWfq9r1qP+dgAssP0HFzVln1NinWIyXdQgRH33ELXNghEoUoE/bxXDMXb7BmvafYkClLXYhBAJq+cL0/S9+xC9wclYgZKuIwzsnz1hnRJq98NMTGzVntUSg866iZK3z7O61GuG8IaUMhXLAsE17WOczNzfXLDxs2zH7961/bww8/bI888shVnfSU0DZs2OBpJ6SeFNdJf/mXf/kXKyws9FOOHz9uc+bMKdIRTv7jP/6jyLZwDMfv3bvXhY877rjDvva1r9kf//hHa9CggUex3HfffZ46c9ddd1nv3r39XmFsmzZtCov+SQQIESGh9enTx8cc1vUpAiIgAiIgAiIgArcLAcQQokLCy/9/vtTeH33cvHXWY9wCX/40a5893XiwL/O7KOs0UsBZ37Azz9NMUhdv8KgSojeIBDkWSVtHDAnpNJxbv3eqR2/4ha78g+8gESDRRjQIwkv89lZD5xRJyQnnhHtkbNrtYki/yUs9UuR6Ygjn80dHeEQFmzdap9g91XvEtu2/8o4R7qfPxCcgMSTx57DCnqCsL9JBDME7g/SVZr2mGEal2fsO2vvtR1u15sM9dWb+ykyPgkAI2Z5TYIvW7HAvEfxEqNpyJUXwms+FWILwMjx1mYsG3K/7iDQvfRvK2547f8H9OhAjop1oC4QO0mToSaPmublp9BiWEXNIl0mZucI6DJltpNNg/ho8Q4h6mb10k23dlWfvtBxhvUZ/4gawRKpMTF9jI6ZnGJEjHIPwgRhCmg+RIxjKLlyz3cfO9YgKaTNgpos5VKxBNEJIwXD2vfajXSShIk1ZW1nmkAgPBImJEyd6ysiiRYvs0Ucftf3793v0RE5Ojh06dMgjLLp3716qoVy4cMHTVKZOnRo7nvu88cYbRfrvf/97+5u/+Rt7/PEnimznOI7n/GeffdYQa0iNKSgosO9///t2+vRp+9nPfubj/clPfmLcj8gPGv4iP/zhD23w4Mv/gS9fvty+/e1v2/Tp0y01NdUGDBhgzZs391SghQu/yB2NDVQLIiACIiACIiACIlCJCfDyT5RFi8GzvIcIkM3Z+fZux7H+5IgiwbOD34tJRUGgoPH7OKk1j37Yr0gn7YSoitBIfwkRzkR4sB8xJdpYn7lss29CGGk+aJaPDeEjiCHct8+kxS7OvNFmlC9PXHDZ747oDtJiGGNpxZBpSzbas02Geg8iT3RMGZuyYxyi27VceQhIDKk8c1nuT1KWF+lwc0LjCFVrP3i2v9jj37Fxx15PAyEVhsooG7bvdXGB1BPK0c5fuc3eaDrMozOIikDEKKmhQFOGliouiAYYlxIR0n/8Io+2KE0lGX5IIlQEMWTOss1u2FrcPbkXBq4II4zbxZB3u/syaUBEryCc4BOCESteIjznvOWZNmzKUn+m9Iwt7oNCGd7+ExZZ46TJlrE+y3bkHHARqGqz4S6GuKFs2xSvToNggqFstRbD/RlDlEpxY7zWtrLO4a5duwxhgigOIjPefPNNvzzCAX4i8MfAtH///te6bWwfnh0Yql6vPfHEEy5ykPJSXJsyZbKNHz8+JoZwDMII6Tx4miCK/OIXv/BTv/nNb8YugZCDWIJZao8ePey5554zxkTKDM8wefJkmzZtmv385z/3OYqdqAUREAEREAEREAERqOQEikuT4ZERJv7f293cf++JhgNt6pIv/NkwHCUNhrQYxJAgVERRjZi9MiaGbN293/78Xq9YJxUH0SW6LbqMlwmpOkOmZ9hp0srPnPN7cC+EkZGzVxXpUZ+RCfM/9TSZ0oohpOJgnkq6zYJ1WX6/6PXTVmbGfFCiz6flykNAYkjlmctyf5KyvkgzAHyfUX7x/EAomDRvrb/w4xnyaI0ke73pUHvr42RPN8FPo2rz4Z4yQ3QE5qM124zy6I7iHoYXcVJfSEshfeSxmpevh5hBBZkQEVLcudFtCCm12o2OiSH1u4y3nLzLKRzR41hGXMF7hMgOSuC+3XKE3fNGZ3vr4xGGyDF32Wb3KanVdpSn8mAS+0GncZa5K98GTlxklAEmEiZc6/jJM556Q9gfUTBEjeApsnlXvnudkDZDNA2eK3iVTEhb49Eme/IL3XckfnzXW7+ROeSaiAW/+c1vPPqCtBL6gw8+6J8//vGP7Ze//KVHkFzr/oMGDTJSV86evewyXtKxRH4gYBDJ8aMf/cjwAimphciQNWvW+CEILSkpKe5pgvErLSqGsB69fzgGrxA8TEaPHm1Lliwx+YU4Ov0jAiIgAiIgAiJwGxFADMFHY8CUZd5DZAgI8OvAQPSnz7d1QSKKBWGCxuf/fqqF4RsS7RizhsgQhBXMS+mDp2V4BAlVbMK2Gp3GWcshc2LrVG3hj6sIFXTeJxA3SL8hooTPsC98cnxopOcEMaTPpCWlSpOp1WW8iyGk2RAJg7lr51HzXPDBCFat8hKQGFJ55/ZLP9mNvkjzAwnhYOOOfTZ7ySb30qD6C0II5WnxFKnRdpS16j/duiTPtYbdJnp0x1N1+7gB6b5iymLhmUFKzYAJizy1hHQTSuyu3JhtCAyIFqVpRHqQwsL5LzUc5GN6scEAFxzYF99ITVm0Zrth3Iq3B6KNG6h+2M/9TjCApTTunGWbvHIOBrEt+02z/YeOeSoOYg9VZ2iIRESZII7szD3gJYTxOEFIQQAhbQYvFaJW1m/L9dLBlA+msg7/MSAGlbXdyByuXbvW5s+f79VjMFBdsGCBUX1l1apV3omu6NSpk1ebKW48RGlwPFVc8vLyijukyDYqz4RyuQgoGJoW14jy6Ny5s/3d3/2dIWYwxiC2VK9e3VNfOC9eDCECZNKkSR49gucI7Qc/+IGPH9+RkSNHFnc7bRMBERABERABERBCuEj2AAAgAElEQVSBSk0AMQTj0KEzMrwHzxAeeuWWHPvVa52sXq8pVzHYllNgTQdMdzGESI/4Er09xy+MiSHhZP4Q+JuqXYzIj9CIyvhRlZZWGFcxkZSVv9TpW6Qj1PywSksfU/y+aIpLrwmLbOG6LPcMwbSVMr7X8wwJYkgYFwarCD1EqDBmtcpLQGJI5Z3bL/1kN/IizQs7URpERyAg4LNB9ANiSKdhc65EP6x189F+4xd6eV32Y1hKWggREQgfNMQJIjKycg642ECKygsNBrjZ6JDJSy2bY8+UzkcDHQExgnK++JdgoIpJ6fi5q92bg7QU9nFMVHMgPC91/nqvekPFl7++19NL4FKl5t3WI30slMLdW3DExR0MVsenrfYqNK0HTPdIEtJnaAgrVI5BQBk7e5Wn9TTtNcVeazLU04WIcHm4enejlC5pNG+3vFx5h7SeE6fOxoyq/GKl/OdG5pCojy1btnjFlU8++cR9OKi+UqtWLb8rPh6UqS2uIaT89Kc/9ciS0kTqYI6KT0moNIPnx5133mmZmZejacI98PT43ve+Z5ix4hlCFMl3v/td27p1q5fNZR8iDN8/fEGi7T/vvNO2bdvmlWgwhaVJDIkS0rIIiIAIiIAIiMDtSKC4NJmc/Yf9j3CIFwgVmKHGN6JG8OpAMKBs7dj0tUX6e10nXCWGcN232o9xzxHK4rJOGd9g1Bp/j7DOOPAswXSVKBHMXKkaQ5EDyu/mRv6IyvKDtXvHIkMwh6WqDffF/LSkajJBDEH8oAUxhOXfvdnVo8+JTo9GoITx6TOxCUgMSez5q9DR38iLND8kduQU2CM1erhRKNEheIIQTcFLPtVlMExt1GOivddutIsjiCEIAkRBEBWCCIJwgH8I5qaIF1R8wR+EKBLSZI4cP13qaBCiRk6fOe8eHZTQfbJOH78mYgomrIgsRKWwj8gNQuTCizwRGZt35rmoQ1pMzbYpHh2yeVeejZu72iNVeEaEDMaI8SkRLPiJfJQ0yd5tNdLWZe7xeeKHKKLLc/X724xFGzx6BNGItCH8SEoSQyjFO33RBsveV+hiTVkmvaxzSBTI/fff77dAFGnSpIlhltqtWzf3D2EZf43atWvbnj2Xn4uDO3bsaIgOCBRLly4t1RCzs7NdOCHKJNoYAwLJ4sWLY5svXrzsWB7SZBA9wn0QSIKhK+kuGKuGtn79+lgpXirWEEFCixdDMFcNqTfhXH2KgAiIgAiIgAiIQGUlwB8AMRDF/6PbmE8MQ9I7HmvqYgKRGqzjF0I1lVClBRakt5Cuwu/8iCH/p0pr6z9laZGO+BDSZOL54TnSe+JiN17FfJXIjeLa2sxcazJguv3ilQ5uphqOwdwVQYRxRf1C2E9qCxVkaKTnYA5LJMqlK3/p7DDysqlrfGldxBD8SIgkobEfD0TOpaLMmsxcm7RwvQ1MXeb79U/lISAxpPLMZbk/SVlfpBkAL/y86D/4TnfrMSrdKH9L9AU+G1R8oboKnVK6j9XqaS82GGhP1+1jD73b3T1FWvefbnkFRzxKA+HjT1W7uJBCZAnCAUIDP7wROK7VeVkmqYRPfoCTdkJVFoxOSdchYiW0lZt221stkn3MeJEs/TTLnajjU28QZxBsHq7Rw7L3HvJoDUxRSQnieaj8MmvJRkPBPnTkpNVsk+JiCEIH1yLK5cnavT0qZsP2XBdiSL15v/0Y27a7oEQxhKiT15sO8wibEDUTxn69z7LOIWV0MRSljR071iixG9+p1oIZaUiBGTFihD3wwANe8QU/EXw4zpw5c82hkeLyrW99y4YPH17scUSYfOc73/ExRA8IYkjYxtiIFDl//rKSTyRLEHM4hpQbxnr48GEXaoLgES+GUJI3KSkpXFafIiACIiACIiACIlCpCSzdsNMeq9ff6vee4malVE4h5YVGednnmg5zwQOBoVrb0TEWVJ6hogsNMaQ4A1XEkeLEEN4T8A1BTGk7fK5HnZCmg7jB/UMjiuPlFslu3IpwQhoP52JounPfQd9+b/UkS5mzKlaVBsGDKA4iRvj9H2GjY0q6Cz0f9pwcLu2f8WII98LEdVdeob3dfowLPESVYOKKKWvjftOsVpdxtj23ZF+7IjfQSsIQkBiSMFN18wda1hdpRsgLP2VoMUP1CI5jpzwSBG+QHinp1nPUPO8sUyGFz1rtRtnD1Xt4eVqEEyI2uibP9UgQUkooSUtay2M1e3pEx6CJi91YlBK50xau9546f51NnrfWDVup7rJ++17/oUnqC/d4seFA+/Pb3TytJX15pqfyBKKIJfiCUNqXY575oK816jbRDVJJkwktXgwhYgOD2FcbD3ExB/8P/EBWbsr27X+p0cOqtx5pmdn5bsKKrwiiD3wYF6LR/W91s3aDZln+oWNxYshls1aqyazftteeeL+XLV63o0IjQ/Lz8w0xI0TFhOfmk0ou+GsgllD+NrRz5855lEUQRvD1qFatmnt5ECWCRweiBqkr//qv/+plcjMyMnydz2s1IkcwVCVqI7SoGEJqDZViKLM7e/Zse/755/1eaWlflHLjeTBkpUpNly5f5HwGMWTgwIF+D8aIkKImAiIgAiIgAiIgArcrAcQQzEdJNQnRIIgML7VItrRV21x4QMggJZ4WL4Ys2bDT3mw32sUEzFdpRGg832yYR1sgONRNmuwmqL7zyh8uUxdvsD+8093iRQuOwe/j1290tifqD7CWQ2a7GMJ2zFMRKfD0wFQV3xDGSWMMlAYOv9PWTZrkkSvDZ65wo1fGEW14nCC20IgCITI8NJYfqtPHqrYdFTbpsxIRkBhSiSazvB/lRsSQ7H0HY2ktRETwA5AfmHkFR2MdD40+YxdY1+Q0L7/7WtOhLkBMmLvafTTwyBieuuyy38bm3Z4ug+lp3U5XPEMaD/ZqNKTWvHqlv/LREBc6ECYoUUuERkHhcfcpea5efzdobdZ7igsVpLCEcDmYoR5zT0xM2wyY7sLLs/X6u1gTfjByXLwYQpRKk56T3XOk5+h5lpaxxVNuEFUwQiXyhZK/Bw6f9Oo6PDMiESIOKTfVW6d4tAw8KBsWTZMhkqVup7EebcLz4JVCmWLGWpZW1jlE3CiuUXIXkWHnzp2x/1jCcfh3lKWR8oLwUpqGp0i0EXESTZ8JlWKOHTtmRJPEjz9EjLA/yo7rhHXSfSglrCYCIiACIiACIiACtzMBjEdpQewILBBGwu/OCCChsW3d9r1h1QUFxAT8QKINrw8iu6/VEC6I6ohvO/cdciPT+O1hPeoZEkQMIkuijXsfPXnafUM27sq75vWi54VlnjM8f9imz8pBQGJI5ZjH/5+9846u6rry/++PmclMZiVZM2tmTSYrkxVPMoknxUmcTCZlHCdx4hY7tuPebXCjOAabbnoxvYjeQSCKqAIsOqaLLjoCJIRQA4HownTv3/ps+T7fJ9QAyfZ7+p61Dvfec88595zPeevx7ld771Mrs7jeF2kGkXf4uHUblWqdh8/1oKLlDQxRAWsIYnXwwo9lCJYghw4ftyvuAnPV42xgYXHx0mV3MWGrXmJ3YAnCjjLEEqENQVmxtCB3Hz3f86DJSz0GB7vMYH1BnA4CnrKlLpYewUtweGxoDLigMDaewY4wm3fnRAVKwnqD57zSIdHnhhXMgtU7bOK8NI91gjgyeMoyQ3Rh1xyCpRKThP80EGAmL9jgrjrEGCFuCm4/Y2at9nt8wTLfJj2muFUJsVMQTd7qMdWa9Jxi42avcVElPObqnN/IGlanX9URAREQAREQAREQAREQAREQgVgmIDEkllevlsd+Iy/SvPgjEhDnoqL4FlhbIBxgiUFwUVxGUIzDiuvlK1eiTNSYKiIGwZpoj9CBNQciw4lTJaVHzk+X+D2CsFIfESWnoNjje1TXpoJxnz57zoWTMGKeS4DV9duz3e2F8VI3UM95JmMiXgjPZaebIO4I4+ZeTmGxmx1yDgNM/BCASCUfXnR3GeaGgs3zjhw7ZYXHTvp5UC88pqrOb2QNq+pT90VABERABERABERABERABEQg1glIDIn1FazF8d/oizQiRHnWF8FQg8CmkQCoVdQP2gXH0vaIIxXnSF2vUxpMNSirzrE84SQ87nAf4bqlY2L+4Rql58E9roLzsvVK2X1c/2MByMuu7a5aJTe6htXqXJVEQAREQAREQAREQAREQAREIEYJSAyJ0YX7NIatF+lPg3LtPkNrWLt81bsIiIAIiIAIiIAIiIAIiEBsEpAYEpvr9qmMWi/SnwrmWn2I1rBW8apzERABERABERABERABERCBGCUgMSRGF+7TGLZepD8NyrX7DK1h7fJV7yIgAiIgAiIgAiIgAiIgArFJQGJIbK7bpzJqvUh/Kphr9SFaw1rFq85FQAREQAREQAREQAREQARilIDEkBhduE9j2LxIK8c+g0/js6JniIAIiIAIiIAIiIAIiIAIiEAsEZAYEkurpbGKgAiIgAiIgAiIgAiIgAiIgAiIgAjcNAGJITeNUB2IgAiIgAiIgAiIgAiIgAiIgAiIgAjEEgGJIbG0WhqrCIiACIiACIiACIiACIiACIiACIjATROQGHLTCNWBCIiACIiACIiACIiACIiACIiACIhALBGQGBJLq6WxioAIiIAIiIAIiIAIiIAIiIAIiIAI3DQBiSE3jVAdiIAIiIAIiIAIiIAIiIAIiIAIiIAIxBIBiSGxtFoaqwiIgAiIgAiIgAiIgAiIgAiIgAiIwE0TkBhy0wjVgQiIgAiIgAiIgAiIgAiIgAiIgAiIQCwRkBgSS6ulsYqACIiACIiACIiACIiACIiACIiACNw0AYkhN41QHYiACIiACIiACIiACIiACIiACIiACMQSAYkhsbRaGqsIiIAIiIAIiIAIiIAIiIAIiIAIiMBNE5AYctMI1YEIiIAIiIAIiIAIiIAIiIAIiIAIiEAsEZAYEkurpbGKgAiIgAiIgAiIgAiIgAiIgAiIgAjcNAGJITeNUB2IgAiIgAiIgAiIgAiIgAiIgAiIgAjEEgGJIbG0WhqrCIiACIiACIiACIiACIiACIiACIjATROQGHLTCOO3g/zCI6YsBvoM6DOgz4A+A/oM6DOgz4A+A/oM6DOgz8CR+H3xq6MzkxhSRxde0xYBERABERABERABERABERABERCBukpAYkhdXXnNWwREQAREQAREQAREQAREQAREQATqKAGJIXV04TVtERABERABERABERABERABERABEairBCSG1NWV17xFQAREQAREQAREQAREQAREQAREoI4SkBhSRxde0xYBERABERABERABERABERABERCBukpAYkhdXXnNWwREQAREQAREQAREQAREQAREQATqKAGJIXV04TVtERABERABERABERABERABERABEairBCSG1NWV17xFQAREQAREQAREQAREQAREQAREoI4SkBhSRxde0xYBERABERABERABERABERABERCBukpAYkhdXXnNWwREQAREQAREQAREQAREQAREQATqKAGJIXV04TVtERABERABERABERABERABERABEairBCSG1NWV17xFQAREQAREQAREQAREQAREQAREoI4SkBhSRxde0xYBERABERABERABERABERABERCBukpAYkhdXXnNWwREQAREQAREQAREQAREQAREQATqKAGJIXV04TVtERABERABERABERABERABERABEairBCSG1NWVr8a88wuPmHLsM6jGUquKCIiACIiACIiACIiACIiACNQpAhJD6tRyX99kEUKUYpuA1jC210+jFwEREAEREAEREAEREAERqB0CEkNqh2tc9KoX6dhfRq1h7K+hZiACIiACIiACIiACIiACIlDzBCSG1DzTuOlRL9Kxv5Raw9hfQ81ABERABERABERABERABESg5glIDKl5pnHTo16kY38ptYaxv4aagQiIgAiIgAiIgAiIgAiIQM0TkBhS80zjpsd4eZH+6COzqx99ZB9xcpOJHirri2f4/Qqec/Xqx/dvfigVPCG6OF7WMHpWuhIBERABERABERABERABERCBmyMgMeTm+MV163h5kT5xqsR27M+3zNwiu3DxcoVr5kLH1at24dJlr3f5ytVr6p4pOW87M/Mtp7DYzl+4FHWf64zsw7Yrq8DOlFywsnrHxUtXbHV6pm3Zc8iOnyqJaltbF/GyhrXFR/2KgAiIgAiIgAiIgAiIgAjUTQISQ+rmuldr1rX1Io11BKJE8ckSO3bibLUz9U+eOWeBgcfZc+et4OhJO1RY/Ek+fNyKjp+Jml/atix7pUOidRuZ6s8MbjIO+tyTVWDrd2TbmvRMW5y2y6Yv3mQpH2zzvqlz9twFu3q1VBjZe/Cwvd55giVMWmpFJ84GXfmYuH5v1HxrPyTFDhYUX2OJUvLhBavffry16Dvd6OfTSLW1hp/G2PUMERABERABERABERABERABEagtAhJDaotsHPRbWy/SCCF7DhTa0KnLbfCUZdXO1J+6YKMhUJDS9+Za/4mLrevIVBchuo1KNfLoWauj6C9cu8vuqt/XGnZJssKjJyP3rly5ahnZhdZp2Fx7tWOiPdV8uD3010H24rtjrd3g2T5GhBWEEQSXc+cv2pY9OXbPG/3t3YGzLL/ohPeFWwxzys4/Zm92n+zCy/Z9eV7G87Lziz1jUULbp1uMsEVpuyLl3MfipDZSba1hbYxVfYqACIiACIiACIiACIiACIjAp0VAYsinRToGn1NbL9IlH150MeChNwfZAw0Tqp2p37jbJAvcV+at2GZ/aTLEBYYnm5UKGX98rZ+90mF8FO2KxBBEFQSNfhMX2197TLGH3xpsd77U20bPXGWr0/e7K8yspVvssbeHWvfR8104Wbc96xoxBCEkK/eoLVuXYS+3G2fPtBxl76/cbrmHj1uvcQutZb8Zbg3StFey/b5eH7u/4QC3LsFCJMjpGYeixlxTF7W1htUdX58+fSw/P7/c6leuXLG9e/fa9OnTbevWrdfU6d+/vxUUFESVU5aXlxdVxkWnTp3sww8/vKZcBSIgAiIgAiIgAiIgAtcSwC08/9jJa3Jh8elrK4dKMg4esYuXr3gJfWD5TDpQUGzjU9dHah46fDxyXvZk1dZMG5mytmxx1HUQ649ndByzIOrerJXbbOXWzKgyLnI//kPlNTfKFCQkr4iUnDhTYsypvLQp45BNXbLFx8o4lOKPgMSQ+FvTGptRbb1IX7p8xYWGOcu3udUFlhfVydRfvnGvByhlkoghWFkgKGzbm2ezl6bb081HVFsMoQ++aC9duWpZeUftzfcmu1iB6w3WHoyTL/Iuw+fZnxsP9OckL9x4jRiCq0/XEfNcTPldvT7225d7u0gzasYqtzhBqHninWH2aNMhLrb88dW+9uc3B3oZ5eTVW/bX2LqFO7reNfzggw/s+eefrzIvXrw48pg2bdpYo0aNPE+dOjVSzskdd9xhO3bsiCo7ceKE3X777fYP//AP9rd/+7f22GOP2fz58+3gwYP23HPP2dmzpe5Hv/71r2379u1Rbe+++27btm1bVBkX3/nOd+zUqVPXlKtABERABERABERABETgWgLbMvPtrkYD7YdPd7M/Nxvu+dsPt7fH2oxxUQNhI8hJCzdGOngvcZE90nKku64jSjTqnez31u7Ituc6JPr5loxce6j5iIjL+IK03TZ75fZIRgj53hNdjPbh8oXrdkee83ibMcZzEVt++kJPO3fhkh0sLPbcfPBs6ztlWeSa3+zU+32jBJu3Zqet33XQfvxsd7v7r4M9f//JrlZw7JQlLdrk/f/PS70iz0nfn2e/rN/H0vdd+8c2+mo9bK5NWbzZmibMjLTRSfwQkBgSP2tZ4zO53hfp6g7ABYjLVzwWB/E4rifjqhIkxJBnW42yzsPn+hfy+u1Z9nybMfZS27F2+ux5O1J8xgqPnrLkRZtc5CBeB4FUKSO+B3Wy847aorW7bOzsNYZocedLvWzC3DRbsWmfHS4+7a4uWI8MmbrcJr6fZkvXZVwjhvDli5hDvJBHmw51VxtcbxBuCKYa5I07D3pbBBzqB+UciYVSG+l61xCri0WLFlWZDx36xJLla1/7ms2ePcveffdda9CgQdQ0yhNDqJCVlWXFxcX29a9/Pap+z5497cc//rHl5ORYWAw5fvy4rVy50n7+85/bmDFjvP19991nd911l+cvfvGLduedd0auMzOv/WtB1IN0IQIiIAIiIAIiIAJ1nMDGPTlWr9ukCAUEhA8vXrK/tBpl9btNtj6Tl1qvpCV22zPvRepwMi51nT3VbpyXPd9xgi3bvN8CMQRh4r4mQ2x/blGkzU+e62Gths6x9qNSK8wthqS46BE0On66xN7qN8OWbNrn5YgVL3Sa6PnXr/Z1ISe4PvJxvMBjp0rs2Q6JtmTjXms5dI7/UZPf/E+3H+9iyB8aDfTuw2IIBTsPFNofGw+yzLyj/jyeSe6euNgFHs77T10esYIJxqhj7BOQGBL7a1hrM7jeF+laG0gFHSOGPNdqtMcMKTl/0TbtyvF4H0+1GO4CyNu9k92tBvEBkePeN/p7AFNcbVonzLJVW/a7YNG011S3zrj79X72mxd72bMtR3lMkI27Dtq2vbnu7oKFCDvAEGi1bMwQ3HZOnC7xXWYadElyMQZ3GsQWhJdDhcfdEoY4KbR9puVIW5K228uIRUK/7DRTG+nTWEPEEFxe5syZUy0xBHeW9PR0W716tX31q1/18wMHDkSmn5qa6vfCYgjWJa+99pqLJ48++qglJycbggyiCfmWW25xC5Tg+uLFT0SzSMc6EQEREAEREAEREAERiBBADMEqJHj5/9Gz3f1e8tJ0G5C83M+3Zubbo61H+zl/0OSahKsM19uzCtzNJGXVdrcqwXoDS5BToXh4iCGBOw1tmw9OcesN7+jjf06ePRclhlCMNQjCC5Yh4dR57MIol5zgXvCMtJ0HXQwZNmuNW4pUJYbQnt/z8AgLNi93SbLfNhgQKTtcZpOG4Lk6xi4BiSGxu3a1PvLafJHmCwcRgLga7LxSnXzELTU+2c62IjEEtxMsPQiEirXHg40GushBEFVijFD2RueJHreEWB2jZ652FxkEE3KXEfNs4rw0I9ZIqwEzPe4HW+byBVteAFXCuRKMFWHjrR5TPG7Ihp3ZdvJMiU2Yl2a9xy+ynmMXetwRBBnG0DqhtF/KF6zZGdMBVMuKIWPHjrXBgwd7/ta3vmW40QTXu3btcneYBx54wC0//v7v/94479atm3Xt2tWwDAlSWAwJyuQmE5DQUQREQAREQAREQARujgAv/1hZdBg933NgAbIru9De6Fnq+owoEsTswJIZVxQEChJx83CteeCdYVEZtxOsKoKE+0sQ8w8LD+4HcUeCOlynrt3llwgj7UfN97EhfARiCM8dMnOVizMvd53k5zOWl7pPY92BWwxjrK4YMnf1Dnvi3bGeA5EnGA/HtJ3ZEQ7hcp3HDwGJIfGzljU+k9oUQwiiOil1g73eaYI933p0tXIHzN0KP9mytiIxBFcZdmjBLYVtdXFxIY4HViSpq3Z42ZY9h+zwsVNukcFOLmNmrXYhhHobdmS7pQc7zbQdNNvuazjARQ5cbDbvvnY3Gb7ciRuycWe2vdZpgj3SZIj1HLvAUj5ItyY9p3rAVEQQnh/MlZ1r/tRwgMcQ6Ze4OGqb3ppcyBtZQwKebtq0qcJcNoBpWTGkV69e1r59e8/f+MY37I033ohc02+QWrVqZf/4j180BBLSyZMn7Te/+Y01btzYtzKuSAzZvHmzt6HeT3/6U89f+MIX3L2G63feeSd4hI4iIAIiIAIiIAIiIAIVECjPTYaqCBP/91o/j6H3cMuRNmf1J/HfCDiKGwxuMYghgVARfsSEBRsiYsieg4ftj28OimRccRBdwmXhc2KZ4KozZl6a7+SI9TfP4FkIIxMXbIzK4Tgj0z/Y6m4y1RVDcMUheCruNsvTM/154f4Xb8iIxEEJz0/n8UNAYkj8rGWNz+RGXqSrOwisLBLnprkVRRBEtKoj29liQYJJHqkiMaR+h/H+Mo3PInn+qh12V/0+bg2CJUpQzm4ydLU/p8i3xL3jhZ5uQfJC69E2ffFmF0sIpjps2gprkzDL9mQVlCuG4IvI2J5rNcrYzYYdY9iBZvi0FZa6arsLIMQrweWGXWcQalanZ1qDLhO9LpYhgVlfdflVt96NrCGWHffcc0+FedSoUVGPLyuGhG9WFDME4YOYH//yL//iQVZxmSFduHDB3n77bSNGSFkx5OjRoy58fPOb37Tx48d7ne9///u2e/duKyws9NywYUO3MAmPQeciIAIiIAIiIAIiIALXEkAMIY7GiNlrPQeWIdQkXgcBRH/wVDdDkAgnhAkSx//6Swcjbkg4E5g1sAxBWCF4KXn03DS3IGEXm6CsYa9k6zRmYeSaXVv4rY5QQT568qxbeuB+g0UJx+BecKR+kHDPCcSQITNXV8tNpnGfaS6G8HscSxiCu/aetNQFHwLBKsUvAYkh8bu2Nz2zG3mRru5DsabIP3LCduzPM6w0qpP35xwxLEqCVJEYUt2tdRFC+MIdOWOlu85gvUHMkBfajPFYI2yPi6ldVl6Rbd+X50LMBxsy7A+v9rVG3Sb59rlYixCEFTHk9c4T7IFGCR5/hGCr2flHfY4EeMU1h0CuxBEhvgi70jz+zjAjxggBWgPTwWBuNXWszTUMxni9Yghi1uOPP+6WJwRQxdKEwKiXL5f+x3r16lUjAOoPfvADQ9xAKEGgQQQhxsjatZ9sxdavXz93sWEsWJh85Stf8cCswdh0FAEREAEREAEREAERKJ8AYgiBQ8e+n+Y5iBlC7Q27c+xnL/ayZoNmX9N4b84RaztinoshWHqU3aJ34LQVETEkaEz8j1/U62NYfgQJq4xbH+9kxadKgiI/4rJyf5OhURmh5ruPd/IxlbQpsv8AACAASURBVL0XdnEZNH2lrUjP9JghBG1lG9+qYoYEYkgwCAKsIvRgocKYleKXgMSQ+F3bm55Zbb9IY5mBCHD58pVqZeJyBFYhTA4x5Knmwda6ucbWuwgM1RVDeDbWHg27Jrk7C24sd77U20WO/hMX2/iUtR7zAwsP3F7aDU6xeu3HucsNW+0Sk4TyzJwi27EvzwOyYgHySodEF09QqQmMioBSr/14e7b1aA/Ayi4zb3SZ6GOfv3rHNWr7TS9cqIPaXkMedb1iyLhx46x58+a+hW6wm8ylS5c8QOqPbrvNrUVwd/mnf/ond3nZs2eP10UkKRszhGCsCCkIJL/4xS9swIABodnrVAREQAREQAREQAREoCIC5bnJ5Bw+7n8sRLxAqCAYatmE1QixOhAM2LZ26pItUfnNvtOvEUPo99XuUzzmCNvics02vkGg1rLPCK4ZBzFLCLqKlQjBXNk1Bststt/NLToRVPXze94aHLEMITgsu9rwXIKfVrSbTCCGIH6QAjGE81+90tctztn9MmyBEnmoTmKagMSQmF6+2h18bb1I81J78dLlG8ylri+IIoghbGWLMIGg8XzrMXZfw/7VFkMYw8K1O+2vPabYuJS1HkQVFxd2jtl78LA16zPdnmk5ytiNhhgfTzQbZn9+c6D99uVe9tCbg1xAGTljleFKg7DDkRghxEEh4OrVj915io6fcZcgxlYqggy3R5sOsYSkJb6tMG1rK9XWGobHixiCW83tt99erd1kMjIyXNw4e/Zs1Na6q1atsuzs7IjgVdZNhmeWFUMoQyz50pe+ZPfff394WDoXAREQAREQAREQARGogAB/FCSAKPE/+k1ZZgQkveXBtoaYgKUG18QLYTeVsDs37i24qyAMIIb89+NdbPjsNVEZ8SFwkyn7eGKODJ6xygOvEnwVy43y0paMXHt3xDy7/fkeHkw1qENwVwQRxhWOF8J9XFvYQYaEew7BYbFECX6T95hYGtS17Na6iCHEI8GShMR9tuulLTvKbM7ItZkrttnIlE+sk72i/ol5AhJDYn4Ja28CtfEijYjBLiuIDTeS9+Uc8R1o+AKet3K7/aXpEPtTwwSPPfJ08xHG9rivdEyMgsKuMOwk07BLkhUePRm5x5cksTsQVTbtznFRBDGEwKoIGARAnZS63uN+UG9nZoFhyUFckGZ9phkBVnHb4T8T5hUthhS6QMKX74WLlzzWyEttx7pVCbFJ2HWGGCK0pU5tySHXs4ZsVTtjxoxqZ+qTEEPYKjchIaFaYkiwAGXFkKA8OJYnhtx55522bVtp1HDcakaOHGnf+973jGCsxCd58cUXjQCwSiIgAiIgAiIgAiIgAhUTWLM9yx5sNtyaD57twUrZOQWXFxLbyz7ZdpwLHggM9btNjnTEzjPs6EJCDCkvgCriSHliCNYVxA1BTOk2fpFbneCmg7jB84OEFcdzHRI9cCvCCW48tCWgaVb+US//XYMES1q4MbIrDb+nseLAYoTf5QgbPZOWuNDzzsBZQdd+LCuG8CyCuB4oKLbXuk9xgQerEoK4EpS19bC51rhPsu3LLYrqRxexT0BiSOyvYa3N4HpepKs7iMtXrtjitN1ubYHFxfVmdorpNjLVik+W+M4w7M7SbvBsD4K6dF2GiyKN35sUNZyKxBC+NE+fPedqd1ZuUZQYgkhx/vwl/+JF8Dh/4ZJ/4bPTDIJL64RZbkGCVQfuO9TZdaDAY4AQO4RzRJ9dWfk2GLW93Thv9/jbQ128ebDxQHu1Y6KNnrXaRRW+4Pnirul0PWu4bt06q1+/frUz9UkLFy6scOwVBVCl3fWIIcQVuffee+3LX/6ytztw4IDdeuut1qhRIysqKv2PCX4EVr3lllssNTW1plGqPxEQAREQAREQARGIawKIIQQfxToksAbh9/KzHRJt8ca9LjwgZLATI6msGLJ6e5a98t5kFxMIvkrij49PtRvn1hYIDk0TZnkQVL9p5r8hU1Zttzte729lRQvqEO/jf1/ubQ83H2GdxixwMYRygqciUhDTg6CqxA1hnCTGwNbAWKOTmibMdMuV8anrPdAr4wgnYpzwW5yEFQgxBYPE+b1Nhli9btHvF8F9HWObgMSQ2F6/Wh399bxIV3cgiAzEzCCuxo1kAo72TVxkJ06VGFYis5em28rN+12swKKDvrkOp4rEEOogZvASnVNQHCWGhNuHzwn0es8b/T1gKoFPSefOX7RFabus1YCZ7rLTtNdUt3oZlrzCt9p9psUIF0N6j19ka7Zmet3uo+cbwg4xT7ASSc84VKGgEH7+9Z7XxhpezxjWr19vZ86cKbfJlStXbM2aUlPG8iqwhS6CCYn/zHCvKSkpDbDFNS415aVTp05V+Mzy6qtMBERABERABERABETAPPAoHAKxI2CCMIIoQkIACRJl6fvygksXFBATiAcSTsT64B2gssRvO6w6yqas/GMeyLRseXAdjhkSiBhYloQTzz559pzHDdlxoKDS/sLtgnPmGcw/KNMxPghIDImPdayVWdTGizTiAy4om3fn3FBOz8h1K5DAUuPsufNulYGgcenKFRdFuBdOuLhgQdJhyBw7Vs6XLHULj520jkPnGEFUsTqpKO05UGi4u/RJXOTzoB7/QRC8tfF7k138mDAvzY4Un7FxKWt815meYxe6CJJ35IT/B4LyfDC/2IUbnslONFim1IJhiNXGGlbERuUiIAIiIAIiIAIiIAIiIAIiECsEJIbEykp9BuOMlxdphI4Vm/b59r3hrXnDSBFV2CaXelh6VJSOnypxy5NdWQWRbX6JX1J47JRvE4y1ClYrlOUePu7WK8Unz14TfRrhg51mEGeoV9kzKxpLdcrjZQ2rM1fVEQEREAEREAEREAEREAEREIHqEpAYUl1SdbBevLxIYzWCRUpl5m0Y/rkJXBU7uyBilNeXP+NjE7rAwoOy0lzxh4e61KmtFC9rWFt81K8IiIAIiIAIiIAIiIAIiEDdJCAxpG6ue7VmrRfpamH6XFfSGn6ul0eDEwEREAEREAEREAEREAER+IwISAz5jMDHwmP1Ih0Lq1T5GLWGlfPRXREQAREQAREQAREQAREQgbpJQGJI3Vz3as1aL9LVwvS5rqQ1/FwvjwYnAiIgAiIgAiIgAiIgAiLwGRGQGPIZgY+Fx+pFOhZWqfIxag0r56O7IiACIiACIiACIiACIiACdZOAxJC6ue7VmjUv0sqxz6Bai61KIiACIiACIiACIiACIiACIlCHCEgMqUOLramKgAiIgAiIgAiIgAiIgAiIgAiIgAiYSQzRp0AEREAEREAEREAEREAEREAEREAERKBOEZAYUqeWW5MVAREQAREQAREQAREQAREQAREQARGQGKLPgAiIgAiIgAiIgAiIgAiIgAiIgAiIQJ0iIDGkTi23JisCIiACIiACIiACIiACIiACIiACIiAxRJ8BERABERABERABERABERABERABERCBOkVAYkidWm5NVgREQAREQAREQAREQAREQAREQAREQGKIPgMiIAIiIAIiIAIiIAIiIAIiIAIiIAJ1ioDEkDq13JqsCIiACIiACIiACIiACIiACIiACIiAxBB9BkRABERABERABERABERABERABERABOoUAYkhdWq5NVkREAEREAEREAEREAEREAEREAEREAGJIfoMiIAIiIAIiIAIiIAIiIAIiIAIiIAI1CkCEkPq1HJrsiIgAiIgAiIgAiIgAiIgAiIgAiIgAhJD9BkQAREQAREQAREQAREQAREQAREQARGoUwQkhtSp5dZkRUAEREAEREAEREAEREAEREAEREAEJIboM1AhgfzCI6YsBvoM6DOgz4A+A/oM6DOgz4A+A/oM6DOgz8CRCt+bdCM2CUgMic1106hFQAREQAREQAREQAREQAREQAREQARukIDEkBsEp2YiIAIiIAIiIAIiIAIiIAIiIAIiIAKxSUBiSGyum0YtAiIgAiIgAiIgAiIgAiIgAiIgAiJwgwQkhtwgODUTAREQAREQAREQAREQAREQAREQARGITQISQ2Jz3TRqERABERABERABERABERABERABERCBGyQgMeQGwamZCIiACIiACIiACIiACIiACIiACIhAbBKQGBKb66ZRi4AIiIAIiIAIiIAIiIAIiIAIiIAI3CABiSE3CE7NREAEREAEREAEREAEREAEREAEREAEYpOAxJDYXDeNWgREQAREQAREQAREQAREQAREQARE4AYJSAy5QXBqJgIiIAIiIAIiIAIiIAIiIAIiIAIiEJsEJIbE5rpp1CIgAiIgAiIgAiIgAiIgAiIgAiIgAjdIQGLIDYJTMxEQAREQAREQAREQAREQAREQAREQgdgkIDEkNtdNoxYBERABERABERABERABERABERABEbhBAhJDbhCcmomACIiACIiACIiACIiACIiACIiACMQmAYkhsbluGrUIiIAIiIAIiIAIiIAIiIAIiIAIiMANEpAYcoPg6kKz/MIjphz7DOrCZ1VzFAEREAEREAEREAEREAEREIHrISAx5Hpo1bG6CCFKsU1Aaxjb66fRi4AIiIAIiIAIiIAIiIAI1A4BiSG1wzUuetWLdOwvo9Yw9tdQMxABERABERABERABERABEah5AhJDap5p3PSoF+nYX0qtYeyvoWYgAiIgAiIgAiIgAiIgAiJQ8wQkhtQ807jpUS/Ssb+UWsPYX0PNQAREQAREQAREQAREQAREoOYJSAypeaZx06NepGN/KbWGsb+GmoEIiIAIiIAIiIAIiIAIiEDNE5AYUvNM46ZHvUjH/lJqDWN/DTUDERABERABERABERABERCBmicgMaTmmcZNj3qRjv2l1BrG/hpqBiIgAiIgAiIgAiIgAiIgAjVPQGJIzTONmx71Il3xUn5U8a3P1R2t4edqOTQYERABERABERABERABERCBzwkBiSGfk4X4PA6jshfpK1eu2sXLV+zipfLzpctX7OpHH9nVqx95nfMXLvn15StXjfzRRx/ZhYuXPdMX9ahz7vxFL6M9+cLF0jKe5f19VFqv5MMLdvbctfnCpcveN8+gv5IPL/rxMu2vfmSIGEGfAfOS86V1guuLly57G54fpNK5XDX6od+TZ875OK9eZexBLp0rc2B8zI+6ZTP1w4nnwYAx04ZxBonzivoJ+oVNRamyNayozY2UL1y40LZs2RJpevHiRecSFPTp08eOHTsWXNrJkydtwYIFNmvWLEtLS4uUjx8/3i5fvmytW7eOlIVPCgsLbdOmTRXmzZs3h6v7+ZUrV2zv3r02ffp027p16zX3+/fvbwUFBVHllOXl5UWVcdGpUyf78MMPrykvW8D4c3NzyxZHXR85csSYT5Dpt6io6Jp8/vz5qHbBRUpKirPi+vTp0zZnzpzgVtTx3LlzVlxcXGWGu5IIiIAIiIAIiEDdIMBv5vxjJ6/JhcWnKwWQcfCIvwNQiT74zUs6UFBs41PXR9oeOnw8cl72ZNXWTBuZsrZscdQ17wokntFxzIKoe7NWbrOVWzOjyrjILTpxTVl5BQnJKyLFJ86UGHMqL23KOGRTl2zxsTIOpfgjIDEk/ta0xmZU2Yv0idMllnv4uB0sKL4m5xQUW96REy4C8AW5eXeOLUnb7dfFJ0uMzAv+lj2HbHHabqOv02fP2er0TK+3dmum5RedsD0HCm39jmxLXrTRnxW8/C9dl2HTFm+2qQs2XpPT9+b6FzTt123Psvmrd/gzCo+edPEEIYL2C9fuinBKXrTJlq3LML5z+eLde/CwTV+8yQ4VFkfq8OzTZ8/bkeIzxvh6jl1oGdmFLoogjJARVfblHLF5K7bZ9MWbLW1blm3YkW1rtmb63JgfmfkGieftyiqw46dKrOjEWb8Ps0AQOVNy3vmt+bht0Ef4yDMrSpWtYXltHn/8cfv5z39eZaZeODVt2tRGjRoVKXrooYfsgw8+iFz/5Cc/sczMT/7TatCggX3nO9+xH/7wh/arX/3KGjZsaCtWrLAvfvGL9vTTT9tXvvIVe+aZZ2zgwIGRPjjp1q2b/eIXv7DXXnut3Ez7IJ04ccJuv/12+4d/+Af727/9W3vsscds/vz5dvDgQXvuuefs7NmzXvXXv/61bd++PWjmx7vvvtu2bdsWVcYFYz516lRUOSLCjh07Ipl5MH6El3B5cF5SUrr+X/3qV+1nP/uZ57/7u7+zxMRE+5d/+ZdIGfeoM3HixKjncUHfsAt+KDCXr3/96y54lK3cr18/+973vldp/tKXvmQrV64s21TXIiACIiACIiACcUpgW2a+3dVooP3w6W7252bDPX/74fb2WJsxLmogbAQ5aeHGCIX3EhfZIy1H+m9fRIlGvZP93tod2fZch0Q/35KRaw81HxH5nbIgbbfNXrk9khFCvvdEF6N9uHzhut2R5zzeZozxXH4X//SFnnbuwiU7WFjsufng2dZ3yrLINX/ApN7vGyXYvDU7bf2ug/bjZ7vb3X8d7Pn7T3a1gmOnLGnRJu//f17qFXlO+v48+2X9Ppa+79o/gtFX62FzbcrizdY0YWakjU7ih4DEkPhZyxqfSWUv0pPnb7C3ekyxdwfOshfeHWMt+k63Rl2T7PXOE6xNwix7873Jlplb5C/5k1LXW69xC11MSEhaYmQsNhAM3hs13xBPED6a95lu7/ROtvZDUow23UfP9/uN35tkQ6cut027DrqQ0GrATOs/cYmXUR7kpr2m2sR5aS60IBZ0GTHPmvZKtvEpay0776gNnLzU9hwosHEpay0pdb1bLhw+dsqf2TdxsdeZtTTdBk5aaq92TLSR01da6srttjMz38WTwVOWWefhc61e+3H2SodE77/3+EVG7pO4yGYs2WzTFm8yxkd/A5KW2BtdJlrbQbNt5IxVNmTKcnu+9Wjvj8VCEIJR64SZLvpk5xc7pznLtxkiCAmBZOzsNT7ffomLrWx+o/NEL6to8Stbw/La3HrrrW5FgaUBL9FYOHCOeMHLOudYWVAvnK5XDGnRooWLEk2aNLGEhAS3whgyZIgtX77cDhw44KLDoUOH3Eoi/BzEkFdeecVSU1PLzV/+8pfD1S0rK8sFAoSCcOrZs6f9+Mc/tpycHAuLIcePH3dRAEFozJgx3v6+++6zu+66yzNiy5133hm5RuDB6uKee+6J5H/6p3/yvsNl4fNAZEHoIDHG3/3ud27ZUa9evfAw7Z133ilXDHnqqacsKSkpqm6bNm2sQ4cOUWXVvXjooYclhlQXluqJgAiIgAiIQJwQ2Lgnx+p1mxSZDQLChxcv2V9ajbL63SZbn8lLrVfSErvtmfcidTgZl7rOnmo3zsue7zjBlm3eb4EYgjBxX5Mhtj+3KNLmJ8/1sFZD51j7UakV5hZDUlz0CBodP11ib/WbYUs27fNyxIoXOk30/OtX+7qQE1wfOX7Gmx07VWLPdki0JRv3WsuhcwzrFH5LP91+vIshf2hU+ke2sBhCw50HCu2PjQdZZt5Rfx7PJHdPXOwCD+f9py6PWMEEY9Qx9glIDIn9Nay1GVT2Io1Q0G5wim3YmW3PtxljH2zYa52Hz7MOQ+fY8o377PnWY9zi4diJszYuZY3fw3oCMYGMi0vS++utw5A5bmERtG/Rb4a1GjDDBQwEBl7+X2gzxoZOXeGWFsWnSgxxpEXfGdZx6JyojNAwZtZqd7XBamPE9JX2crtxLmRk5R215IUbXVgYPm2F949byvKNe+25VqOtUbdJboHRY8wCP6ddk55T/fmMDbFmUdouS5i0xO5r0N8FmAnz0nwOCEMzFm+2bXtzDSuTdoNnu9DDc55tOcoFI6xYEuem2QONEmzLnhx3AcJ6pd/ExW5lgpUNFiOIL2/3SnbBhOv8IydswZqdNm/ldrc4weqE/P7K7W758tfuU5xnRR+CytawvDaIHPn5+X5r6NCh1rFjRz9/6623bNq0aX7O/ZsRQ7DOeeSRR+zf/u3fDKHhn//5n/169OjRdu+999q///u/2y233OKiA/XCCTHk0UcfNYST8jIWDkHC7SQ9Pd1Wr17tFhacI7QECUGFe2ExBOsNrE4QT3hOcnKyIcogmpAZF3WCa9yBwmndunX2jW98I2J1Er5X9jwQQ1q2bOnCBm4ulP3mN7+JZMZR1jIEAebb3/52xEUm6Be3m6997WuGoBOkCxcu2Jtvvllhbt68uVeVGBIQ01EEREAEREAE6g4BxBCsQoKX/x89290nn7w03QYkL/fzrZn59mjr0X6ORSrXJNy0ud6eVeBuJimrtrtVCdYbWIKc+vgPe9RFDMFyI0jNB6e49UZwzfHk2XNRYghlWIMgvGAZEk6dxy6McskJ7gXPSNt50MWQYbPWuKVIVWII7XkvgEdYsHm5S5L9tsGASNnhj0WX4Hk6xj4BiSGxv4a1NoPKXqQRQxArEDuwktifU2TDklfYgIlL3G3mpbbjQmLIWreiqEgMwU1kxaa91rBrkr/YN+yWZKNmrnILjk7D5rg4gfCBJQkCwdu9k13owMID8QPLEM6xLMEKhJgduMG83nmiPd1ihLUdNMtdVXBXwaVk9MzVETEEywysWbBGYRyIO4gbDbok2exl6bZtb5678CDepGccsmZ9ptkjbw22ARMX+3yx9sCSBOsNXH0QLRBDYIGI8cK7Yw2LFWeTtMTubzjAxRAsUia+n+YWNTv251tWbpEVHT9jxSfPuqVJ15Gpbi2CKxGcsaAJZ6xRcD1q2W9GrYkhiA3EyCDVpBhCf8TxwA0EwQK3l6VLl3pMEdxiOnfu7JYoa9eutcGDB0fF7kAMQUDp0qVLufkf//ETNxncYR544AEXO/7+7//ez2nftWtXwzIkSGExJCi7HjeZoA3uL4gUWIaU55bSrl27oKofET4QUxCWiAuCGIL7zpkzZyIZISMshsDrpz/9qU2aVPpXHJ4ZjncCO9yOqEeCM4JPRTmI1yIxJGppdCECIiACIiACdYIAL/9YWXQYPd9zYAGyK7vQ3ug51RkgigQxO/gtjysKAgUJK2dcax54Z1hUxu0Eq4og4f6C2EDCwoP7ZWPecZ36sRs7wkj7UfN9bAgfgRjCc4fMXOXizMtdJ/n5jOWlbs1Yd+AWwxirK4bMXb3Dnnh3rOdA5AnGzDFtZ3aEQ7hc5/FDQGJI/Kxljc+kKjGk19iFHhuEF37EkKHJK6xv4iLbl1NkL7Yd6+ICpmkIFbi8VCSG0BahAVcbXvBxKyEmB641WEAMTV7uliUpH2zzPngG4gjiABYijzYd4ue4xWBZgQsOz31vVKqPA1Fj1tIt7g5DjBMsOhgTX8rE6vhrjynWadhct7RAQGnQNcnzqx0nGJYXuKxgxcEcHmkyxK1ZJr2/3uOVTJibZl2Gz7MGXSZ6LJT3V213SxDcZIgt8lK7cT4PYn4Qq+Sxt4d6rJQPNmS4Ow0xUXCPwaUGyxVikxCXBAsVxslzsV7BbQhLGvKk1A22YPVOZ4ElDpY2FaXK1rC8NmHLkNdff92DjlKvKjGkcePGRvDTIFUWMwRXm9/+9rdu2bFv3z777ne/67FAJk+ebLh/IAZgkfG///u/7o5CANAgLVmyxN577z2bOXOmZ1x5+vbtG7mePXtWUDVybNWqlSGS7NpVGieG4K1YXzBmrFQqEkMIxkob6iFAkL/whS+4CwznuLAECfEBVxjieITLg/tYocAznBBDsPJAOEG0QAzBPad3796RjEtOIIbw15cnnnjCrTyCfnr16uXxVoJrji+//LILP0FAVOaIK07ZjCVJkCSGBCR0FAEREAEREIG6Q6A8NxlmjzDxf6/1880LHm450uas3hGBQsBR3GBwi0EMCYSKSAUzm7BgQ0QM2XPwsP3xzUGRjCsOoku4LHxOLBNcdcbMS/M/cBKTj2fwLISRiQs2RuVwnJHpH2x1N5nqiiG44hA8FXeb5emZ/rxw/4s3ZETioITnp/P4ISAxJH7WssZnUtmLNJYhxMYgRgfiBQFTcQt5rdMEj2+BewiWFlhAUI6ggahQnpsM1hqIIcTOaPZx3BCsPHCHQaRo0nOKW3IUHjvplhNYQ3CP+CJYpdz9ej93LUEY8dgf+cUeh+Sp5sPtwUYJbs1BvJGFa3d6jA6sNLAmOXzspI2bvcYFCqxScD/B1Wfygo22aVeOTXx/vRGTA4Fi4KQl3s+zrUZ53A9cWRgjVh+IJmExBCGD4Km41GCZ8krHRLduYS7EWMGFBwsXmCHcjJi20sWfTbsP2uY9Oe5ChDsQAVuxFkmYtNSFmGmLNlnywk3WdUSqW5/QR8CzosWvbA3LaxOIIbxAf+tb34rE7KhKDHnwwQc9AGrQZ2ViCHU2bNhgI0eOtOeffz6SsYoIX7MDTdmECwvxRmhPJpYJIkNwzTEQPWiL8IElCYFJ77jjDreQoBz3kbfffttdSsqKIUePHnXh45vf/KYLPLidfP/737fdu3dHdn4h4CsWJiSsM4j50ahRIxdxiEXC/XD+05/+VK4YQnvipuCShBjyy1/+0kWi//zP/3RBBOscBCMSz7///vsj7jFYleC2U3bXG0QQ1gO3IBIxTRCDwnFLEF2efPJJv88/EkMiKHQiAiIgAiIgAnWGAGIIcTRGzF7rObAMAQDxOggg+oOnuvkmAWEoCBMkjv/1lw5G3JBwJjBrYBmCsELwUvJoXMbfGeY72ARlDXslW6cxCyN12LWFuCMIFeSjJ8+6pQfuN1iUcAzuBcfwDpC45wRiyJCZq6vlJtO4zzQXQ3CzwRKG4K69Jy11wYdAsErxS0BiSPyu7U3PrLIXacQQBAHiYCBk8FKPqDF3xTbDgiOIGULgUlxQpi7Y4L6Cwct7OGYIlhF5h49bt5Gp7nKyYtM+7xcRBTeVkTNW+o4ygZUEFiSjZqxy1xT6u79hf79OTFnru8LQF6JBp+FzrVG3JI9ZMnzaSre2wOIE6w/ED3ayQbBByMAV5UjxabfmCAZL4gAAIABJREFUIG4JVi5Yn2DNgTCwL+ewW2gQW6T1gJmR5xOXhNgpYTGEeWDxgSXJk82Gu9XHkKnLvR5iSNq2TN/eF0sZ5oqohHiChQz1sAJhxx2eW3T8rMctQQCZuWSLuwohqtCmtsSQ7OxsY7cYhIYgYYHBTipYHYwbN+6amCFYNwSxRmhTlRhCnZdeesl3i9m4caORly1b5qIG5xMmTHARI3g+R7bmJR5HWDBhlxrEh3BZ4I6CJQXzYCteYm8gGiAChC0msMz4wQ9+4MIFriRjx441RBCsNnDTCRLzx8WGhNjCbjGIDCR2dsGdhecRVwXrDXaUCecePXpUKIbAG5chxJAggCoWH7jCIIT8/ve/d/HGHxb6Z9CgQRGrEObE+BgDKThyzjhZn3BatWqVxJAwEJ2LgAiIgAiIQB0kgBhC4NCx76d5DmKGgGLD7hz72Yu9rNmg2deQ2ZtzxNqOmOdiCJYeZbfoHThtRUQMCRoT/+MX9foYlh9Bwirj1sc7GX8EDCdcVu5vMjQqI9R89/FOPqay98IuLoOmr7QV6ZkeM4SgrWzjW1XMkEAMCcZAgFWEHixUGLNS/BKQGBK/a3vTM6tKDMEyY+Xm/S5YEGB0x74827jzoG9nS1DS7fvyfKtYdp3BZYQvlSDuRVkx5MixU757CzE/CFiKgNJ1xDwXIIitgcCCiwviBTE/eo5Z6OIGlhn3vtHfhRTcanCHIRjpis37jZ1h6IedZVZu2e/Cw6bdOW6FgVtKftFJt76gD6wvECcyDhRahyEphlUJogNiDDFIGDtb7mJ9gvUKYhBiDSIKFiKIJAgYuMkg1iC6EEfk2dajPUgqVinUYYz0w7MQWHDJYZcbxBC2IGZL3xffHesxTlC2cePhOa0TZvl8ac+4sD5BREJcgVNFqbI1LK8NliFsicsuMuEXas63bNniu72sX78+SgzhHnEywvWrK4YsWrTIh4GbCCIElhwknoVFRzjhQsMOL2wjG2QCvLZt2zZyTTl9kRBtCBAabDtL2aVLlzxA6o9uu82tRXB3Yey4tuzZs8frIkKVjRmCGwxCCgIJMU4GDBgQHlrkHDEE6w1cfsIZa5by3GRoSLyQf/3Xf40SQ7BOQSC57bbbXMyJPODjE7b3xXokLEAhVCEilU0SQ8oS0bUIiIAIiIAIiAAEynOTyTl83LDOQLxAqCAYatmE1QixOvh9zLa1U5dsicpv9p1+jRhCv692n+IxR9gWl2u28Q0CtZZ9RnDNOIhZQtBVrEQI5squMbjEs/1ubtGJoKqf3/PW4IhlCMFh2dWG5xL8tKLdZAIxBPGDFIghnP/qlb7+B0reXcIWKJGH6iSmCUgMienlq93BV/YiTcyN1ztNiNrNBUsKhATcWF5uN97FELawbZNQasXAS2bS++zAkuaWJGxFi/UEL/VYlyAesLsK/RAYdebSLe5ew8v+6Jmr3NqCwKgejHTiEuszfpGLAbiiID7gIkPgVawy8C/E6qLn2AVucXHx0hX/Arv60UduXTFl/ga7evUj33ILCxe2zUXYoQ8CoCKWMA7K2VqXL7/s/KNeRiBX3H927M/zOB+Mj9gdCByIHsQQwaKE7bywQEEMGjRlmbvhtB8yx4Os0h4LkKeaj3BecEDoIO4J2xLTX0b2YbemIYgqQsmhwuNWePSU8yJWCbzoG+uUilJla1hem8BNprx7QVnZ3WSw6CC+RzhdrxjSvXv3KEuFsmIIn51mzZq5WwsBQoOMpch//Md/RK4pxyKDlJGRERFJwlvrYhWBNUYg3pR1k6FtWTGEMsQSdqtB7KgoIYbQHy404YzlSnliCAFiceFBLAlbhtA/bYh3Ul7Cqmb48OFRtxBQsHIJx1ihAm4+iC3EZgkyQkr9+vUj7eUmE0GhExEQAREQARGoEwSInUcAUeJ/9JuyzAhIesuDbQ0xAUsNrokXwm4qwS4tgMG9BXcVfhsjhvz3411s+Ow1URnxIXCTKQuTmCODZ6zywKsEX8Vyo7y0JSPX3h0xz25/vocHUw3qENwVQYRxheOFcB/XFnaQIeGeQ3BYLFH4/U/qMbE0qCtiRzghhhCPBEsSEvfZrpe27CizOSPXZq7YZiNTPrEaDrfXeewSkBgSu2tX6yOv7EWal322i8VaI5xxi8GaYtDkZf7SjuvMnqzCyFhRVckXL112kQGrDQKGIjggeBBANaew2MUSXoCpi1hCEFHq7D14xAhGSrvy8gYPSHrMv/SwwFiweoe7v0QGgAq+86Ct25Zlly9f8e1wERXof/7qHTZjyRYXOnguYkbqqu1uycGXfcHRkx54FSuOUnGkOLKbDc+9cPGS9z17abqPm+9dhBNEFuZIH/DIzj/mwsmxE2c8fgj8iB9SePSkP7vw2Cl3N6KsvETsFcaKIDJn+TYfZ3n1KKtsDctrgxiClQS7yFSUuU89ElYYWC+wG0w4VUcMYXtaXFN46ccKgi1scXnBVWT69Ol+He6zvHOCqbKzTGUpbBlSXr3yxBACl27bVhqdHBcU4pvgaoI4QeyRF198McoqI+gXMeR6AqhiFYK1CgkxJNg2GCuUoqIi32qYmCKBcEM93GFuv/12dy1KSUnxHXcYFzFX2Fq3ffv2wXCqfWROiERKIiACIiACIiACdYPAmu1Z9mCz4dZ88GwPVsrOKbi8kNhe9sm24/z3LgJD/W6TI1DYeYYdXUj8ti0vgCriSHliCL+viRuCmNJt/CK3OsFNB3GD5wcJK47nOiR64FaEE9x4aEtA06z8o17+uwYJlrRwY2RXGgQPrDiwGOF3E8JGz6QlLvS8MzA6wH5ZMYRnEcT1QEGxvdZ9igs8WJUQxJWgrK2HzbXGfZJtX25RMEQd44SAxJA4WcjamEZlL9IEFSVOCBYX0fmyfzHywo4iG6jGwfiwxiDzJYUgghkeogTntMElhf68jpkfueZ5fOHSJ+eVZZ5Jom/a0H84+XMvXjLECu6jdpe6wjCnUhM4nk8/585f8mcyXq6D55aO/4rXZ9wIIZTRH3VoT6Jf+rh8+Wrp/Y+DQiH0XLlytXROH1ut0H+Q6YPz8hJ90y//KWABU1E92la2huX1jciBtULYxaPsOfcDMYTdWx555JFrumLLViwVgkRsD+JzBIkXd9xieAnHtSNwbUF4QFh544033A3k4YcfNnafITVt2tS3rmX72iAT24McXAdHRIkgXY8YQlyRe++917785S+7VcmBAwd8rgRHRZwgsc7snEPwUnaJCaeyYghuPwRSZf5sextOjDucsCRBBCFeCNsCkwiSCt+pU0u3t6MMoYbdeIiHQt+IQUlJSe7Cg8CE1Ud4u93wM8LniDCPPfaYB1bF4iXgHK6jcxEQAREQAREQgbpDADGE4KNYhwTWIIgMz3ZItMUb9/pvYoQMfvuS+N0bFkNWb8+yV96b7GICwVdJ/HZ/qt04t7ZAcGiaMMuDoPrNj39Xpazabne83t/KihbUId7H/77c2x5uPsI6jVngYgjlBE9FpCCmB0FViRvCOEmMga2B+b1Napow0y1Xxqeu90CvjCOciHHC72oSViC8QwSJ83ubDLF63SYFRTrGEQGJIXG0mDU9let9ka7p56u/mydwvWvIC3/wH0dFT+d+IAxwHgQSrag+5QRFJe5GkNgZBauIyhJ9B9YZldWr6h5Cy5o1pSaT5dVlC10EExLPxL2GHWKCa1xqykvE7WAb4HBiu9pg95egfOXKlT7/QPAJyhcsWBCc+pFnl5cQiMjVTVjYVDcR/JW1CeZb3XaqJwIiIAIiIAIiEH8ECDxKCsSOYIYII4GrCQJIkChL35cXXLqggJhAPJBwItYHbjmVJX4HYdVRNmXlH/NApmXLg+twzJBAxMCyJJx49smz5zxuyI4DBZX2F24XnDPPYP5BmY7xQUBiSHysY63M4npfpGtlEOr0pghoDW8KnxqLgAiIgAiIgAiIgAiIgAjEKQGJIXG6sDUxLb1I1wTFz7YPreFny19PFwEREAEREAEREAEREAER+HwSkBjy+VyXz8Wo9CL9uViGmxqE1vCm8KmxCIiACIiACIiACIiACIhAnBKQGBKnC1sT09KLdE1Q/Gz70Bp+tvz1dBEQAREQAREQAREQAREQgc8nAYkhn891+VyMSi/Sn4tluKlBaA1vCp8ai4AIiIAIiIAIiIAIiIAIxCkBiSFxurA1MS29SNcExc+2D63hZ8tfTxcBERABERABERABERABEfh8EpAY8vlcl8/FqPQi/blYhpsahNbwpvCpsQiIgAiIgAiIgAiIgAiIQJwSkBgSpwtbE9PiRVo59hnUxGdBfYiACIiACIiACIiACIiACIhAPBGQGBJPq6m5iIAIiIAIiIAIiIAIiIAIiIAIiIAIVElAYkiViFRBBERABERABERABERABERABERABEQgnghIDImn1dRcREAEREAEREAEREAEREAEREAEREAEqiQgMaRKRKogAiIgAiIgAiIgAiIgAiIgAiIgAiIQTwQkhsTTamouIiACIiACIiACIiACIiACIiACIiACVRKQGFIlIlUQAREQAREQAREQAREQAREQAREQARGIJwISQ+JpNTUXERABERABERABERABERABERABERCBKglIDKkSkSqIgAiIgAiIgAiIgAiIgAiIgAiIgAjEEwGJIfG0mpqLCIiACIiACIiACIiACIiACIiACIhAlQQkhlSJSBVEQAREQAREQAREQAREQAREQAREQATiiYDEkHhaTc1FBERABERABERABERABERABERABESgSgISQ6pEpAoiIAIiIAIiIAIiIAIiIAIiIAIiIALxREBiSDytpuYiAiIgAiIgAiIgAiIgAiIgAiIgAiJQJQGJIVUiUgUREAEREAEREAEREAEREAEREAEREIF4IiAxJJ5WU3MRAREQAREQAREQAREQAREQAREQARGokoDEkCoR1d0K+YVHTFkM9BnQZ0CfAX0G9BnQZ0CfAX0G9BnQZ0CfgSN198UwTmcuMSROF1bTEgEREAEREAEREAEREAEREAEREAERKJ+AxJDyuahUBERABERABERABERABERABERABEQgTglIDInThdW0REAEREAEREAEREAEREAEREAEREAEyicgMaR8LioVAREQAREQAREQAREQAREQAREQARGIUwISQ+J0YTUtERABERABERABERABERABERABERCB8glIDCmfi0pFQAREQAREQAREQAREQAREQAREQATilIDEkDhdWE1LBERABERABERABERABERABERABESgfAISQ8rnolIREAEREAEREAEREAEREAEREAEREIE4JSAxJE4XVtMSAREQAREQAREQAREQAREQAREQAREon4DEkPK5qFQEREAEREAEREAEREAEREAEREAERCBOCUgMidOF1bREQAREQAREQAREQAREQAREQAREQATKJyAxpHwuKhUBERABERABERABERABERABERABEYhTAhJD4nRhNS0REAEREAEREAEREAEREAEREAEREIHyCUgMKZ+LSkVABERABERABERABERABERABERABOKUgMSQOF1YTUsEREAEREAEREAEREAEREAEREAERKB8AhJDyueiUjPLLzyiHAcM9GEWAREQAREQAREQAREQAREQARGIJiAxJJqHrkIEEEOUYpuA1jC210+jFwEREAEREAEREAEREAERqB0CEkNqh2tc9KoX6dhfRq1h7K+hZiACIiACIiACIiACIiACIlDzBCSG1DzTuOlRL9Kxv5Raw9hfQ81ABERABERABERABERABESg5glIDKl5pnHTo16kY38ptYaxv4aagQiIgAiIgAiIgAiIgAiIQM0TkBhS80zjpke9SMf+UmoNY38NNQMREAEREAEREAEREAEREIGaJyAxpOaZxk2PepGO/aXUGsb+GmoGIiACIiACIiACIiACIiACNU9AYkjNM42bHm/2RfrS5St2/sIlu3Dp8jVMPjKzq1ev+r3LV65ec7+2Cy5eumLHT5XY2XMXrLLnf/TRR8Y8Sj68aLSpTqINdU+cLvG2zDVIzPn02XNW8uEFo15VCXaMk/5oe7UabcJ93uwahvvSuQiIgAiIgAiIgAiIgAiIgAjECwGJIfGykrUwj6pepHkvRygoPlliR0+ejWSuT589bzkFxbY6PdN2ZuZb0fEzdu78RX+hZ6gIEPlFJ23t1kzLzjvq97Pzi61sPlhQbBcuXjZkA4QB+i5bp6Jr6iLG8Nzw+DjPyD5so2eutnkrtlnu4ePX3KcdY0QsYQzzV+/weSCK0B/3ETuOFJ+x/KITXudI8WkvhwltxqWstcPHTtnVq6WiB+LHqZJzNmPJZlu5eV+lIkywnHmHj9uoGau8v8KjJy0r76gdO3G22qJIVWsYPEdHERABERABERABERABERABEahLBCSG1KXVvs65VvUizUs+Vguzl6bbzKVbIpnrFZv22YI1O61Zn2QbPXOVJaWut/SMQy6SMIyS8xdtzvJt9mb3yTZt8SYbNXOVdRo2N5I7Dp1j7w6cZc37TDdEBoQEnjVu9hp7p3eytRow09okzPJMvSBT1nrATGs7aLYlvZ/mIgvCR8oH23ycjI08ZOpye6DRQGvQNckS56Z9cu+DdK97qLDYn7d5d46LF081H2EDkpb4HHbsz3dRInXVdm87eOoy6zJing2asszFDyw/FqXtsj++2tc27TpoZ0rOu6iCiLHrQIG93G6cdRuZaoePnbQTp0r8PgIK4hLzDOeNuw7avW/0t1Vb9nufnYfNtbkrtrmlSiCyVLasVa1hZW3D944ePWqdO3e2goICS0lJCd+KnI8YMcIuXbpkeXl5lpubG5WPHz8eqcfJuXPnrKioqMpcXFwc1S58kZWVZW3btg0XlXuen59vr7/+ern3KKSf2bNnRd3v37+/zyOq0Mw6depkH374Ydnicq9feeUVL1+1apVt3ry53DoqFAEREAEREAEREIHPggB/ZMw/dvKaXFh8utLhZBw8Yhcvl1pL0wfWzqQDBcU2PnV9pO2hw9G//SI3zGzV1kwbmbI2XHTNOb+HSTyj45gFUfdnrdxmK7dmRpVxkVt04pqy8goSkldEik+cKTHmVF7alHHIpi7Z4mNlHErxR0BiSPytaY3NqKoXaSwnsnKPWr124+3Fd8dGMtddhs+16Ys22Vs9ptjAyUutb+Iie7VjoluC8BJ/8kyJdR2Zai36TjcEByxIeMkP8vTFm63n2IV29+v9XGBgUgVHT1q7wSn2h1f72l+7T3FBpFW/mdY64ZPcrM90a9or2UWSifPSDGuKxWm7rXXCLOMeQsrbvZO9TpOeU/34dq/SMu617DfD227Zc8jStmXaC++OtSebDbfH3h5qTzYbZs+2HGWvdkh08aR++/HWsGuSdR8930ZMX2lL1u02LDm278uzoVOX250v9TbGwNyYP2N+o/NEFzceeWuwvfneZGMMfcYvsoP5xW4pgsVJODOGe97obx9s3GuZOUU2LHm5vdJhvK3fkV1qaVOF20xVa1j2w8JL+3333ReVu3TpYocOHbLvf//7LgTcdttttmfPnqimW7dutR/84Adedv/999sf/vCHSP7xj39sL730UlT9Hj162Ne//nXjXmX5oYce8nbZ2dnWqlWrqPzOO+/Y3/zN31jz5s2jyqmXk5Pjwg0CDvmf//mfrUWLFn4+c+ZMGzp0qP3+97+33/3ud/bYY49Z7969I1ZLPPDuu++2bdu2RY2Zi+985zt26tSpa8rLK/jKV77ixbt27fJ2CERKIiACIiACIiACIvB5ILAtM9/uajTQfvh0N/tzs+Gev/1we3uszRgXNRA2gpy0cGNkyO8lLrJHWo60k2fOGaJEo97Jfm/tjmx7rkOin2/JyLWHmo+IuIQvSNtts1duj2SEkO890cXbh8sXrtsdec7jbcYYz0Vs+ekLPe3chUt2sLDYc/PBs63vlGWR61KX9gv2+0YJNm/NTlu/66D9+NnudvdfB3v+/pNdreDYKUtatMn7/5+XekWek74/z35Zv4+l78uLlAUn9NV62FybsnizNU2YGRTrGEcEJIbE0WLW9FSqepHGXYSXfyw+EA/CeWdmgb2/cru92mmCW1Rwb1jyCtuVVeBWDdl5xwxBYEDSYkteuNEGT1nm9bC+IPcev8gadZtkd9XvawMnLXUXlZzCYms3eLbd26C/CxW0w6Jk78HD7q6C8IFFRrM+02zh2p3uUlOqWF90sWFo8grD4qTD0DnWefi8qEwZ1hpYkOA2gyDB3BImLXEBBbcWBI+/dp/sLjO41yCiYAGDOw7/IWDtgltMQtISF01+82Ive67VaBdEJs/fYIMmL7UeYxbYw28NtpfajvN5YqEydcHGiEtRr3ELLZxb9J1hv325t4+h64h5Lh491Xy4cY5wxHMrS1WtYdm2JSUllpGREZWxrDh8+LB9+9vf9upr1qxxUSHc9rXXXrPBgweHiyLnqamp5YohCQkJkTplTxYsWGBhq5Bjx47Z9OnTq51pSx4wYIAhvCQmJnpu0qSJYanx/PPPG6JI2YQFy8qVK+3nP/+5jRkzxq1GEIfuuusuz1/84hftzjvvjFxnZl77V4mgz0AM4XrevHmGeKMkAiIgAiIgAiIgAp8XAhv35Fi9bpMiw0FA+PDiJftLq1FWv9tk6zN5qfVKWmK3PfNepA4n41LX2VPtxnnZ8x0n2LLN+y0QQxAm7msyxPbnFkXa/OS5HtZq6BxrPyq1wtxiSIqLHkGj46dL7K1+M2zJpn1ejljxQqeJnn/9al8XcoLrI8fPeLNjp0rs2Q6JtmTjXms5dI5hnVJ04qw93X68iyF/aDTQ64XFEAp2Hii0PzYeZJl5R/15PJPcPXGxCzyc95+6PGIFE4xRx9gnIDEk9tew1mZQ1Yv0/pwjbt3hlhkDZpZaanx8xFWlfofx9mjTIcbLOxYXCAmIHrTDbeb39fq4EELsDtxh6rUf730gTHQYUuomgxVH+yEptm57th0qPO6WIfc3HGAZ2YU2csZKa/zeJBsza7XH7cg4UOhWGg26JLlAE5jwAYj4HrjS8Iy+iYtt5IxVUZky2k18f727tJw7f8nHOWFumuEig8vPuwNnuovLBxv22uxlW0qFkVU7LDO3KJIRZJgf7jx3vtTLZi3d4tcILAhBKzfvd6GkTcJM27Y3z+eBxQvjW7C61K0I1yIyljQP/XWQ9/NAowR7vfMEa9prqluTwItn4JJTWapqDcNtebF/8803y82vvvqqfelLX4q6d+DAAW+OmwkiAdYbf/nLX+z222+PyrfeeqtbgVCOBQkJgQIxhLa//OUv3ZIjGAtWHV/72tfchSYoC4644GCB8sgjj1yTf/jDH0b1Q5slS5a48MH56tWr7dFHH/WuEEMWLlwYdBs57tixwxB2sFqhbnJyslvFMCbyLbfcYtQJri9evOh/9cANp2z+u7/7u2vKqHPlSvUC8UYGpRMREAEREAEREAERqAUCiCFYhQQv/z96trs/JXlpug1IXu7nWzPz7dHWo/0c1xWuSfzO5np7VoG7maSs2u5WJVhvYAlyquS81+MfxJDAnYbr5oNT3HojUsHMTp49FyWGcA9rEIQXLEPCqfPYhVEuOcG94BlpOw+6GDJs1hq3FKlKDKE9Fu/wCAs2L3dJst82GBApO/yx6BI8T8fYJyAxJPbXsNZmUNWLdHb+URs+baVbO+AG0mX4PI/XQeyPfomLrcOQFHukyRB7rtWoiNUH4gCCwGudJhiWE1hi4GqD2PBGl4ke0BTXENxAyBt2ZNueA4UuFuQdORERQ7Jyi2xfzhFLmLTUnm092vsnTgj9YoVB0NVg5xWOWG+0GzTb3VSwPBk7e01Upgw3FtxaiPGBxcWU+RusZb9SAeSFd8e4qPNKh0Sf16TU9YabzFs9prq1SYt+MzxuCPFECB6LhQoWHViOEH9k3srtblkyaPIye7r5CHevITAqli1YzRColZgiiDxk+hmfstYeenOQc0IMwRImPSP34zqHrfDYyXJ36gl/IKpaw3BdrCKw4qgoI3iE7504ccJdS+644w53V8GVhpSUlGSTJ08Od33NeSCGcAOLj29+85u2fHnpf7oIHRVZjRw8eNB+8pOfRMUjCeKT/OxnP3NxJXjYhg0bXAj58pe/7Efcexhrz549/fpPf/qTvfHGG5GMNUqQrtdNZunSpRbkSZMm2fe+9z0XjzhyHdzjGPjABs/SUQREQAREQAREQAQ+CwK8/GNl0WH0fM+BBciu7EJ7o+dUHxKiSBCzg9/HuKIgUJD4vY1rzQPvDIvKuJ1gVREk3F8QG0hYeHA//EdLyrlOXbvL6yCMtB8138eG8BGIITx3yMxVLs683HWSn89YXurWjHUHbjGMsbpiyNzVO+yJd8d6DkQeH8DH/6TtzI5wCJfrPH4ISAyJn7Ws8ZlU9SLNlxpBTREtCAa6YvM+d+MgMGrR8bO2LSPXrRhwbeHLMshYQGDdcccLPV0kwGKCAKT3Nehvz7cZ464lL7QZawgPiBvEHCk+VWIFR0pjhtCW3VqIPYLFRbdRqXZfw/52V/0+7l7DmMIJlxcEF6w8EGnCbijhc9xxCIrK7jB8CSNKLEnb7fmhvw52a5VFabs9BgmiDmIIFhyIKFiB4GaDWIFQg5BBzBAP5Jq63uOQYAlD8NTXO0/0eeFCQxniDc8LEi/L8GNsiCCIRn9qmGDdRy+IzDuoW9WxqjWsrD3WIB988EGkCm4yYdcVbowaNcqFhR/ddptbUGBdggUJIgDCQzj36dMn0ldYDKEwPT3d/vM//9Pq169vWHhUZD2BuwzxRyrKBGUNEmNdu3atZ6xPCPDK9e7du33M7dq1c1eZb33rWzZs2DDbu3dv0NRjhhA/hXgfjRs3tp/+9Keev/CFL3iME64rcnvB+mPatGmGmwxCTxBINdK5TkRABETWCv0RAAAgAElEQVRABERABETgc0CgPDcZhoUw8X+v9fM/LD7ccqTNWb0jMloCjuIGg1sMv+0DoSJSwcwmLNgQEUP2HDxsf3xzUCTjioPoEi4LnxPLBFedMfPSPD4ebug8g2chjExcsDEqh+OMTP9gq7vJVFcMwRWH4Km42yxPz/TnhftfvCEjEgclPD+dxw8BiSHxs5Y1PpOqXqTxCUQwIPYHFhAL1+5yNxSCpvYet9CmLtgQ2fmFF/wgYwlB0FEEBIQT3F3efG+SnxOb46W2Y90CZOPOg7ZpV45vvYugUVYM4fnEC2nRb7o92CjB/vBqP2vSc4qPKQyD3WRw06FfXHdwPykvI77Uaz/OBRNif7ATDHMhE8iVQKoIH8QKmbU03fv8YEOGEewVUYOthBFpsJDBveU3L/a0l9qN89geC1bvcGGDOB/UYUxYtRD/BCuQi5dKXSewYjl//pINmbLMd9ohiCxxUwiyyviJO4IFSXVTVWtYth8CowYv708++aS7iSBAsIPKvffe66JFuA1uL+wME4ghxNYgOCnWGmPHjnXRIbDcwJIkSGXFEMrff/99+3//7/8ZIkx5aerUqdawYcMqM/VIjDmwZMFqBDGG63379vm4AjcZ7mFxEiR2zkHswFpl/PjxhsUMwWMRUQoLCz0zjq5duwZNIkfq0B+fdcQQjsQfKS8Ya6SRTkRABERABERABETgMyCAGEIcjRGz13oOLEMYCvE6CCD6g6e6eVy88PAQJkgc/+svHYy4IeFMYNbAMgRhheCl5NFz09yChF1sgrKGvZKt05iFkWvi/fEbH6GCfPTkWbf0wP0GixKOwb3gSP0g4Z4TiCFDZq6ulptM4z7TXAzBzQZLGIK79p601AUfAsEqxS8BiSHxu7Y3PbOqXqT54iFQKhYZWFDg6sJOMq93muCWHjOXbLFOw+Z4XA9eCvlyu3z5ipuvIYjgRoK7CfE7CHqKi8qEeWn2+DvDfKcVAoviGkI/+3OKPAgSu8lgGRLE32CL3Rfbjv24n5VudcEuLRt3ZnsQVCAQm4NdXNoPTrFpizZZYspad1khIGqQKeMerj2dh881XHJwwyHGCVsD//nNgR7QFTGCnWLYnpdtfNduzbSU5dtcDEFAIfYHwVUJlIrYs3RdhrvoZOcd9XgoxPxA4EldtcNe7TjBLVnYXhcRBJ70QQyVeu3G2biUNc4UIQa2w6etcPcarFsYGwIRXCtLVa1h2bZYaCB6kBBDsAYh1gfCxttvv23jxpUGyyrbLhBDRo8eHXEJIf4Ilh5hF5FgW9qyYghCyFe/+lUXX3hehw4dyj7CRRB2tlmxYkWFmfsIFSQsQxo1auQZYYMYIFwTzJSgqFu2bPF6YTGEeVKXsWBFEqR+/fpZt27d/BJrEYSOslYybCvMDjUILqQggCpxS37xi1+4aBT0p6MIiIAIiIAIiIAIfNYEEEMIHDr2/TTPQcwQxrVhd4797MVe1mzQ7GuGuTfniLUdMc/FECw9ym7RO3DaiogYEjQm/scv6vUxLD+ChFXGrY93cgvwoIwjLiv3NxkalRFqvvt4Jx9T2XthF5dB01faivRMjxlC0Fa28a0qZkgghgRjIMAqQg8WKoxZKX4JSAyJ37W96ZlV9SIdiCG/q9fHXUd4YccFhJf5HfvzLDu/2AZMXOKuL8ThoIxtZwn6iSsK1hQT309zqwcsN94dONvbI3b8pckQd7EheCo5bVuWle4mUyqGbNx10DoNn+sCBdYluMZgOYKVBoFQcVkhDgcJ15XXO020wZOXuXhB7BACkHYcMsdzo65Jvu0uwgYWGVh2EH0ad5eOw+bYyi377fG3h3lsEPpFsCFoa6t+M2zDzuwoMQT1u/jkWd9xBrFn295c95FkLGu2ZtqzrUb5s+CEaIRly8VLl13YQODoOXaBvdB6tL03KtX5ETOFrXXZnpfArKNnrXb3IbYkhkEwx4oWu6o1LNuurBgSWE9Qb/78+fbiiy+WbeLXgRjSoEGDSNBQtrPFZeapp56KlGF1QQrEEAKRPvPMMy5A4JZCwhIFNxuEjXBC5Jg9e5ax4w0uNeEtgHF1OX36tN8PxBDa4ubDrjHUnTFjhnXs2NG7/O53vxvZIjcshpw9e9bjoJSNGYKIg4UHAgnCBrvUhNOFCxfswQcf9O17g/JADOG6V69e9tvf/laCSABHRxEQAREQAREQgc+cQHluMjmHj/sfMBEvECoIhlo2YTVCrA4EA7atnbpkS1R+s+/0a8QQ+n21+xSPOcK2uFyzjW8QqLXsM4JrxkHMEoKuYiVCMFd2jWGXGLbfzS36xPKY83veGhyxDCE4LLva8FyCn1a0m0wghiB+kAIxhPNfvdLXfxvymztsgRKMT8fYJiAxJLbXr1ZHX9WLND58xAvhpR/rDSwrcEPB7QXrB4QPhJFnWo6yDTsPuojQJ3GRW11gAYEYQhvq8dK/OG23x+B4pMlge7rFCN+iFiECd5kjxWc8PkiwtS7uKYgSxNtAtEAIYScX+kJgwaqEeCJ8SSOGYBlCsNflG/e62wvxOMbMWuP5mRYj7PlWo93NB0sQxBCCw1L31U6J7qaDiwxjZ7cZrDsadJlonYbOcQuVsGUIFh4EUMVlCC5sO4zJHWJN+t5ca9A1yf7ceKBvr4sLDKIQX64EeGXr4WdbjnKrElxucJ2BYyCG0A8WK1jTEFMF1xk4VpaqWsOybcsTQwoKCtyaAneYb3zjG/5CT4BTdlUJUiCGBNdYbxDoNCUlxS1MgvLgGIghiAQIFPQdTjwTd51w7JBADEGwwI0lnH71q1+5uIFYEhZD/vCHP9i6detcDEHIIIjqkSNHfLeYoH1YDAnKyoohlONChLhz//33B9X8iFBC/WbNmkWVh8UQbrRo0cItRwLrmKjKuhABERABERABERCBT5EAsf8IIEr8j35TlhkBSW95sK2LCcTq45p4IeymEuzSwvBwb8FdBWGA39n//XgXGz57TVRGfAjcZMpOiZgjg2es8sCrBF/FcqO8tCUj194dMc9uf76HB1MN6hDcFUGEcYXjhXAf1xZ2kCHxB0qCw2KJwu9zUo+JpUFdETvCCTGEeCRYkpC4z3a9tGVHmc0ZuTZzxTYbmfKJ1XC4vc5jl4DEkNhdu1ofeVUv0ll5R/3FnZd+3GN4kf9TwwH+so+rS6ehc93NhbgZXUfMc0uPfomLXLgIxJCUD9LdOgLhAQsQtuFFFOg8bK73hwCBxQZKMMIBbjK45SBOPN96tGeEgU/yGLdEYfcXrE325RwuFUO6THSXmHXbs9zCw2N/9E42tu598d2x9kLrMR5gFbGF3XB2ZeW7qIJoggXGE+8Ms8S5aR9bn2yy+xoOsOmLN1nBkRMe6wRhhznhCoS1x7BpK1wMIe4Ibjq44xDz47GmQ42dZxBFHn9nqMdUIaAsc8P6A6EDK5qrV0sjbm/aneNxRbjHdr98lyOeIBAFu9BU9kGoag3LtkU4QBwYOXKkW2ewxSwWEezAQmrZsqW1adPGA6MGW+tSHhZDECSw1Ni/f7+3YRvbevXquQjhBR9bhrRt29YIuFpVPn++dGu2QAxBTLjnnnuM3WCCzDUWI1iBBGII4gWCDAnLkLS0NI9ngsgSjktSnhhy5513RuJ8XL58OcKjVatWPncsZPLzS80816xZU24w1bJiCON46623IlwCFjqKgAiIgAiIgAiIwKdNYM32LHuw2XBrPni2Bytl5xRcXkhsL/tk23EueCAw1O/2yS6B7DzDji4kxJDyAqgijpQnhvAblrghiCndxi9yqxPcdBA3eH6QsOJ4rkOiB25FOMGNh7YENM3KP+rlv2uQYEkLN0Z2pUHwwIoDixHcyBE2eiYtcaHnnYGzgq79WFYM4VkEcT1QUGyvdZ/iAg9WJQRxJShr62FzrXGfZNuX+0mg/qgOdRGzBCSGxOzS1f7Aq3qR5qW/49A5bs2BewcxLSbNX+87suASQpwPYmXgUvJEs2Fu7YH1B7Euio6f8dgfBCJlu1l2jek8fJ4LH9zDTQW3GwQNttzFAoV4HAQgJWYGwUfZZYZMHI9wLi1bZknvr3eRgfgizfpMdzEDwYL+ETGwJCEjWCBQIKCwmw2xS46eOOOBStki9/XOEzwwLFsCnz133uOANOyaZDszS7fRZZyPNhni9REykt5Pc5HmtU6JHtuDLXSJD9I3cbHHMuGZWJ7MX7PDd995b/R8ny9cAiEkiASCm82jTYcaIg73Seyic+HiJXev4byyVNUahtsSeBT3k4cffthjdmDVcfLkyXAVwyoDcQRXkXBCDMHlhbbEHAkLJdQjECmxOLZv3+7N2HoXwaE6eefOnd4mEEPCzw3OGVeTJk1c/EDIIc2dO9efS5wThImsrCwvRxgJ7xwTFkPy8vJ8/GzHS5/M49Zbb/VYI8FONfwHy3xuueWWSHyQYBzhY3liSPi+zv9/e3f+LEdx2AH8f8kPqUpSSaUqlXIup1JOSJxU4rhy2HGwXQZj4wRIoAzxVVzmMgaMBQgwRIC4MRaXwQJhW5hDBiQOHSCEjqdbTxcSOowQEp36jjy7q83TgbQjDbufqVq/mdnZ3p5Pdz3rfenuIUCAAAECBAi0SSBhSBYfzVSTejRIQoYTz59aZrz4RhU8JMjIv1ez9Ychz8xdUk659O4qTMjiq9kyQuPfzr21Gm2RwOGsSQ9Ui6BWb5ZSBRcPPT23fPTUq0t/aJFrst7HR066onzynB+UC6dMr8KQnM/iqQkpsqZHFlXNuiGpZ7bUIY8Grv/j4lmTplUjV2577PlqodfUo3fLGicJW7JlFEj+42a9Zf/jZ04uJ19yV33KzyESEIYMUWMO+lYO9Yd0fmmsWLupWtsiU1ISNORJJwkt8ksyvyAzmmF809sl01oSJiStzS/V/IK9/8k51ToY+YM/Ix/ylJVtO3aVPXv2Vr84U06mwCQIyDSZTBvJs8PXbNhSjdDI1JgDvjZsqb4roUHKmbdoVVV+6pQAId9Rv1Jmnorzy1eXlDmvLa8+l3U8Mvwv01tmvbq4Cj5SToYUZs2TXJ97zDV5rHDCn4QVKT9Bx9MvvdkJSxIaZbpLprjkvqv7272nqtfilRvKG2PjnV/A/W0YrwQyCXDq57P3X3Ow40O14cE+e6D38n8s9WiN+posEpqpLpnecqAtC44easHXA3025xOKrFu37oCXzJw5syxcuPD/vZ/pMRnxUm9ZW6R3S90zqiRb7i1l9B4vW9b9LxW9n9u6dWvZtm1b76n99nsfS7zfGw4IECBAgAABAi0UyMKj2eqwo65i/v1aTzXJv3XrLedeXrSqPqz+PZswIeuB9G4Z4X2of8fm32D5d2//tmT1xmoh0/7z9XHvmiF1iJGRJb1bvnvL9p3VuiHzlq45aHm9n6v3c5/1/dfn/BwOAWHIcLRjI3cxqD+kJxrJkHN1mJDgof7l1X8jmRaSRPlQIyD6P9d7nM8mtEgIMdEf4zmXX5K7d++pfvY+oCXvpX75Bd372ZSZ6zIuI+/lmrxfl5X7qa+pyu555Fdv3fZ9ft/nes/X+6lzAqV931+fPfyfg2rDw/9GVxIgQIAAAQIECBAgQKD9AsKQ9rfRcauhP6SPG/3AvlgbDoxSQQQIECBAgAABAgQIDJGAMGSIGnPQt+IP6UGLHvvytOGxN/eNBAgQIECAAAECBAi0X0AY0v42Om419If0caMf2Bdrw4FRKogAAQIECBAgQIAAgSESEIYMUWMO+lb8IT1o0WNfnjY89ua+kQABAgQIECBAgACB9gsIQ9rfRsethv6QPm70A/tibTgwSgURIECAAAECBAgQIDBEAsKQIWrMQd+KP6QHLXrsy9OGx97cNxIgQIAAAQIECBAg0H4BYUj72+i41TB/SHt9+A2OWwfyxQQIECBAgAABAgQIEGipgDCkpQ2jWgQIECBAgAABAgQIECBAgEAzAsKQZlyVSoAAAQIECBAgQIAAAQIECLRUQBjS0oZRLQIECBAgQIAAAQIECBAgQKAZAWFIM65KJUCAAAECBAgQIECAAAECBFoqIAxpacOoFgECBAgQIECAAAECBAgQINCMgDCkGVelEiBAgAABAgQIECBAgAABAi0VEIa0tGFUiwABAgQIECBAgAABAgQIEGhGQBjSjKtSCRAgQIAAAQIECBAgQIAAgZYKCENa2jCqRYAAAQIECBAgQIAAAQIECDQjIAxpxlWpBAgQIECAAAECBAgQIECAQEsFhCEtbRjVIkCAAAECBAgQIECAAAECBJoREIY046pUAgQIECBAgAABAgQIECBAoKUCwpCWNoxqESBAgAABAgQIECBAgAABAs0ICEOacVUqAQIECBAgQIAAAQIECBAg0FIBYUhLG0a1CBAgQIAAAQIECBAgQIAAgWYEhCHNuA5FqavXjhcvBvqAPqAP6AP6gD6gD+gD+oA+oA+MD8XfeG6iKyAM6VrYI0CAAAECBAgQIECAAAECBEZAQBgyAo3sFgkQIECAAAECBAgQIECAAIGugDCka2GPAAECBAgQIECAAAECBAgQGAEBYcgINLJbJECAAAECBAgQIECAAAECBLoCwpCuhT0CBAgQIECAAAECBAgQIEBgBASEISPQyG6RAAECBAgQIECAAAECBAgQ6AoIQ7oW9ggQIECAAAECBAgQIECAAIEREBCGjEAju0UCBAgQIECAAAECBAgQIECgKyAM6VrYI0CAAAECBAgQIECAAAECBEZAQBgyAo3sFgkQIECAAAECBAgQIECAAIGugDCka2GPAAECBAgQIECAAAECBAgQGAEBYcgINLJbJECAAAECBAgQIECAAAECBLoCwpCuhT0CBAgQIECAAAECBAgQIEBgBASEISPQyG6RAAECBAgQIECAAAECBAgQ6AoIQ7oW9ggQIECAAAECBAgQIECAAIEREBCGjEAju0UCBAgQIECAAAECBAgQIECgKyAM6VrYI0CAAAECBAgQIECAAAECBEZAQBgyAo3sFgkQIECAAAECBAgQIECAAIGugDCka2GPAAECBAgQIECAAAECBAgQGAEBYcgINLJbJECAAAECBAgQIECAAAECBLoCwpCuhT0CBAgQIECAAAECBAgQIEBgBASEISPQyG6RAAECBAgQIECAAAECBAgQ6AoIQ7oW9ggQIECAAAECBAgQIECAAIEREBCGjEAju0UCBAgQIECAAAECBAgQIECgKyAM6VrYI0CAAAECBAgQIECAAAECBEZAQBgyAo3sFgkQIECAAAECBAgQIECAAIGugDCka2GPAAECBAgQIECAAAECBAgQGAEBYcgINLJbJECAAAECBAgQIECAAAECBLoCwpCuhT0CBAgQIECAAAECBAgQIEBgBASEISPQyG6RAAECBAgQIECAAAECBAgQ6AoIQ7oW9ggQIECAAAECBAgQIECAAIEREBCGjEAju0UCBAgQIECAAAECBAgQIECgKyAM6VrYOwyBcyf9qORlI0CAAAECBAgQIECAAAECH1YBYciHteWOU70HFYa8snh15w62bNtZxjdvm/C1feeuznXZWbNxa7n5kVn7nTvYwcr1bx3s7c57k+57qrP/1rYdZeHYeOe4d2f2whXl3idfKjc99FzZtfu93rf221+76e1y3s0/Kes2b9vv/IEO5i9dW2a+vLh6+8nZi8rrY+sOdKnzBAgQIECAAAECBAgQIHCUAsKQowQctY8PIgzZu3dv+dwFt5ezJk0r7763p1w4ZXr5xNk3Vq/f+MS5nf2c+9++4GPe0jXlX7455bDYd/xqV/nYaZPKj5+dX55fMFZ+/8TLyl//13XV63c+fXEVrNz5xOyqrD/8wnc7Zb785qryx1+8sry8aFXnXL2Tsr5xwyPlnhlzqvrX53t/Ll61ofzFf3y/XH3vzOpnjg+13T1jTjn3pkery/5n8kPlRzNfPdRHvE+AAAECBAgQIECAAAECRyggDDlCuFH92CDCkNjtff/9csltT5Rn5i7pUGYUxwlnXNs5nmhnojDk5y+9WU666M7O65s3PtL56MatO8qJ508tT774Rvna9Q+XFes2l/VvbS+fOe+2Kgz5q9Ouqa7tDUNyIiM1Tjj92pIgIyM16tdlU2eUz6a82YuqsCOBS++W0OVPTrmqvPj68up0fvYe917b+9mDhSE733m392P2CRAgQIAAAQIECBAgQOAoBYQhRwk4ah8fRBiy+709ZWztpopu7pI15T+/e1/1+uTXbqqCg/q4/rlp644qXPizL3+vfOSkK8pv/vMFJfu/+5lLy10zZpepP3mhJAB5Y/l4mf36ivLnX7m60yx14DBr/lgVhtzwwLPVSJFDhSEp4L09e6vvPe/mx0r9SuiSUR/1cT0NZvPbO8pXr3mg/OmXrioJbLLlHnM+xxlpkjAmU4Lq7e/OvL6aGpTjA4UhmRb0D2ffWH/ETwIECBAgQIAAAQIECBAYgIAwZACIw1pEHXwc7s/DdViyekMVGmQUxdYd71TTUR7/5evl9/790jJr/rJy+/QXyt+eObm8tHBl9V7v2hxZV+PU79xbfdVFtz7eCUO+d8/PqnNbtu/shCEZ3ZFpMQkgDjcMeeSZeeVT37qlevWua1LfW+r3lcv3fX997qmXF1dTcDLdZ+eu3fXpcva1D5YHfzG3Ot7xzrvVNJhM1UldsmWUSdYeyXagMCTTeC6/88nqGv9DgAABAgQIECBAgAABAoMREIYMxnEoSzncEKS+7oMgvLlyfRVaZOREFklN+FEHBynnginTq7U5sqZI75ag5NKpT1SnEj4kRMjIkInCkFx0/89fqabJHG4Ykvpk8dTPX3hHtaBppqjcMf3FzmvGCwuraTK9dcr0noz+yNSf6bNe67zVG4bUJ7MeyYYt26vDjGKpR30cKAz54iV3d6bc1GX4SYAAAQIECBAgQIAAAQJHJyAMOTq/kfv0kQQfB0LKiI+sqZEpL7c8Oqus3rilmi6T67PI6vfvm1n+8rRryqs9T5759i37RoPkmjytJU92OVgYkusy+qQOQyZPe+awpsmcfuUPqzAk02xSj9/+1EXlirt+Wp6bt6z84zk/mPCWMv3nDz5/eee9hCEX3/p4yZomeWVUSe+We8xIkdRvojAk351pN5muYyNAgAABAgQIECBAgACBwQkIQwZnORIlDTIM+c4dM8rDz8yr1vnIaInl6zaXrBuSERYJCqb8eFZ5bWxdZ32RAH/psnuqQCL7WSdk2lOvHjIMufb+X5RMZcmaHV+//uHy9CuLD7mAah2G1I2aBVZ3vfte+dW7u8sfnXxlfXq/nxOFIbmfM666v3rVT4vp/VDWRXnsuQUThiEJeS6c8njv5fYJECBAgAABAgQIECBAYAACwpABII5SEYMKQ7Iw6EdP3bfQadYL+fJl93TCkAQAjz63oJx08V1VcNHrm8VLM4Ik2znXPViN8jjYyJBMYfmb/76uMzIkj+vNFJ2EKln89EBPk6nDkIQf2eowJPt5OkzCmkzvSQBSbxOFIb1Tf+rren8mzMmUoIlGhnzh23eWrK9iI0CAAAECBAgQIECAAIHBCghDBus59KUNKgy5+t6ZnXU+Pn7m5JKnytQjQ+YsXFk+d8Ht1WiOBAL1lhEUn/7WLfVhOf3K+8rP5rx50JEhmdqSJ8hky/ojmXaSaTcZfZIto1Oy9T9aN2FIpuRkJEn9/vjmbdVn80SZ1DFBRr0Aaq45kjAkocr7778/YRhSfbH/IUCAAAECBAgQIECAAIGBCwhDBk463AUOIgzJH/8JJTJqI6NCTjx/aoVWhyE5yONx1256uxo9kusSGmRUSP3Y2lyTUR15nG5GhnzstEnV6JIEFfWjdRN4ZBTH+re2V4FDgo08mSWLreYxuL1bfxjy2fOnlhPOuLYsXbOpKve3/vWiklElmbqTRVm/ccMjVRizaOX6qpjUccnqjdUaICvWbS555akzNz8yq9qvz+WesuWpMxn1Ub+yLkmm0+Q4n5s87enOeznX+5Sa3nrbJ0CAAAECBAgQIECAAIEPLiAM+eBmPnGUArMXrij/9PWbq1ISICxYtrYKRRJkZPpKtoQBP52zqJresnHrjpJH3mYkSLaEGpn6Uo8aSRiScCOLsWakSB2G5NG4ddByyqV3VyFDQpVsZ02aVm588Nly22PPV6NQEnz0btf88KlqGkzOZRRI7+N9s5/RLCdfclfnI1lU9e+/esMhX1kjJFtGwsTgcF+53kaAAAECBAgQIECAAAECgxEQhgzGUSkfUGDLtp37fWJs7aaSx9Zu2b7/+fqiTEHJY2+zZXRFPcIixxk1kSevZMuok4Qn9VaHGFkfpHfLE1ryXTmf0Sb12iC91xxsv1rk9ddTbQ52nfcIECBAgAABAgQIECBAoH0CwpD2tYkaESBAgAABAgQIECBAgAABAg0KCEMaxFU0AQIECBAgQIAAAQIECBAg0D4BYUj72kSNCBAgQIAAAQIECBAgQIAAgQYFhCEN4iqaAAECBAgQIECAAAECBAgQaJ+AMKR9baJGBAgQIECAAAECBAgQIECAQIMCwpAGcRVNgAABAgQIECBAgAABAgQItE9AGNK+NlEjAgQIECBAgAABAgQIECBAoEEBYUiDuIomQIAAAQIECBAgQIAAAQIE2icgDGlfm6gRAQIECBAgQIAAAQIECBAg0KCAMKRBXEUTIECAAAECBAgQIECAAAEC7RMQhrSvTdSIAAECBAgQIECAAAECBAgQaFBAGNIgrqIJECBAgAABAgQIECBAgACB9gkIQ9rXJmpEgAABAgQIECBAgAABAgQINCggDGkQV9EECBAgQIAAAQIECBAgQIBA+wSEIe1rEzUiQIAAAQIECBAgQIAAAQIEGhQQhjSIq2gCBAgQIECAAAECBAgQIECgfQLCkPa1iRoRIECAAAECBAgQIECAAAECDQoIQxrEVTQBAgQIECBAgAABAgQIECDQPswSYzkAAAUISURBVAFhSPvaRI0IECBAgAABAgQIECBAgACBBgWEIQ3iKpoAAQIECBAgQIAAAQIECBBon4AwpH1tokYECBAgQIAAAQIECBAgQIBAgwLCkAZxFU2AAAECBAgQIECAAAECBAi0T0AY0r42USMCBAgQIECAAAECBAgQIECgQQFhSIO4iiZAgAABAgQIECBAgAABAgTaJyAMaV+bqBEBAgQIECBAgAABAgQIECDQoIAwpEFcRRMgQIAAAQIECBAgQIAAAQLtExCGtK9N1IgAAQIECBAgQIAAAQIECBBoUEAY0iCuogkQIECAAAECBAgQIECAAIH2CQhD2tcmakSAAAECBAgQIECAAAECBAg0KCAMaRBX0QQIECBAgAABAgQIECBAgED7BIQh7WsTNSJAgAABAgQIECBAgAABAgQaFBCGNIiraAIECBAgQIAAAQIECBAgQKB9AsKQ9rWJGhEgQIAAAQIECBAgQIAAAQINCghDGsT9sBe9eu148WKgD+gD+oA+oA/oA/qAPqAP6AP6wPiH/c879e8TEIb0gTgkQIAAAQIECBAgQIAAAQIEhltAGDLc7evuCBAgQIAAAQIECBAgQIAAgT4BYUgfiEMCBAgQIECAAAECBAgQIEBguAWEIcPdvu6OAAECBAgQIECAAAECBAgQ6BMQhvSBOCRAgAABAgQIECBAgAABAgSGW0AYMtzt6+4IECBAgAABAgQIECBAgACBPgFhSB+IQwIECBAgQIAAAQIECBAgQGC4BYQhw92+7o4AAQIECBAgQIAAAQIECBDoExCG9IE4JECAAAECBAgQIECAAAECBIZbQBgy3O3r7ggQIECAAAECBAgQIECAAIE+AWFIH4hDAgQIECBAgAABAgQIECBAYLgFhCHD3b7ujgABAgQIECBAgAABAgQIEOgTEIb0gTgkQIAAAQIECBAgQIAAAQIEhltAGDLc7evuCBAgQIAAAQIECBAgQIAAgT4BYUgfiEMCBAgQIECAAAECBAgQIEBguAWEIcPdvu6OAAECBAgQIECAAAECBAgQ6BMQhvSBOCRAgAABAgQIECBAgAABAgSGW0AYMtzt6+4IECBAgAABAgQIECBAgACBPgFhSB+IQwIECBAgQIAAAQIECBAgQGC4BYQhw92+7o4AAQIECBAgQIAAAQIECBDoExCG9IE4JECAAAECBAgQIECAAAECBIZbQBgy3O3r7ggQIECAAAECBAgQIECAAIE+AWFIH4hDAgQIECBAgAABAgQIECBAYLgFhCHD3b7ujgABAgQIECBAgAABAgQIEOgTEIb0gTgkQIAAAQIECBAgQIAAAQIEhltAGDLc7evuCBAgQIAAAQIECBAgQIAAgT6BIw5Dli9fUfbu3dtXnEMCBAgQIECAAAECBAgQIECAQLsFjjgMWbFiZXl727Z2353aESBAgAABAgQIECBAgAABAgT6BI4oDFm/fkNZuWp1WTY2ZnRIH6hDAgQIECBAgAABAgQIECBAoN0CRxyGrFm7rixdNlaWLF1atm7dKhRpdzurHQECBAgQIECAAAECBAgQIPBrgSMLQzZsLOvG15dVq9dUgcjrC98o8xcsKHPnzfdioA/oA/qAPqAP6AP6gD6gD+gD+oA+oA/oA63uA0cchqzfsLGMj68vGSGSKTNZQySLquY1NjbmxUAf0Af0AX1AH9AH9AF9QB/QB/QBfUAf0Ada1Qfq3OL/ACJg2JbV+ZRrAAAAAElFTkSuQmCC;" vertex="1" parent="1">
          <mxGeometry x="80" y="400" width="714.17" height="470" as="geometry" />
        </mxCell>
        <mxCell id="SKYqRsKC4ZwLW245TKKd-13" value="" style="shape=image;verticalLabelPosition=bottom;labelBackgroundColor=default;verticalAlign=top;aspect=fixed;imageAspect=0;image=data:image/png,iVBORw0KGgoAAAANSUhEUgAAAiQAAABsCAYAAABaZ6lYAAAgAElEQVR4Ae3dB5AtR3U3cJxtXLbLLrscynY5le1y4DM2RRb5M5jwEU0wYEAEARLpQ/ChhBASCiAQSmAFUJZQJCggIZQDCCGUhQIoAEoISQhJu9qnfa+/+s3jXPWOZu69u/vu232rc6r6zkxPT0/Pv7vP+ffpnrmPKimJQCKQCCQCiUAikAgsMQKPWuL75+0TgUQgEUgEEoFEIBEoSUiyESQCiUAikAgkAonAkiOQhGTJqyALkAgkAolAIpAIJAJJSLINJAKJQCKQCCQCicCSI5CEZMmrIAuQCCQCiUAikAgkAklIsg0kAolAIpAIJAKJwJIjkIRkyasgC5AIJAKJQCKQCCQCSUiyDSQCiUAikAgkAonAkiOQhGTJqyALkAgkAolAIpAIJAJJSLINJAKJQCKQCCQCicCSI5CEZMmrIAuQCCQCiUAikAgkAklIsg0kAolAIpAIJAKJwJIjkIRkyasgC5AIJAKJQCKQCCQCSUiyDSQCiUAikAgkAonAkiOQhGTJqyALkAgkAolAIpAIJAJJSLINJAKJQCKQCCQCicCSI5CEZMmrIAuQCCQCiUAikAgkAklIsg0kAolAIpAIJAKJwJIjkIRkyasgC5AIJAKJQCKQCCQCSUiyDSQCiUAikAgkAonAkiOQhGTJqyALkAgkAolAIpAIJAJJSLINJAKJQCKQCCQCicCSI5CEZMmrIAuQCCQCiUAikAgkAklIsg0kAolAIpAIJAKJwJIjkIRkyasgC5AIJAKJQCKQCCQCIwnJ5ddNl80+fkt5wsbXl8e+7vsrKngmz+YZUxKBRCARSAQSgURg6RAYSkgYakb7cRvfUR6/yf3l8ZtMrbBwf/NsnjFJydI1wrxzIpAIJAKJQCIwlJDwHqwlIyuNiMx9Hs/oWVPWHwI/+clPyste9rLy5S9/eaI33XvvvcvXvva13nucfvrp5YMf/GC58cYbe9OMOnHDDTeUV7/61eXzn/98Z1J5v+UtbymHH3545/mFRl5yySXl1FNPHVz+wx/+sHz7298eHH/zm98se+yxx+B4JewcfPDB5cMf/nCZnh7t1dx3333LW9/61qKtjSuf+9znytve9rbygx/8YOglW221Vdl+++3L6tWrh6YbdvJNb3pT2XzzzXuTbLrppmXbbbftPb8UJ44++uiy9dZbl7vuumsitz/nnHPKa1/72nL55ZcPzf8Tn/hE+ehHP1pmZ2eHpsuTGxYCQwkJz8HK9IzMJSSe0bOmrD8EPvCBD5RHPepR5YQTTpjYTZEN93jpS1/ae48dd9yxSXPeeef1pqlP3H///eXOO++cE84444wmjze/+c1z4iPdaaed1pxnHCOu3kb+d9xxR/mv//qvkeFHP/pRc8lmm21W/uEf/iEuLx/5yEfKn/7pnw6OKexf/dVfHRwv5c61115bvvOd74wVbrvttt6ibrTRRuUP/uAPes/XJ57znOeUX/mVXymrVq2qo3v3kZw/+qM/Kr//+79fHnjggd5011xzTfmFX/iF8qQnPamzPtVtfb371/Ud+7/1W79V/u7v/q7znDS/+ZuPbuo30tfbcZ+p9yEWcILx/8u//MvyJ3/yJ71E4Lvf/W654oorRoY+Ihd9dpNNNuktoWt/7/d+r/zFX/xFb5o8sWEiMJSQWDOy8qZp2mRk7bFnXW6i411//fWFAnzwwQeXW/EWXJ6bb765PPrRj26M9F/91V+Vv/mbv3lYYHgIDwej2hc+/vGPd5aDwmasKfWbbrqpSfP1r3+98WTUWHYREucvuuiisueeezajsPoGRrRIzroM9913X3MLRAOhECjcX/qlX2r2bR3HOcadLBdC8o53vKM89rGP7Q333HNPefrTnz42Zh/72MdqyAf76uU3fuM3ygtf+MJB3LCdP/zDPyyPecxjhiWZc2733XcfWsYXv/glTXrerlH1r92GIN2j0s/3/CSJfJS7vT3ssMOa5/id3/mdOXX97Gc/e5AUyRrnWaLNDy6sdh73uMc1/fanP/1pFfvQ7oUXXtjcgyclZWUhkITk5+ti1gchYYif97znFYryuc99bm9LuvvuuxtXbhhtHdxIzwhcHqOE25nxcp/ape86oxzxwo9//ONRWZV3v/vdTdrddtttkLbOI/KKLYLxqle9qnz6058ut9zy8GkwI8cnP/nJjUJhWHgv/vVf/7U5RkIcC5Q+MeXg+V/+8peX9773vYNgikT8TjvtNChXvfP+97+/OV8Tlk996lNN3DbbbDNIGoSE9+J1r3td+V+PeUz5tV/7tSad/CnY2j3NG7LLLrvMCTCS1oi5fc7xu971rua85+463zXaPeSQQ8pf//VfN+WE6aGHHjooc+wsF0Lyzne+s/zbv/1bExgrWPzLv/zLIA4hMV3V9exdceeff348YkPEI02QwWc84xkPy0ub3GeffQbxvEPK8Y//+I+DuMjH1nRWLUb26tqo23nX63PIclx33HHHla9+9auNd+QpT3lK2W+//coOO+zQ3CeOxQlXXXXVIPvvfe97gzwiL1vtjEemjqv3kfC+8/JcnwLff/7nfy7qV98U3vCGNzRY6L8h6vmggw5qAk8TD1Ac2+rj6mVmZiYuedj2qKOOatLUOqdOpM/L4zOf+Uwd3bt/9tlnNzpMHY0jCBF9dsEFFwySL0bnDTLJnZEITJSQPPHtU2WjzabKCz4w2fC0zaaKey3GmzNpQvKlL32pcQXrSIJG3yWUdxhoo0GjDyQmFD2F2Te/jcj853/+Z5N/3Kc9kjLKjHO33nprVxHmxFE60psvD6nz+PVf//Vm1KqsAld25P/nf/7nJUbzcW0QBdMLIeaDXcOl35YgJFy5tXzrW99qrukiJAiZ/JCWNWvWDC7jcXra057WeB5iiiYIifQM0uMf//hibn+vvfZq1mN41lFy5ZVXNoarfqb6Gus65I+YjCsbEiGpn+kFL3hB86z33ntvHb3gfVNksBsVTLcgbqPSxXmGP+RnP/tZ401DQGojhLhqz9H2pqamyh//8R83fbHug9oL8nDZZZdFlmNtkbb/+I//6E2rPSIBy0GsG4GdfhECQ3GBT8TbWt/kXI2zeIMVONfyile8ovzyL//yIPAIuhb2dbzBAHnWs57VnEfoDNq6Am9OiEGZ/JCjcYSOld56lpDF6LzII7ejEZgoIXnqO6fKG3aYLkedtmqi4S07T5eNNl2ehIQS49LWwHVECznt9xESawicNzIzXRNifQGG79wTnvCEiB5sjQIQAOcRGtfbnzQhaZMaz2uEGyMhIw1z3yGXXnrpwPsRceFh6PKozJeQHHvssY1xoOwRHOs3KKdPfvKTxboVBA8upnN4JoKQIIw1eYmyjdoaaRvFWmzZJ4gQA12vK7j99tuLEbeRVy0U+THHHNOQF/nat4WR/auvvnqQfLl4SAYFKqWsa0ICOxgLvFdG3XFcb9Ud7CLujW98Y1PPBxxwwCAuztnWbc0CSsbKiJznQT4C0ouI20YcL4wppTi2PfPMMxuPiqmEcdoQkqX9hRewxq/eN60hbYhjxjXWEEX8pLf60C/+4i82Okt9ENOgpkNf+cpXdt4eSXONhda1/Pu//3vTnus4XkweUGt+9E1913E7qCd4hGfpRS96UYnA4+xaa1zE1SRpXROS+eq8+llzfzgCEyUkz3z3VNl2/wdKNUgdXpoFnJX3Dgc+UJ71nuVJSHSOMIDWJcQCxy5CYjGYTiz9iSee+DA0nDdicL5+O4XCNKpw7RZbbNEY2iAE65uQRKEpzxixWpkfYvShnHXwPIIRUR1vimY+hISyZLwjv3rLk8PoUFyh+JCRICThMYly2vJ8vOc97ynXXXfdIBqBQCQieLbf/u3fbpRoxNmGQuS6R5I++9nPlu22266ZdlOOKBsDV0uQszjf3tYeoT5CEkZxKRa1rmtCEthYT4DQx2JHdR3PGWnqrXrmtahJYH2+vR9TCPNZ69KuG8c1gajvYXRftw+DCh5F0xN1vJE4g3f88ccXnj71rU1IH33/Na95TZ31xPfdz7Np5xa0CuGx/d3f/d1BnP5CeFGkf/3rXz+nbN420z/7pk6QO9dZu9UnyGBXGmRFvP7clkkTkrhfn86L87kdjUASkgmvIdH5GA6eA8JQ6TimBtoSUxemaPokDFY9uvJaK0NfuxhNTbhPm9jUrsc20++656gpm2F5IBTK4PXFkC233LK8/e1vH4RQdn/7t387iIvzlPV8CIl7IGrm8Cl5I1eKqv3WBiP193//9w1JGEZIeE2U/4tfPC6K3xgccaOCNRXEwrtIS4lrD14rtcaGouQpqUX9MuoMG++S+nKd9sMoMVBG8U984hMHi1rVkSmEeMvm+c9/fuMBWEmExNoEODLsPF/26+kARBGpENQvzPSxiOva1rjHPkLiWmtK5hNi4NFHSJQl2sGwLU+a9htpEGkeA+1IW9W+1/f6EVPByo9ARd+0L85xkFCEQl9XdgMuWFh/pa85RhCds5arS0YREn3FNJY8aq+rvOAivh78xD3WFyFxvy6dF+XI7WgE1ishuefeNeXqG2fL+ZctLlx9w2yRF1nuHhJKrZZhhGTjjTduOtWwEQLyoePVowzuZ2tPalkOhIRHQFlf8pK1byfU5Yv9WPAZUywRH9v5EhLXUYJcxcNC4MVNr4ymQ9rC2+RcvUDRqJy7Gtlxbtddd22OxYVS9LZGEDWGhIt5nMXI7o+QWOzLgBpNEgbS9BISgpAgSEhHeEiMRHlhgpCYrkDIlgsh8XaTKbP5hLar/8UvfnEzEucZ6SIkYQjUybiBoW0LQmIqgudqPgFZdN8+QqI9hIfAmgntReB943lAzB1rX0FI1HNMkbTLub6PtTUEOUTbjHVlJ598cvPsCIWym2rhLQihB+g25OULX/hCRD9sayoNhn2LVXnHom7b3xaKfqwMbVmfhGQcndcu30KO752aKtvsc2q57MbuN5EWkudyuGa9EpKbbltdPrj3dHn51lOLCvK48da1c5nLnZC0K3nYlE28fdKeZqnzMDrSKc2lD5OlnrJRNkZEWfs+/mR+33neHXPqpmy86VLP7wch4XEw1RIhRpz1FEbg4W2kUFx9W4SChKvXa7WIU7zlAz/lUbb2Oo+4jzLXr6BaK8S41EYJITHKHVeCkJiicG/SJiSIBkyDkCBAyFMQEgrdepn1RUgYzr63bHj9GKK+euiLj/rx/Lw/piSRDtJFSKwTQswEC0Hli7RFXNe2rqcm41Ka15PdSx7zCerIPbvyjLxtvZGkrcWbVUceeWRz3bnnnjtIFoSEgV4uMi4hUV5EzxRofLxu5513bojKqGdBXGFo/RtiGMG6L9NB6sU0MC9J7SGWr/K5tiZCcb/1SUhG6bwo02K2yMimux5fXv6hIxpSspi8ltu165WQXHPTbHnzztOLehvGmzQb7zTdeFqAuZIICUWlU9Uj8naDoch0TOmGvbY7DiGhpE0fDAumUtwrRkPKM860zxFHHNFcx6gz+m3xGivPAUVO2fAI+AKndQJwcD2xHfaNi66vowYhQWbao9xYNFwbPKMrBMei4AgUH3zqaTDlqT/wxROhvJSvdTzICILCYAo8NQgJVzVl2xdqL1oQEtdTxKRNSIywrS8IQsKYIWpBSCyuVP/ri5BY7+B+QrRh5NoxsuQ7OjyDQizwRpoijoHxinMc29bei1g34Iu63j6KV229seFYqA2R9SOmFEaRgwbc1g8j6BnmK4i0ftJ1TwQ72gTvp3TWFImDkTd34jzyFYRE2r42U78aPd+yLiS9tqaelFvQ1k1T2Q8vZ3gn9t9//+YZo9/zrNQe3b77I7aw+bM/+7NmgILwa/v6GO+STxl4C8qCWQMyeihEvcGxS4KQyGuYrotzMS1U9/11ofO6yjbfuJqMICWOV5IkIZnwGpJ2Y+nzkHj1UGcUamXcvt5xLNysX1Fsp6Po5NX2ttQdK+43zraPkHCjvu997xsEI5fwXiAc9QeilJGSojzck+eAwq2ForVozuvLC3VXByGpjVTcgwJ17yAkjAUyMe5rqoHrOJhZ94CQjEpLEYYEIXEt400sHEQ+Y8rGolg48TwYxXtOCtpnxilt5M41CB4ytD4l1hP04WnaBh4wD2EovEHTJ2HghuHo8/0EFtqdcixEtE2EnzGcT/AMytdFSOKV2WHlj3PaQhCSiOvaGiisTwkPRFdZIi4ICaKiDk466aRiOgc2sLQfIaY062fwppq8ENIQr+7Li4RetI5IOtOSBFkx8IkP1zWR1U8QkijnuNs+QjJfnVcVZVG7K52MACcJyTIhJCojlFr9ame7BZs+iNX29dRGO10YzmGEhAIwuh0W4jXZPkLS17l9kKr9XQbGAtlwjdf/kBULE9vBt0qMgtvx9XHXh8ICgyAk1nSYa65DjOaCkAxb1Br51VtEAKZ1MLXiVes6zr51IwiJEV79JoU3idRPxBkdhyAkjClS95WvfKWJfuYzn9l4boz6eUHUvykdefNEkH/6p39q5ukREiJ/i13HISQUr0WHfWE+UwejCEmsy/n+9x/6MvIoQoLc+JZLhPhiqLqMOCSMxDoe3i3ravpCk7jjByHxXQttcz4hSHgXIeEharcNRlu7aMfrM0FITHVEG0E8eW7iuL2GouNR1mkUQuKT/aZh4hP78Z9C2qk+jZCYUkYg+vRCxIcHtC5kLOqHV4iBSXvK0zobnsxYOK5PyBfZ6ZIgJPrGMF0X53h05NdHSOIZ2tsunddVnoXEPRLICFySkCwjQhIL43wNsk98m0RHoMSHyTiEpGuU0s5z1Fs2Bx54YGMEGAIh7ssgdIlObt6c1IvU2p171PEwF3AQkmF5jCIkVvHzZjEAo8TnyfvejEIa2grVCNzUUZcgJDxgdX4MgGkhCs+aGYsfiemh+LAWD0pM2TjnrZxxp2wo4mFYnXLKKV1F7YwbRUgYGM9fu9tHEZL2jRA45UVQ28LDMOxZ4lyf9w0hUR59Yz7BQk55dxGSdhkdq+d2u4h0QUhqImhggMwvlSAkoxa1XnzxxcVXdBE6i8TDGwLPcTwkvKttDOFqkXFbYhErQmdAwGPU9xp4EBKexXFEfsrRR0jmq/PGueewNI8UMgKDJCTLiJCE8e9bZa7CYsqH+36YBDHQYWupp2zWBSFp52HEyn0q1CP/ugyxH4TE91nqPw4btc+gjUNIrKWwPqUOvr5J2bQJCY8Mg87tGwpJOl4J02kh/jnWors68EJQwnVc/B+LhbLtBcijCAmi0TXlEVM2URYYcGmH1IRE3LiEBOHhzekL437Lwz27CEltKKwHgm8tiyUk1lXFqFpdM+RdQV9Qn/pGn8R0orpfSOgjJNa11O3DM+sjdZwFkcQr4e4dazDELTUh8TpvvPWlPF1v2dBN4ttvCY67hkS9tPuK/girtmiz1oy4H6xg1ifrmpAsRuf1lbEv/pFERmCQhGQZERIuWp3LqKBPwuVtYdcwWSpCokzxPzOmGoZJEJLafT8sfZwbl5CMs4YkpmzC+FByjIe3VCyW5IauR/OIgrc96kCJMrJ1nAV6xGJNo8ZaRhESX5us84p9yrd+q4gL33ddQhZKSOL6dbENQuLbL0b6CEh4dLjzTVfVJMo950NIkI+YljFdhUAgGeG+H/YMpkmQx2GLxtU3sioggNoFgxZx9TYWslpgHPF9nhf1FvVo6zV37aCO8wo54eFTzngTR9xSExJ1Zqow3jyyrz06DgIPOwu0awKq7OMSEv2o9gy6lgew9syIC4k/Q+RB6fsjPmknTUjcY1ydF2UfZ/tIIyMwSUKyjAgJ70IYxrPOOuthbdZ0DTevNF1zsPUFS0lIEAzz48oZ6yDqssV+EBKKH3kZN8h3HA8J0hYr52MbuDAgJAgJrxTvx7jijY+YeoopG0bYuob4sqtvnRgFW/RbyyhCYpW/6Zl2YHiDkPhOR7sdLDUhQdyQL+WKNxUYmfj4W6zfabftNiHxbPGqtTx9LZdh4k2AnfwjMFbeOkIeCWNobVTbU2HBr2vUd1vUmzprB21F/VnT1T7nON4Y0sbb59sf43NPxMV3Kkg9ZSPOR/hCkCtErpalJiS+a6QukTCBHrIQ2X78t4ypP2tp2gF50R7q+PagC5lRP/UfX3p+ece6qBoP9RwLxpXlG9/4Rn16zv76ICTj6rw5BRty8EgkI+BIQrKMCIkK4aLUMXX22kBSsJSyc0YlfSOxaONheNf3lE3cP4yPrzTWHoY4bxuEhAJGMMYNMBiHkPA0eH23DpSq69uEpOvT8dZheK24rgfl9n888uCiJkFITG3I36iX+H8h6fzLaS2jCEn9bZP6unrKJr5fYYoiZKkIiYWjPuyFWHhegfHx3DHdwzvCKGm7bWkTEv+8jGhEu3EeZrxNPDDxdd+tttqqnVVDTNzf9f4jhZcsXhPmeegS652i3Otq215DFR+6C4NbExL1zWNCPLNFoW0P6DiExCJcpJ4HaV0LMmj9TwjvSCx0t1YEbnRNVx82OFH39Tl1WEt8UKy9fs66OjqkLfqYe8INXhbc9nla1wchUb5xdF77OfqOffTMd0ZW4qu9fc8sPgnJMiMkRpPx7Q/GjWLzlcP44zwdr/5uRV/lLjUhscgyRskUZZcEIelTJF3XiGOcxiEk85my6SIkRsaUXvtT1xak1q7lICTK5g0hBtS9eVFcj8DUsi4ICeKqTdTu8aUiJKZCPCfXvWdurx2KdTcMU9s7Apc2ITF6rr8FgswEsZF+2KJWBh2JREKVSd621meE16WuC/vIqemlOiAEcV0dX+/78Jo03jap4+0H4Y177bvvvg1JivVINSGJRcXaoFdl5Wk6opZRhMT0TnhPTWHEW0d1HgvdlxfvnDVJIV2EhJejS5DDYf3VNTxCXlVvl9tCVOQ2RHsPb5dBm6ka5JwnS9r2J+Vdt74IyTg6L55j2JZ3pE1GDjj+22VUGJbnhnIuCckyIyQajtd5ERHz7ZRTBIo/Fu+NamBLTUiUjwJTdiQqPtVelzsIiRGWPw4cN8BlmIKLt2y6CAlypExhMGLKpstQ+sy1tAxGiLdu3L8mGaZWgqD4cBrlaGrFOgAfLGvLKEJCMdejydhH8ORrUZ28Gf9aloqQeBW675s4/pk21mK0/0gwyu55eT9CvJGB5PXJMEIS1yAmiIGPbKlDrzTX3qRI17VFDEwTWKg87NV663fk3WeII2/fyfAhsXqxp0WiCATh7UQufVeGJ4IB91G9WkYREmnjo3/KVH/npc5nIfvxWm+si5LHuiQk3uJSZp6xWhh4GNF7xFokOEgLp3pajDdMPK9o/XaS69YXIXGvUTqveZARPwjJrT+Z+x9Xo8iI8ytBkpCsZ0Iyn0ZDKZkb5fqPefj5XL/c0wYhoUjmG+ZDSIy6vIZYv5YcXhl/4OfeXMMMTASvOVrgyvDXq+pNGXgbCtlhiCk7I3/PEsIIU5yUqbUFbRlFSNzXuoiuwChYQCePtqdsqQhJ+/ni2AfNYrol3jqKc/U2PA1IeBhVX8Htk3EISVyLCMd/RHHtM1xdYuTtI33WJcAW+Rv1yve4hMQ9GVBeDP0ZeUNi69dQveEU0xaxHqYu5ziERPr42qk2uK5EnfC61IMKhMTaKIMIW32oq60rwzAPCdxNuyDx6hXpYNQF3/aRr28OqYvwdpmWgldbXGOwYM0K4j5qWrt9fR4vPQJJSJYxIVn65jHZEgQh8XaB9QbjhoV4SOKDbBSchXIhpgK8mms07FwdjNLbr2BTchSz9SWxcNcIPzwu8nXeiDfm2ONesR1FSPrWkLieixphiXUqkaftciIkd9xxR+Pl4PlA3IaJT99zy8OeYeJVYpz6ZD6EJPKwvgFur3zlKyNqzlZ9Ig0IqE/Sj+OJHJeQuFF8ZRSR9pzuE2/VREFMw3V51Jwfh5Bom8iqBajrUvQDpK4WhARpjP4SH+ir08T+MEJibZyF0MgoMaUFG/nG22bi9S+E0rdnhhENX3HV15Gc+i2lKEtulzcCSUiSkCxZC+Vd8CnxYa/sdRXOmo5h/xrqK5byrRWSb5KYGqq/7VDnzcVPOUbwnYNRYtpGvvX6hriGB6Y9Hx7nTBv1fWzMeovaIxPX1FtTALEWoY5X5noUayrBGydLJcrY9T2VvvIgBV1YttNbJ+CPGfvqsp0+jl3XXqAc52xNtw07X6e1j0hpZ6YWxhVvyplO6bqPtue/bLrEWzhd/9sUaWHtFWiGuO05izQL3WqP7VeltTN15c3AYV+Wdk/rYbq8PlEe/QSBDeE1gUVb2v8A3T4fx/JSlykbHgJJSJKQbHitNkucCCQCcxAw1WFqCLFOSQQ2VASSkCQh2VDbbpY7EUgEEoFEYAUhsEESkjd+bLpcecNseXC2NGH7Ax4oz3rPVHn8z8nFQraPfd1Df/a1guo3HyURSAQSgUQgEdggENggCckLPzhVdj96phx2ykw59JSZ8qadpstTN01CskG0uCxkIpAIJAKJQCLQgcAGSUg22nSqPOd9U+X5m68NT9tsqjzx7UlIOuo3oxKBRCARSAQSgQ0CgQ2SkCxkSmbUNTlls0G01yxkIpAIJAKJwApFYL0SkhtuWV3et8d0edEHp+YVnvf+qfKMdz/kAdlos6nyv//vQ3k0HpJ3PHR+FPnoOp+EZIW28HysRCARSAQSgQ0CgfVKSGZnS7lvak255775hWt/MFu22nd6sGj1v7efLhddPdvkc/e9a8q2+z9QnlkRli7CMSouCckG0V6zkIlAIpAIJAIrFIH1SkhguGZNKavnGW7+8erykf0fGBCSjXeaLlffMLs2n9Wl7JBv2azQ5pmPlQgkAolAIvBIQWCihMQ0y9b7TpcHZkp5YNXCw023ri4f3u8hQuK138u/P7s2z5lStvtcvvb7SGmw+ZyJQCKQCCQCKxOBiRISb8O8bZfpcsoFqxYVjjptVZNPTLu8dMupctBJM4M837nrdEV+FlsAABucSURBVLGOJM4vZJtTNiuzgedTJQKJQCKQCGwYCEyUkCyEGCzVNUlINowGm6VMBBKBRCARWJkIJCHJT8evzJadT5UIJAKJQCKwQSGQhCQJyQbVYLOwiUAikAgkAisTgSQkjyBC4m/J5/NX6XWT9xfjq1atqqOavx5fvXr1nLj64JZbbun9O/U6XXs//ta8HV8f+/v22267rY4a7H/jG9+Y8/fl/pr94osvHpyvd9r/juqvz13fjq+v6dv31/F9fx/fd8184j1H31/L+xv46enpsbL7zne+U2ZnZ5u/fO/LT0buNym57777yhVXXDGR7NW19jFK1PU555xTZmZm5iT19/XDcLnxxhvL97//8P++uvTSS8tPf/rTOXl1HcynfXZdP25cX1nG1QPropy333570y5hfNdddzVFp0tqEX/NNdfUUc2+eujCORIuth4in3G3N9xwQ6fOUfY+rCNv+uTaa6+Nw8H2kksumaOrBiceoTtJSFYoIWFM6s7MWH30ox8tX/3qVxuDS9kISMbZZ59dTjvttEG4/PLL53QHHWm33XZrjBglELLNNtsMDDeFc/PNN8epZrvPPvuUI488slx44YXlqquuauK+/OUvl+OOO25O+NrXvjbnOgrKX6mHUEznn39+OeWUU8pRRx3VlOUzn/lMOeussyJJOemkkwZh2223Lcccc8zg+Atf+ELZfvvtB8fShpxwwgll7733HhAWxsz18m6H+vnuvvvu4i/f63D00UcXoY6zL+1ihOG85557CoX4uc99rjDm1113XTn33HPLySef3ATP98UvHjc4RjikUwdTU1OD2yNMn/jEJ5pjhG7XXXcdnKt3YL7TTjs194x4uLXrznHdXo4//viy8847PyxoQ8p06623NtnBcvfdd4+sF7TV5r73ve89LBxwwAFNO+k61yYf2ob2Wcvpp5/ePGcdF/v60Y477tjUw6mnnlqEb37zm+WHP/xh2WKLLZr6r9tikPg6bj7tM+473y0i0K6/yOPggw8etPeIi+1CyongdNW5dnfsscc2JJ3e+NKXvtTcpt3mrrzyynLEEUdEEQZbbXCXXXYp2n9bFloP8usqa19c3NvAy7X693nnndeEb33rW03f3nrrrYt2H/G2995775wiIyTau2cN+dGPftSUJdpIxD+St0lIJkxIKDzGtR0mNTqMxsxIhFHXqSgh5ADx0IEoXUFn+MhHPtIYN4qVUTv00EMjm2ZU86lPfapRuPL5/Oc/34wqJUBIpN1rr73KnnvuWTxreEw8nw7IaDKiFBMxOlIGhIIiYwzahqlNSJCRz372s8VogocnlMSgkKU0ChaZEBAvJCuOv/71rzcdP45ta0EaeBgQOMbatWeccUb58Ic/3BAh9xdfj+KU+8ADD5wTpBHa8W2DV997nH2KnZENQsK4w/D6669vMAyDQEHaF6IekDjXBmaIGuVJoQuIJnIQx3V5kAd1HyM7hlh9XnTRRYNw+OGHlxNPPHFwmTagnijgCNoIQmoUSamTdUFIED33n09QBsZRGxGQA/Ucx9oCvBA9hC1CEBmEeP/992/aFsOKkMAbqUVueZ922GGH5jzjg4SRuu3Nt302GSzgR9nVX91uZTOMkCyknNqW9kY36N+8TtH+5ktIYKmNCAgVXWUbceGBXGg9RDuvtwZpQh0X+wG7frTffvs1/Y7e0/8M6BAp+i30hXT0R+1d1KboFvqVbrAv7Lvvvk1ftC9NSinrhJA84e1T5UnvWBvab8k49+R3ThWvAEvzsPObrI2X5gk/JwfS2BfnGnnU18W9It6xtHWIc/V1w/Yn9ZaNRscIMB51aDPodd0Ya0JidM2gIyA6HgIShIRydhwKlxINQkJ5UwY63Fe+8pVG4SIs4ig5HdMoJowdgykfhsI51/AyyF8Hdi9l+Z//+Z9mhM9guR8DQNwPadJpGQn7yokQMKLDBFHRqSkGysq9HFOMDKp4ikI+jEYt6oIBivIxIkZClCAcPZM6jOeMaykSxjcCRS/Esa0060IYQSN+daEOtSXljREtDwlvheOacCmzMqmHO++8s6mXww47rMEBFgwyo2FfUCe13H///cUUGkFI1FEt8m0TkjbZRhgmQUjqcoR3iEGog3oNMlynt2+KRftVRwwh0V5gyWuHbGy33XYN3qaAnDP61SbUgXamXbgHT1Tc96CDDmrS1fdbTPus85nvvvoTahlGSBZSTrjwfnzyk59sDDRiwvga7MBHOxWk0bfCQ+Je+jh9oK/ZDy+kevn0pz/deBpcQ2+ELKYe5EG/qTv6SUAmhThWZs8QgpzoG8gQko74I17KpJ0oq30ExeCj7fGgLxF5gx5B+xDi2DlpUhZJSBCB575/qux40APlC6fOlI8fOjOHOPi/mf+7x3Q5+vRV5cTzVpWDT5opm3x8ujzl5+TjWe+ZKu/abbocedqqctgpM+XZ732IeNg/5OSZsucxM82/+tZkwn3E+08c8e7vWyVfPHtV+eJZa4M8tz/ggfJ//t9DedZ5tPcnSUgY4y7hstM56/luyvvMM89skjMmRvdGsUZdztXKxchZ5/nYxz7WeCl0lJCakDCoOpOgMyJJcYzJ9xES99fR2h3M2hBlRjrqkYDRWExPUC46mo5MsSMEFLeOzmDp5BQYQwuHWih9RiFIUnhIgkTV27gfRQAnxpaBDAUHL0ZXHbgv5UGhEc9HcUrLIDG27s3LIQ/3N+KHl3T1s7oemZI+ArIgxLGtNOtC4B2EBHamY+AZoT1lo35DPIc6NMJTZ4xDiGdvP5fpoFCaniFkXEKiPWmvEYxyJ01I9IG6b0SZYQWbtvAeeHZkSxoGiYFAVsWHeIa2IB6In7bUFfRDRr+WhbTP+vr57CNYUX9IeFuULfqnPiqELKScCIN+DRN6R1+iZ3iM3MeAQ9sNL2cQkrgnIqC8IQYIvKamwQgdSH+0ZSH1IA91HXk7pp+EEHVKN7WFfkCSPIv+RN+1g7avHdWCbNAfMVCBjRDHziUhWYvYojwkPkbmk+5X3jBb7rxnTTnjogcHhIS34r27r/2i6tU3zjb/PXPdj2bLOZc8WF6z7XTj+XjtdtPl3EsfbK79yT1rygt/TjCQBfu337Wmue5V2z70PzbOnfHtB8t3rpktr9tuuvGenPzNVeX2O1cX9/nG5WuD81dcP1v2+8pMeca7Hu5lWQ6ERBXosNEZGS9KP0akOqJjnVwnYFB0asKYUgICzwRFyvCGAawJydqqLo0hkoYHgpKI0a5OJG957bHHHk1niWu4XxmxOhxyyCHNaSMbHVL5Y5SjXMRoiBfF9Vz8ysN4GoEbwSMFFFaXyIsRi3llhES5YgSjvHBzXJO5Cy64oFFelAVSQVEyNuaH+0SZIg/Pb+TUdp8y0OLlqdye0bRSO1gfI7TjHQcufeUYFo9A8Bipgy233LLZZ0QYj75g9FmLEZ16MpKP5/RM8kXi7IfS50lRR+oQ4Q0Zh5DAG8Gh4GFhX1Dv2lsY+3UxZRPlsjVtyNB1BW2nFnUoPYMQooxB/mFiDUYYxkgTW4bQFCXMuoK+1CYkrl1I+4x7zmervak//Sv6UH29suljUXbewFrmW86akCD9QUh47ML7pr3a19/ahET/1K7pOKK+GH7lijarzmKAEmVdaD0gJAiA/izwgglxrDxtQqI90LF0hb7UJ8rcRUjoK148QdsR4ti5JCRrEV0UIfGHdjwVB544U66/eXU56+KHCMlz3jdVDvnqTEMq3r3bdPF11b2OmSn+KG/Xw2eaKRzekWPPXFWuuWm23PWzhxOSn9y9piEebUJy5kUPlksQko8+REi+e8Ns+cBe08V9BWTlpPNXNeWyjyC1SUh9PEkPCeOKCNQhyIBRnRGcjmzNRxAKBoxiDFey6qIgKXlKH8N3PsiL89znlCGpCYm8sHCGPNz5Rr46IOON0BhVRTB6DJFnPXqgNBAaopMiHcpoWqRWGIyZ53LPmJ+njDyn0Q+DpPwxRx8GW55GD7DwrO7vunqkR6HVBpcx4cWgyNwrtuLgsNVWWzUGiBGKEMrPcxi9u9ew4DmjjIxrKK/Yqlv3trAx4upteyok8B1n677qiXuYooYzBW3apmv9BNdxLe4NV94uhASeQWTUEdLouK1otZU2IeG9Y7AiIKcxZaOcyiaIY+DjmNGaBCHxTOHtG7WVliCcSJl+RLQlxlL/4uFSbh61yy67rMG3SVT9MIT6mW1XUCc1IVls+6xuPa9duqSPkIQeqDNcaDmDkKhz99TH9WHGWWDIGV06gce0JiT0GIJggEQv0IfaoT7pOh4qHgt1pD+5V8h86yGucz99h+4UTL/pE3FMN7UJifJEndKlyloHfYj0ERLYhrQ9Ms4lIVmLzqIIiXUavA9v2mm6IQ41IXnJllPlaxesagiIKZonvmOqvHXn6fLt784W0ym8K8Krt50uZ1/y4KIJCW/IZp9aS1CUy3TSbkfOlBtuWV0233O6bDTi0/KTJCSUOqNfh9pAUQ5GCDpxiE74oQ99aA7hiHO23MLOxxoCW8ZWHKkJic6sg+k0FFQEo4/Yj210rLgXQsAro9MK0gUhMWKvnyOusaV8dGLXM3ZGozo9koBsMKyMt60Q+ej0lIU0jJnrKfggavJuExJKihIR4MLYxLHRInc+xWeqR/726zdPKDYKMdzX7S3j49o+oUA9A4MGU+QlBPbrQhh7mCAQDCYxEkMI6nZF2Rn51gL7aFsIyagpm7i2TUiM6HhT2oHhIMgl8i2oW0TQvrYN00kQEl4dXhd1NCxIEx4gZdVmePc8o/oPTMUbBSO1npNxbYv0CAwS3hWincV1i22fkc98t/MlJAstp+tMl+rf+pv+p5/xbNIV4nhL6ARtsSYk+rY+S68w9HQMUQc8FfIg6pZOq2W+9RDXIiTaAsIpKKv7x7G2OoyQ6GPujeAKBktByvsICaJLNwieX4hj55KQrK2dRRESHgbGn6fioqtn53hIXrbVVPn6hQ820yixwNSf4n3rqtly3JlrCYmFq9LxePR5SEzDIBo8LBHkccm1cz0k0n1w7+nyvPdPledtvrZM/kPn+pvXpltKD0nfGpLoIEZsiASFH2LxFKUehjriY4s4uEbeEXRm+4xXTUhcI46hxOop2a7AxRvTMXEfhEDHYfwExKcmJKZjXMcFrFMZuRPKx/2UM6ZsjI6QJs8k8CrUwmtBMVBgjG+Ia2qvTZuQSEfBGIXp3IyPffez1iIUIGXIkLSFcqnriHHy3CEUbRchgSlvhKmMmPZBphgz5+SjLF1rGyLvcbewR2w9H3LBKyWO4vSsEcIVX+eLbMWIGCGR1jMJPFimvuy3PSttQiJP9cBbE/tIY5cgaPGKr3pgWCZFSKLueEi0uTrEWhppakKizNZCGYFrh1F/8SzeAlOvjG1btBdtnWHrCtobI1fLYtpnnc989udLSOS9kHLCCA7RznkaggDrC87Holb3iP5o0KAtRjnpDvWgryGL4R3mlUNc2rKQepCHfhneG1ttQL+q4/SHWmoPCUJCTyJQgmcYRkjohJq4Rl+t46RJWeSi1pjyWCghcf0oQnLH3WsaEnP6hQ+WCNaLXNoiJLf+ZHWzfuTL56wqJ5y7qtm3tuXQk2eKqaUntt7UibLHdpIeklCYXQ0uRhcMIOMQDVO8EWYoVNeK0zEYAdMrOhLD1yVtQiINRU1B6OhdAdnoIiSMOK+CwGjVhASBMEJQnnCBuxcFQtHzopiaERAXRk7ZkAOjZ/uCkYbFrUJNSCgp87thBOXdRUgoNyMbBMhoyqhLmXgPECoyLiFhTOqRMeVUExKYew5kQB1QMLW4H+JnW3ti6jTz2WfIKXzPQ3HChwJESIzi66kKyrb2kCBk2lUQB4REfWqTgnPq3T5PVi1BSHh+XO+5GQrtiMjHtW2R3vRVtE3klOKeNCHhfUPalEkwKkfQiOdrExLxyBLiX3vgxOsHsV6ryaD6Qaa1dXm7zn4EbTrwqi5pPHYLbZ91PvPZD0NPb8R0leu1b3XbJQvpR/LX12MKAxkNQsJzQroIifIZjEU5pXMdYhC6xGBG/9eO27KQepCHKRJ1S58hT/KP+7XvEcdtQsILpD0J2koXIZFnTY5j30J5IY7r7ahyRHlW6nbRHhIGfZKE5K571pTLvz9bLrjioWABbZuQWBT7w9vXLmy97c7V5Wf3r2ne0jF1FKRj2HaShERjDfdebMPAYtuMBGFMGVsdjTB0vAMUOYMgH54Dit6xOVWK177AEIXx7SMkDCiy0BWMCrsIiXsyhILy1IQkyqq8OlaMkjyTxZG1h8QajbgvxcOVH8c18aoJiVczGZpauggJAsEYIXQ6O0MjDoEykiLjEBL1w0jDPAwqI1+vYaHIKFpKKubH6/JRnkbXFG1bEBQK15qOcYUxV3bkSh0QZUNIeGDURwSEsyYk1gohjSHqZT5TNowXA+OZ4cnohATxaE9L8bjU3j7PCyfK37MQhq/OS3/Q/tqeirhX35ZBQDaIdsLAUeqCewwjJKbaECc4qvNog4gDHJWv9hrxqJgyi6D9ui6ObXkt62PXkIW2z4W0l+aGP38LTH+mE2Lqw7lhhGQh5URIDAKUVfDmm/6tLyHSpIuQhDe1JiShF53Tb/Ujfa0my4uph8AGuTclhFiEzoxzXds2Iak9qAY/XYREH9ff2sF9hXa84/noha5ybuhxy56QeFvGOhPTPhGsVWkvarWGxFs9FrTuePBM+cFtq8sBJ86Up79r6QkJJdUOmD+XNg9CTEfohDEXq2Ex9oyJ0QdvCcMQCs55hoASj3l6r9DG4qk+QqLRS9MVGIsuQoI0hXjjpCYkiFAI5e+ZKCgubUazJiS1G9Szea4uqQmJ1ehcm7W0CQncGA8kwrQPQqIcFI348Dr1ERJlERgzIyeeHPhRGvYZ47YEWQlCwvhJC1+iTl3PYMo7hMJRX4z2uMKQu19NSFzLkCIf8IrAmNaEhEEI17drlA+5Cg8ZguoZ4jjaj7TqTrtzH2VAftoki2IOkuQa+cgziKk4JLZeRCzOMaNfi3pGfq2fGldqQqJ9BTGLbXhwkEppQ3gIkAkkmjhW/8iNKS7tWjk8CyNNtDM4CEFaEJ+Is1W3CGnEuWYx7XMh7aUp7M/XmfH+MOzKGYQBNoxoHNsiAgstp/4ea9S0Gd5EhAT2QYS6CEmUsyYk4rQD7Va7QnoRG21PnyQLrYe4n608DWAQUqTHwEgbqNttnb4mJOq+XrBuP9qWvqe/DBP6tNapw9I+0s5NjJC8ZIupYg3HtTfNDqZL3rLzdLmwWtTKYzFqygYhGectm1jUajHr8zefahbZ8qK8bZe5rwz3eUkm5SFZFw0qOmBfXpRnjCz60oinfJGAeO2svdXphxESxgdh4ukgDI1jowyGnDGhnCgUColQUFz7FIyOHDIOIWFk3aMtbULCAHjrg2KTPjwiCFbtHegiJBQDxUepmI5gnINsMM7Kz3C6Zz1ajjIhP4yQEaLztUFHkOCJnDFQIRRrPeKL+FHbLkJSExuKEAGLT/HDj8JVJyEIiedV7q7AKIdQ0EHmTH9EncZ5W3nDjreBh4EBD08DzwjskGZtmPDYuC9MtIu2yEc91Hi109THNSGp42Pf81hbpW3Lm+gHFjobJdfCc8ArWeMFc88UhAqmPDFw7iJO2kJ9vfwX0z5dv9D2oj0EmTK1py30BSRioeX0vPQAkhMBMYV56KVxCIl+p63AVtuLfggDBF89xHeHFlIPvG9wUFaDBf1EO6OL6A517x7xXSftIdp/TUjqNhP72jwviQGmNjNMkpD0ozMxQvKc9041HgrrPbbaZ7r89w7T5YATZppFrjsdMlOeuulaz8W6JiQIhzd6PnnETLnuB7PlS2evat6wiYW1GyIh6a+++Z3Rmdsj3DoHCjaUdsQb+YeB4SlwPpQMI8MTwWtDYYTRcT7c+EY4zunYtaKWNkZPca/YIlhRTiO7tjjXFW+KiJGJclA27h9CIbWNkGfzjPFMkba99QxdnhIj2L5RVeShXCGwYpC7yh9p+rbITl0/nifqxjXK4vlqnEOBR56wq0lTxI/auheD1SXq2j0ZkPp+npvhqEU+CCsDFfVUn7dfk6L2ufYxPNVfnxgJM251GuXsqjPPURvByNMzBabODysfUtqVh7wW0j4X016i/PPdzrecnpceaEtN2PTpaBvh6Yj04mvCF/HtrboMWUg9aG+IRZ1P5FdvlVV/R6oirXYc3rQ6bezrU9rZsLYRaaUZJ12kfyRt1wkh8aGzcy+bbTwiYfC91fKeT0+Xb189Wy67bracd9ls8wG1Uy98sPggGk+GtC/eYqr4sJn1Hzwbcb39G29dXc6/bLa8YuuH4p2X3gfQ3BfRQDp4XnwFNq5/xTbTzVs+PCev337t12HjXNd2OXtIHkkNcqU/K2WXkgiMi0C2l3GRynQrAYF1Qkhe9KGpssfRD/90vLdbvOrruyNeAf7sF2fWfsys+s8ar+nucuhMOfzUmWb9R5AFHhafk5fvCz4wl5DEp+N9Ft6rwz4dv/exM3Omdp76zqmy+V7T5dBTZprP1/svnci7a5uEZCU053yGRCARSAQSgQ0VgXVCSHgpvFbb9Wptc+4da6dRTKW0p04QikjTJgrSy1Oa+lzcK+IHx61XeyPf9j3rvGI/CcmG2oSz3IlAIpAIJAIrAYGhhOQJG19fHr/J/XPIQBjwlbW9v3jWlEQgEUgEEoFEIBFYGgSGEpLNPn5LedzGd6x4QuIZPWtKIpAIJAKJQCKQCCwNAkMJyeXXTTeeg7WkZCV6Su5vCBfviGdNSQQSgUQgEUgEEoGlQWAoIVEkhpr3gNG2zmIlBc/k2ZKMLE3jy7smAolAIpAIJAKBwEhCEglzmwgkAolAIpAIJAKJwKQQSEIyKWQz30QgEUgEEoFEIBEYG4EkJGNDlQkTgUQgEUgEEoFEYFIIJCGZFLKZbyKQCCQCiUAikAiMjUASkrGhyoSJQCKQCCQCiUAiMCkEkpBMCtnMNxFIBBKBRCARSATGRiAJydhQZcJEIBFIBBKBRCARmBQCSUgmhWzmmwgkAolAIpAIJAJjI5CEZGyoMmEikAgkAolAIpAITAqBJCSTQjbzTQQSgUQgEUgEEoGxEUhCMjZUmTARSAQSgUQgEUgEJoVAEpJJIZv5JgKJQCKQCCQCicDYCCQhGRuqTJgIJAKJQCKQCCQCk0IgCcmkkM18E4FEIBFIBBKBRGBsBJKQjA1VJkwEEoFEIBFIBBKBSSGQhGRSyGa+iUAikAgkAolAIjA2AklIxoYqEyYCiUAikAgkAonApBBIQjIpZDPfRCARSAQSgUQgERgbgSQkY0OVCROBRCARSAQSgURgUggkIZkUsplvIpAIJAKJQCKQCIyNQBKSsaHKhIlAIpAIJAKJQCIwKQSSkEwK2cw3EUgEEoFEIBFIBMZG4P8DUJQUYCTLg1cAAAAASUVORK5CYII=;" vertex="1" parent="1">
          <mxGeometry x="248.09" y="220" width="378" height="74.5" as="geometry" />
        </mxCell>
        <mxCell id="SKYqRsKC4ZwLW245TKKd-14" value="通讯录应用" style="text;html=1;strokeColor=none;fillColor=none;align=center;verticalAlign=middle;whiteSpace=wrap;rounded=0;fontSize=15;fontStyle=1" vertex="1" parent="1">
          <mxGeometry x="150" y="242.25" width="98.09" height="30" as="geometry" />
        </mxCell>
      </root>
    </mxGraphModel>
  </diagram>
</mxfile>
